<svg width="50" height="51" viewBox="0 0 50 51" fill="none" xmlns="http://www.w3.org/2000/svg">
<circle cx="25" cy="25.5" r="25" fill="#3FABD9"/>
<path fill-rule="evenodd" clip-rule="evenodd" d="M7.90255 22.8983L7.8906 22.9063C7.3342 23.2772 7 23.9017 7 24.5704V32.5C7 33.0523 7.44772 33.5 8 33.5H9C9.55228 33.5 10 33.0523 10 32.5V31.5H24V32.5C24 33.0523 24.4477 33.5 25 33.5H26C26.5523 33.5 27 33.0523 27 32.5V24.5704C27 23.9017 26.6658 23.2772 26.1094 22.9063L26.0974 22.8983C26.4619 22.6878 26.792 22.481 26.8561 22.3889C27.0108 22.1667 27.0819 21.5 26.8561 21.5H25L23.8292 19.1584C23.321 18.142 22.2822 17.5 21.1459 17.5H12.8541C11.7178 17.5 10.679 18.142 10.1708 19.1584L9 21.5H7.14388C6.91814 21.5 6.9892 22.1667 7.14388 22.3889C7.20802 22.481 7.5381 22.6878 7.90255 22.8983ZM11.102 19.5588L9.39216 22.7647C9.21453 23.0978 9.45587 23.5 9.83333 23.5H24.1667C24.5441 23.5 24.7855 23.0978 24.6078 22.7647L22.898 19.5588C22.5505 18.9071 21.872 18.5 21.1333 18.5H12.8667C12.128 18.5 11.4496 18.9071 11.102 19.5588ZM8 26.5799V25.3705C8 24.9846 8.41861 24.7442 8.75194 24.9386L12.0908 26.8863C12.5509 27.1547 12.3282 27.8607 11.7973 27.8164L8.91695 27.5764C8.39866 27.5332 8 27.1 8 26.5799ZM26 25.3705V26.5799C26 27.1 25.6013 27.5332 25.083 27.5764L22.2027 27.8164C21.6718 27.8607 21.4491 27.1547 21.9092 26.8863L25.2481 24.9386C25.5814 24.7442 26 24.9846 26 25.3705Z" fill="white"/>
<path opacity="0.4" d="M36.4402 21.4178H30.9888C29.4009 21.4178 28.1152 22.71 28.1152 24.2914V30.3407C28.1152 31.9221 29.4074 33.2143 30.9888 33.2143H36.4338C38.0217 33.2143 39.3074 31.9221 39.3074 30.3407V24.2914C39.3138 22.7036 38.0217 21.4178 36.4402 21.4178Z" fill="white"/>
<path d="M35.2247 20.3572H32.2033C31.5347 20.3572 30.9883 20.8972 30.9883 21.5657V22.17C30.9883 22.8386 31.5283 23.3786 32.1969 23.3786H35.2247C35.8933 23.3786 36.4333 22.8386 36.4333 22.17V21.5657C36.4397 20.8972 35.8933 20.3572 35.2247 20.3572Z" fill="white"/>
<path d="M45.9407 18.7371C44.6935 17.49 43.4721 17.4578 42.1928 18.7371L41.415 19.515C41.3507 19.5793 41.325 19.6821 41.3507 19.7721C41.8392 21.4757 43.2021 22.8386 44.9057 23.3271C44.9314 23.3336 44.9571 23.34 44.9828 23.34C45.0535 23.34 45.1178 23.3143 45.1692 23.2628L45.9407 22.485C46.5771 21.855 46.8857 21.2443 46.8857 20.6271C46.8921 19.9907 46.5835 19.3736 45.9407 18.7371Z" fill="white"/>
<path d="M43.7489 23.9121C43.5625 23.8221 43.3825 23.7321 43.2089 23.6293C43.0675 23.5457 42.9325 23.4557 42.7975 23.3593C42.6882 23.2886 42.5596 23.1857 42.4375 23.0829C42.4246 23.0764 42.3796 23.0379 42.3282 22.9864C42.1161 22.8064 41.8782 22.575 41.6661 22.3179C41.6468 22.305 41.6146 22.26 41.5696 22.2021C41.5054 22.125 41.3961 21.9964 41.2996 21.8486C41.2225 21.7521 41.1325 21.6107 41.0489 21.4693C40.9461 21.2957 40.8561 21.1221 40.7661 20.9421C40.6481 20.6893 40.3162 20.6142 40.1189 20.8115L36.5039 24.4264C36.4204 24.51 36.3432 24.6707 36.3239 24.78L35.9768 27.2421C35.9125 27.6793 36.0346 28.0907 36.3046 28.3671C36.5361 28.5921 36.8575 28.7143 37.2046 28.7143C37.2818 28.7143 37.3589 28.7079 37.4361 28.695L39.9046 28.3479C40.0204 28.3286 40.1811 28.2514 40.2582 28.1679L43.8791 24.5469C44.0725 24.3536 43.9998 24.0209 43.7489 23.9121Z" fill="white"/>
</svg>
