<svg width="153" height="28" viewBox="0 0 153 28" fill="none" xmlns="http://www.w3.org/2000/svg">
<path d="M42.4645 21.6956H36.7827L39.1975 7.1501H44.652C46.1483 7.1501 47.3983 7.45076 48.402 8.05209C49.4058 8.65342 50.1184 9.51279 50.5398 10.6302C50.9612 11.7476 51.0441 13.0781 50.7884 14.6217C50.5422 16.1084 50.0427 17.3797 49.2898 18.4356C48.5417 19.4915 47.5853 20.2988 46.4205 20.8575C45.2605 21.4162 43.9418 21.6956 42.4645 21.6956ZM41.2856 18.3433H42.7202C43.4399 18.3433 44.0815 18.2178 44.6449 17.9669C45.2131 17.7112 45.6866 17.285 46.0654 16.6885C46.4489 16.0871 46.7259 15.2656 46.8964 14.224C47.0573 13.2391 47.0526 12.4792 46.8822 11.9441C46.7117 11.4044 46.3874 11.0303 45.9091 10.822C45.4309 10.6089 44.813 10.5024 44.0555 10.5024H42.5924L41.2856 18.3433ZM52.3075 21.6956L54.1257 10.7865H57.9325L57.5916 12.8603H57.7052C58.0319 12.0933 58.4415 11.5322 58.9339 11.1771C59.4264 10.822 59.9638 10.6444 60.5461 10.6444C60.7166 10.6444 60.88 10.6586 61.0362 10.687C61.1972 10.7107 61.3558 10.7439 61.5121 10.7865L60.9439 14.1387C60.7592 14.0677 60.5296 14.018 60.255 13.9896C59.9803 13.9564 59.7365 13.9399 59.5234 13.9399C59.1446 13.9399 58.7895 14.0275 58.4581 14.2027C58.1314 14.3731 57.852 14.6146 57.62 14.9271C57.3927 15.2349 57.2412 15.5971 57.1655 16.0137L56.228 21.6956H52.3075ZM61.7794 21.6956L63.5976 10.7865H67.518L65.6998 21.6956H61.7794ZM65.7283 9.6501C65.1979 9.6501 64.7694 9.47491 64.4427 9.12453C64.116 8.76942 63.9953 8.34802 64.0805 7.86033C64.1658 7.36317 64.4262 6.94177 64.8618 6.59612C65.2974 6.24575 65.7803 6.07056 66.3106 6.07056C66.8457 6.07056 67.2718 6.24575 67.589 6.59612C67.9063 6.94177 68.0247 7.36317 67.9442 7.86033C67.8684 8.34802 67.6127 8.76942 67.1771 9.12453C66.7462 9.47491 66.2633 9.6501 65.7283 9.6501ZM81.3099 10.7865L75.8269 21.6956H71.2814L69.4349 10.7865H73.4121L73.9803 18.0024H74.0939L77.0485 10.7865H81.3099ZM86.2736 21.8944C85.1088 21.8944 84.1429 21.6719 83.3758 21.2268C82.6088 20.777 82.069 20.1331 81.7565 19.295C81.444 18.4522 81.3872 17.4437 81.5861 16.2694C81.7755 15.1425 82.1661 14.1577 82.7579 13.3149C83.3545 12.4721 84.105 11.8163 85.0094 11.3475C85.9184 10.8788 86.9364 10.6444 88.0633 10.6444C88.8872 10.6444 89.6093 10.7723 90.2295 11.0279C90.8545 11.2836 91.3635 11.6553 91.7565 12.143C92.1495 12.6307 92.4147 13.2202 92.552 13.9115C92.694 14.598 92.694 15.3745 92.552 16.241L92.4099 17.1501H82.6656L83.0065 14.991H89.1429C89.1902 14.6785 89.1595 14.4039 89.0506 14.1671C88.9464 13.9257 88.7783 13.7386 88.5463 13.6061C88.319 13.4688 88.0444 13.4001 87.7224 13.4001C87.4005 13.4001 87.0974 13.4688 86.8133 13.6061C86.534 13.7434 86.2949 13.9351 86.096 14.1814C85.9019 14.4276 85.7717 14.7164 85.7054 15.0478L85.2792 17.3206C85.2224 17.6709 85.2437 17.9834 85.3432 18.2581C85.4426 18.5327 85.6154 18.7481 85.8616 18.9044C86.1078 19.0606 86.4251 19.1387 86.8133 19.1387C87.0785 19.1387 87.3294 19.1032 87.5662 19.0322C87.8077 18.9564 88.0207 18.8475 88.2054 18.7055C88.3948 18.5587 88.5463 18.3812 88.6599 18.1728H92.2395C91.9838 18.9304 91.579 19.5885 91.025 20.1473C90.4757 20.7012 89.7987 21.1321 88.9937 21.4399C88.1935 21.7429 87.2868 21.8944 86.2736 21.8944ZM103.474 11.6956C103.517 11.2268 103.403 10.8599 103.134 10.5947C102.864 10.3248 102.409 10.1899 101.77 10.1899C101.363 10.1899 101.022 10.2372 100.747 10.3319C100.477 10.4266 100.267 10.5568 100.115 10.7225C99.9683 10.8883 99.876 11.08 99.8381 11.2978C99.7955 11.4683 99.7979 11.6245 99.8452 11.7666C99.8973 11.9039 99.9944 12.0294 100.136 12.143C100.283 12.2566 100.475 12.3584 100.712 12.4484C100.953 12.5384 101.24 12.6189 101.571 12.6899L102.707 12.9456C103.484 13.116 104.135 13.3409 104.661 13.6203C105.191 13.8949 105.608 14.2216 105.911 14.6004C106.214 14.9792 106.412 15.4029 106.507 15.8717C106.607 16.3404 106.609 16.8518 106.514 17.4058C106.353 18.3622 105.982 19.1719 105.399 19.8348C104.817 20.4976 104.057 21.0019 103.119 21.3475C102.182 21.6932 101.098 21.866 99.8665 21.866C98.6071 21.866 97.537 21.679 96.6563 21.3049C95.7804 20.9261 95.1459 20.3485 94.7529 19.572C94.3646 18.7907 94.2699 17.794 94.4688 16.5819H98.2188C98.162 17.027 98.2093 17.401 98.3609 17.7041C98.5124 18.0071 98.7562 18.2367 99.0924 18.393C99.4286 18.5492 99.8476 18.6274 100.349 18.6274C100.776 18.6274 101.14 18.5753 101.443 18.4711C101.746 18.367 101.985 18.2225 102.161 18.0379C102.336 17.8532 102.442 17.6425 102.48 17.4058C102.518 17.188 102.48 16.9939 102.367 16.8234C102.253 16.6529 102.047 16.4991 101.749 16.3617C101.45 16.2244 101.041 16.099 100.52 15.9853L99.1279 15.6728C97.8921 15.3887 96.9593 14.92 96.3296 14.2666C95.6999 13.6132 95.4773 12.7183 95.662 11.5819C95.8135 10.6539 96.1947 9.84423 96.8055 9.15294C97.421 8.45692 98.2022 7.91715 99.1492 7.53362C100.101 7.14537 101.154 6.95124 102.31 6.95124C103.484 6.95124 104.466 7.14773 105.257 7.54073C106.053 7.93372 106.623 8.48533 106.969 9.19556C107.319 9.90578 107.414 10.7391 107.253 11.6956H103.474ZM111.174 21.866C110.483 21.866 109.889 21.7524 109.392 21.5251C108.899 21.2931 108.539 20.9427 108.312 20.474C108.09 20.0005 108.04 19.4039 108.163 18.6842C108.262 18.0876 108.449 17.5786 108.724 17.1572C108.999 16.7358 109.34 16.3902 109.747 16.1203C110.154 15.8504 110.611 15.6444 111.118 15.5024C111.629 15.3556 112.169 15.2609 112.737 15.2183C113.352 15.1709 113.852 15.1117 114.235 15.0407C114.619 14.9697 114.905 14.8726 115.095 14.7495C115.284 14.6264 115.398 14.4607 115.436 14.2524V14.224C115.478 13.9399 115.403 13.7221 115.208 13.5706C115.019 13.419 114.754 13.3433 114.413 13.3433C114.044 13.3433 113.724 13.4238 113.454 13.5848C113.189 13.7457 113.007 13.9967 112.907 14.3376H109.299C109.451 13.6747 109.761 13.0639 110.23 12.5052C110.703 11.9418 111.331 11.492 112.112 11.1558C112.898 10.8149 113.835 10.6444 114.924 10.6444C115.701 10.6444 116.383 10.7367 116.97 10.9214C117.557 11.1013 118.042 11.3546 118.426 11.6814C118.814 12.0033 119.086 12.3821 119.243 12.8177C119.404 13.2486 119.441 13.7173 119.356 14.224L118.106 21.6956H114.441L114.697 20.1615H114.612C114.328 20.5687 114.008 20.8977 113.653 21.1487C113.303 21.3996 112.919 21.5819 112.502 21.6956C112.091 21.8092 111.648 21.866 111.174 21.866ZM112.879 19.3944C113.172 19.3944 113.461 19.3329 113.745 19.2098C114.029 19.0867 114.273 18.9091 114.477 18.6771C114.681 18.4451 114.811 18.1634 114.868 17.8319L115.01 16.9228C114.905 16.9654 114.789 17.0057 114.662 17.0436C114.538 17.0767 114.408 17.1099 114.271 17.143C114.138 17.1761 113.996 17.2069 113.845 17.2353C113.698 17.2637 113.547 17.2921 113.39 17.3206C113.078 17.3679 112.815 17.446 112.602 17.5549C112.389 17.6591 112.223 17.7893 112.105 17.9456C111.986 18.0971 111.913 18.2675 111.885 18.4569C111.842 18.7552 111.911 18.9872 112.091 19.1529C112.275 19.3139 112.538 19.3944 112.879 19.3944ZM129.146 10.7865L128.663 13.6274H121.362L121.845 10.7865H129.146ZM121.404 21.6956L123.279 10.474C123.426 9.57434 123.708 8.82861 124.125 8.23675C124.546 7.64489 125.074 7.20218 125.708 6.90862C126.348 6.61506 127.063 6.46828 127.853 6.46828C128.355 6.46828 128.836 6.50616 129.295 6.58192C129.754 6.65768 130.088 6.72397 130.296 6.78078L129.274 9.59328C129.136 9.55067 128.978 9.51753 128.798 9.49385C128.618 9.46544 128.455 9.45124 128.308 9.45124C127.943 9.45124 127.683 9.52936 127.527 9.68561C127.375 9.84186 127.276 10.0478 127.228 10.3035L125.325 21.6956H121.404ZM134.493 21.8944C133.328 21.8944 132.362 21.6719 131.595 21.2268C130.828 20.777 130.289 20.1331 129.976 19.295C129.664 18.4522 129.607 17.4437 129.806 16.2694C129.995 15.1425 130.386 14.1577 130.977 13.3149C131.574 12.4721 132.325 11.8163 133.229 11.3475C134.138 10.8788 135.156 10.6444 136.283 10.6444C137.107 10.6444 137.829 10.7723 138.449 11.0279C139.074 11.2836 139.583 11.6553 139.976 12.143C140.369 12.6307 140.634 13.2202 140.771 13.9115C140.914 14.598 140.914 15.3745 140.771 16.241L140.629 17.1501H130.885L131.226 14.991H137.362C137.41 14.6785 137.379 14.4039 137.27 14.1671C137.166 13.9257 136.998 13.7386 136.766 13.6061C136.539 13.4688 136.264 13.4001 135.942 13.4001C135.62 13.4001 135.317 13.4688 135.033 13.6061C134.754 13.7434 134.514 13.9351 134.316 14.1814C134.121 14.4276 133.991 14.7164 133.925 15.0478L133.499 17.3206C133.442 17.6709 133.463 17.9834 133.563 18.2581C133.662 18.5327 133.835 18.7481 134.081 18.9044C134.327 19.0606 134.645 19.1387 135.033 19.1387C135.298 19.1387 135.549 19.1032 135.786 19.0322C136.027 18.9564 136.24 18.8475 136.425 18.7055C136.614 18.5587 136.766 18.3812 136.879 18.1728H140.459C140.203 18.9304 139.798 19.5885 139.245 20.1473C138.695 20.7012 138.018 21.1321 137.213 21.4399C136.413 21.7429 135.506 21.8944 134.493 21.8944Z" fill="#3FABD9"/>
<path fill-rule="evenodd" clip-rule="evenodd" d="M10.5152 23.4859C9.72466 21.5455 7.46492 16.2883 6 15.8C4.9754 15.4585 3.562 15.5058 2.53439 15.6099C3.21883 19.6635 6.44402 22.8538 10.5152 23.4859ZM2.79534 11.2646C3.97313 7.29529 7.64845 4.4 12 4.4C16.3515 4.4 20.0269 7.29529 21.2047 11.2646C19.3101 10.9096 15.9098 10.4 12 10.4C8.09017 10.4 4.6899 10.9096 2.79534 11.2646ZM21.4656 15.6099C20.438 15.5058 19.0246 15.4585 18 15.8C16.5351 16.2883 14.2753 21.5455 13.4848 23.4859C17.556 22.8538 20.7812 19.6635 21.4656 15.6099ZM24 14C24 20.6274 18.6274 26 12 26C5.37258 26 0 20.6274 0 14C0 7.37258 5.37258 2 12 2C18.6274 2 24 7.37258 24 14Z" fill="#3FABD9"/>
</svg>
