<svg width="28" height="28" viewBox="0 0 28 28" fill="none" xmlns="http://www.w3.org/2000/svg">
<g clip-path="url(#clip0_1211_10164)">
<path d="M8 0C9.10625 0 10 0.782031 10 1.75V3.5H18V1.75C18 0.782031 18.8937 0 20 0C21.1063 0 22 0.782031 22 1.75V3.5H25C26.6562 3.5 28 4.67578 28 6.125V8.75H0V6.125C0 4.67578 1.34375 3.5 3 3.5H6V1.75C6 0.782031 6.89375 0 8 0ZM0 10.5H28V25.375C28 26.8242 26.6562 28 25 28H3C1.34375 28 0 26.8242 0 25.375V10.5ZM20.5625 16.6797C21.15 16.1656 21.15 15.3344 20.5625 14.8258C19.975 14.3172 19.025 14.3117 18.4438 14.8258L12.5063 20.0211L9.56875 17.4508C8.98125 16.9367 8.03125 16.9367 7.45 17.4508C6.86875 17.9648 6.8625 18.7961 7.45 19.3047L11.45 22.8047C12.0375 23.3188 12.9875 23.3188 13.5688 22.8047L20.5625 16.6797Z" fill="#387ADF"/>
</g>
<defs>
<clipPath id="clip0_1211_10164">
<rect width="28" height="28" fill="white"/>
</clipPath>
</defs>
</svg>
