<svg width="20" height="20" viewBox="0 0 20 20" fill="none" xmlns="http://www.w3.org/2000/svg">
<path d="M5.28125 3.8125L4.26172 7.14286H15.7383L14.7187 3.8125C14.543 3.24107 14.0703 2.85714 13.5391 2.85714H6.46094C5.92969 2.85714 5.45703 3.24107 5.28125 3.8125ZM1.54687 7.35714L2.92188 2.87054C3.44922 1.15179 4.86719 0 6.46094 0H13.5391C15.1328 0 16.5508 1.15179 17.0781 2.87054L18.4531 7.35714C19.3594 7.78571 20 8.80804 20 10V16.4286V18.5714C20 19.3616 19.4414 20 18.75 20H17.5C16.8086 20 16.25 19.3616 16.25 18.5714V16.4286H3.75V18.5714C3.75 19.3616 3.19141 20 2.5 20H1.25C0.558594 20 0 19.3616 0 18.5714V16.4286V10C0 8.80804 0.640625 7.78571 1.54687 7.35714ZM5 11.4286C5 11.0497 4.8683 10.6863 4.63388 10.4184C4.39946 10.1505 4.08152 10 3.75 10C3.41848 10 3.10054 10.1505 2.86612 10.4184C2.6317 10.6863 2.5 11.0497 2.5 11.4286C2.5 11.8075 2.6317 12.1708 2.86612 12.4387C3.10054 12.7066 3.41848 12.8571 3.75 12.8571C4.08152 12.8571 4.39946 12.7066 4.63388 12.4387C4.8683 12.1708 5 11.8075 5 11.4286ZM16.25 12.8571C16.5815 12.8571 16.8995 12.7066 17.1339 12.4387C17.3683 12.1708 17.5 11.8075 17.5 11.4286C17.5 11.0497 17.3683 10.6863 17.1339 10.4184C16.8995 10.1505 16.5815 10 16.25 10C15.9185 10 15.6005 10.1505 15.3661 10.4184C15.1317 10.6863 15 11.0497 15 11.4286C15 11.8075 15.1317 12.1708 15.3661 12.4387C15.6005 12.7066 15.9185 12.8571 16.25 12.8571Z" fill="#387ADF"/>
</svg>
