<svg width="83" height="83" viewBox="0 0 83 83" fill="none" xmlns="http://www.w3.org/2000/svg">
<path d="M10.7929 42.2127C-3.03437 63.758 23.5994 56.4601 26.5953 61.9444C32.4208 67.6571 34.0374 66.7431 59.5031 61.9444C84.9689 57.1457 73.8086 25.7656 56.5218 18.4588C39.235 11.152 22.0858 9.88384 16.7715 15.1982C-1.4966 33.4663 20.3141 27.3768 10.7929 42.2127Z" fill="#EAE4E9"/>
<path d="M12.6865 57.9144H69.9568L78.26 61.3208H16.3058L12.6865 57.9144Z" fill="#7E8BA9"/>
<path d="M12.3033 44.4244L12.3031 44.4246L12.3007 44.4311L12.3007 44.4313L12.3006 44.4315L12.3005 44.4317L12.3005 44.4319L12.2984 44.4375L12.2887 44.4645C12.28 44.4894 12.2668 44.5279 12.2503 44.5788C12.2174 44.6807 12.1714 44.8321 12.1215 45.0241C12.0215 45.4089 11.9069 45.953 11.8491 46.5862C11.7328 47.8606 11.8507 49.446 12.7229 50.8316L12.736 50.8524L12.747 50.8743C12.9253 51.2309 13.3956 51.7665 13.9755 52.2386C14.2586 52.469 14.5518 52.6711 14.8256 52.8197C15.0938 52.9653 15.315 53.044 15.4744 53.0662L33.5058 53.2902L33.5118 53.2903L56.3892 53.8511L77.9437 53.9622C79.017 52.9014 79.2038 51.7445 79.1158 50.4878C79.0776 49.9419 78.9888 49.3942 78.8962 48.8232C78.8746 48.6903 78.8529 48.5561 78.8315 48.4204C78.7212 47.7203 78.623 46.9874 78.6519 46.2642C78.6516 45.8992 78.6362 45.6169 78.5115 45.4299L78.4979 45.4095L78.4864 45.3878C77.6492 43.8181 75.2991 40.6766 69.4165 39.475C67.3021 39.1414 65.3264 38.9242 63.2503 39.0334L63.2372 39.0341H63.2241C62.8784 39.0341 62.559 38.8734 62.3602 38.7734C62.3489 38.7677 62.3379 38.7622 62.3274 38.757L62.2991 38.7428L62.2728 38.7252L50.7204 30.9856C50.7202 30.9855 50.72 30.9853 50.7199 30.9852C50.4838 30.828 50.1381 30.733 49.7639 30.733L49.7614 30.733L27.779 30.6208C27.7786 30.6208 27.7781 30.6208 27.7777 30.6208C27.5417 30.6209 27.4336 30.6282 27.3296 30.6802L27.2898 30.7001L27.2471 30.7127C21.6545 32.3577 17.9179 35.7849 15.5743 38.8122C14.4027 40.3256 13.5822 41.7356 13.0554 42.7652C12.7922 43.2797 12.6026 43.6986 12.4796 43.9869C12.4181 44.131 12.3733 44.2424 12.3442 44.3168C12.3336 44.3439 12.3251 44.366 12.3187 44.383C12.3162 44.3894 12.3141 44.3951 12.3122 44.4L12.3049 44.4198L12.3034 44.424L12.3033 44.4244Z" fill="#3FABD9" stroke="#0F0F0F"/>
<path d="M49.8103 33.4447L49.7831 33.4253H26.0966C25.3632 33.4253 24.6897 34.0988 24.6897 34.8323V39.6559C24.6897 39.6844 24.6944 39.7001 24.6967 39.706C24.6971 39.7072 24.6975 39.708 24.6978 39.7087C24.6985 39.709 24.6994 39.7094 24.7005 39.7098C24.706 39.712 24.72 39.7162 24.7449 39.7167C27.1052 39.6441 38.1498 39.7132 47.3154 39.7705C52.1879 39.801 56.5294 39.8282 58.7528 39.829C58.754 39.8278 58.7553 39.8267 58.7565 39.8255C58.7569 39.8236 58.7572 39.8218 58.7575 39.82L49.8103 33.4447ZM49.9253 33.4259C49.9251 33.4259 49.9249 33.4259 49.9247 33.4259L49.9253 33.4259Z" fill="#BBDEF9" stroke="#0F0F0F"/>
<path d="M77.5085 44.0057C77.4945 43.9876 77.4812 43.9704 77.4685 43.9541L73.9802 43.7978C72.9052 43.7496 72.0046 44.5268 71.8465 45.5401L78.3665 45.1823C78.3615 45.1746 78.3564 45.1669 78.3512 45.159C78.229 44.9738 78.075 44.7585 77.9216 44.5509C77.7688 44.3441 77.6197 44.1492 77.5085 44.0057Z" fill="#BBDEF9" stroke="#0F0F0F"/>
<rect width="5.97972" height="0.919407" rx="0.459703" transform="matrix(-1 0 0 1 30.1699 41.3727)" fill="#0F0F0F"/>
<path d="M42.7061 39.8941V33.0518" stroke="#0F0F0F"/>
<path d="M60.0205 52.1075C60.0205 56.0078 63.2455 59.1696 67.2236 59.1696C71.2018 59.1696 74.4268 56.0078 74.4268 52.1075C74.4268 48.2072 71.2018 45.0454 67.2236 45.0454C63.2455 45.0454 60.0205 48.2072 60.0205 52.1075Z" fill="#0F0F0F"/>
<path d="M62.0918 52.1075C62.0918 54.9423 64.3897 57.2404 67.2242 57.2404C70.0588 57.2404 72.3567 54.9423 72.3567 52.1075C72.3567 49.2727 70.0588 46.9747 67.2242 46.9747C64.3897 46.9747 62.0918 49.2727 62.0918 52.1075Z" fill="#ACB7D0"/>
<path d="M65.2068 52.1075C65.2068 53.2219 66.1101 54.1253 67.2244 54.1253C68.3386 54.1253 69.2419 53.2219 69.2419 52.1075C69.2419 50.9931 68.3386 50.0898 67.2244 50.0898C66.1101 50.0898 65.2068 50.9931 65.2068 52.1075Z" fill="#0F0F0F"/>
<path d="M15.5244 52.1075C15.5244 56.0078 18.7494 59.1696 22.7275 59.1696C26.7057 59.1696 29.9307 56.0078 29.9307 52.1075C29.9307 48.2072 26.7057 45.0454 22.7275 45.0454C18.7494 45.0454 15.5244 48.2072 15.5244 52.1075Z" fill="#0F0F0F"/>
<path d="M17.5957 52.1075C17.5957 54.9423 19.8936 57.2404 22.7281 57.2404C25.5627 57.2404 27.8606 54.9423 27.8606 52.1075C27.8606 49.2727 25.5627 46.9747 22.7281 46.9747C19.8936 46.9747 17.5957 49.2727 17.5957 52.1075Z" fill="#ACB7D0"/>
<path d="M20.7107 52.1075C20.7107 53.2219 21.614 54.1253 22.7283 54.1253C23.8425 54.1253 24.7459 53.2219 24.7459 52.1075C24.7459 50.9931 23.8425 50.0898 22.7283 50.0898C21.614 50.0898 20.7107 50.9931 20.7107 52.1075Z" fill="#0F0F0F"/>
<path d="M39.7303 34.4756C39.8164 34.3571 39.9714 34.312 40.1056 34.3705C40.3856 34.4923 40.8594 34.7131 41.1638 34.9344C41.4694 35.1567 41.8345 35.5469 42.0409 35.7788C42.1386 35.8884 42.1439 36.0504 42.0575 36.1692C41.911 36.3707 41.5929 36.3383 41.4677 36.1229C41.3115 35.8539 41.0962 35.5434 40.8569 35.3697C40.6188 35.1969 40.2593 35.0886 39.9565 35.0232C39.7126 34.9706 39.5835 34.6774 39.7303 34.4756Z" fill="#D3E9FA"/>
</svg>
