<svg width="83" height="83" viewBox="0 0 83 83" fill="none" xmlns="http://www.w3.org/2000/svg">
<path d="M8.12684 46.2044C-5.70038 67.7497 20.9334 60.4518 23.9292 65.9361C29.7548 71.6488 31.3713 70.7348 56.8371 65.9361C82.3028 61.1374 71.1426 29.7573 53.8558 22.4505C36.569 15.1437 19.4198 13.8755 14.1055 19.1899C-4.16262 37.458 17.6481 31.3685 8.12684 46.2044Z" fill="#EAE4E9"/>
<path d="M14.1104 61.42H61.2675L68.1044 64.2249H17.0906L14.1104 61.42Z" fill="#7E8BA9"/>
<g clip-path="url(#clip0_272_2480)">
<path d="M17.2618 53.2137H48.7354V28.0058C48.7354 25.7897 46.9388 23.9932 44.7227 23.9932H21.2744C19.0582 23.9932 17.2617 25.7897 17.2617 28.0058L17.2618 53.2137Z" fill="#3FABD9" stroke="black" stroke-width="1.5"/>
<path d="M64.3372 44.4586L64.3372 44.4586L59.7377 38.2078L59.7377 38.2078C59.1638 37.4279 58.2917 36.9847 57.3819 36.9847H51.0192C50.1758 36.9847 49.4253 37.7175 49.4253 38.7058V53.1805H64.9775V46.4349C64.9775 45.715 64.7501 45.0197 64.3372 44.4586Z" fill="#3FABD9" stroke="black" stroke-width="1.5"/>
<path d="M17.1048 57.35H65.486C65.7045 57.35 66.0703 57.1014 66.0703 56.5436V53.87H16.5242C16.5219 53.8801 16.5205 53.8918 16.5205 53.9045V56.5437C16.5205 57.1015 16.8862 57.35 17.1048 57.35Z" fill="#C2CDE7" stroke="black" stroke-width="1.5"/>
<path d="M61.8208 44.6723L58.2956 39.6456H54.1911V44.6723H61.8208Z" fill="#BBDEF9" stroke="black" stroke-width="1.5"/>
<path d="M64.4196 51.1239H65.3775V48.3567H64.4196C63.9996 48.3567 63.6592 48.6971 63.6592 49.1171V50.3634C63.6592 50.7835 63.9996 51.1239 64.4196 51.1239Z" fill="#BBDEF9" stroke="black" stroke-width="0.7"/>
<path d="M53.6754 59.3441C53.6754 61.542 55.4571 63.3238 57.6551 63.3238C59.853 63.3238 61.6348 61.542 61.6348 59.3441C61.6348 57.1461 59.853 55.3644 57.6551 55.3644C55.4571 55.3644 53.6754 57.1462 53.6754 59.3441ZM38.554 55.3645C40.752 55.3645 42.5337 57.1462 42.5337 59.3442C42.5337 61.5421 40.752 63.3239 38.554 63.3239C36.3561 63.3239 34.5743 61.5421 34.5743 59.3442C34.5743 57.1462 36.3562 55.3645 38.554 55.3645ZM27.4441 55.3645C29.642 55.3645 31.4238 57.1462 31.4238 59.3442C31.4238 61.5421 29.642 63.3239 27.4441 63.3239C25.2461 63.3239 23.4644 61.5421 23.4644 59.3442C23.4644 57.1462 25.2461 55.3645 27.4441 55.3645Z" fill="#597B91"/>
<path d="M53.5602 59.2647C53.5602 61.5066 55.443 63.324 57.7655 63.324C60.088 63.324 61.9707 61.5066 61.9707 59.2647C61.9707 57.0228 60.088 55.2054 57.7655 55.2054C55.443 55.2054 53.5602 57.0228 53.5602 59.2647Z" fill="black"/>
<path d="M54.7694 59.2647C54.7694 60.8941 56.111 62.215 57.7658 62.215C59.4207 62.215 60.7622 60.8941 60.7622 59.2647C60.7622 57.6353 59.4207 56.3144 57.7658 56.3144C56.111 56.3144 54.7694 57.6353 54.7694 59.2647Z" fill="#ACB7D0"/>
<path d="M56.588 59.2647C56.588 59.9052 57.1154 60.4245 57.7659 60.4245C58.4164 60.4245 58.9438 59.9052 58.9438 59.2647C58.9438 58.6242 58.4164 58.1049 57.7659 58.1049C57.1154 58.1049 56.588 58.6242 56.588 59.2647Z" fill="black"/>
<path d="M34.5406 59.3441C34.5406 61.6298 36.4308 63.4828 38.7625 63.4828C41.0942 63.4828 42.9844 61.6298 42.9844 59.3441C42.9844 57.0584 41.0942 55.2054 38.7625 55.2054C36.4308 55.2054 34.5406 57.0584 34.5406 59.3441Z" fill="black"/>
<path d="M35.7546 59.3441C35.7546 61.0054 37.1015 62.3522 38.7629 62.3522C40.4242 62.3522 41.7711 61.0054 41.7711 59.3441C41.7711 57.6828 40.4242 56.3361 38.7629 56.3361C37.1015 56.3361 35.7546 57.6828 35.7546 59.3441Z" fill="#ACB7D0"/>
<path d="M37.5804 59.3441C37.5804 59.9972 38.1098 60.5266 38.7629 60.5266C39.416 60.5266 39.9455 59.9972 39.9455 59.3441C39.9455 58.691 39.416 58.1616 38.7629 58.1616C38.1098 58.1616 37.5804 58.691 37.5804 59.3441Z" fill="black"/>
<path d="M23.3654 59.3441C23.3654 61.6298 25.2072 63.4828 27.4791 63.4828C29.751 63.4828 31.5928 61.6298 31.5928 59.3441C31.5928 57.0584 29.751 55.2054 27.4791 55.2054C25.2072 55.2054 23.3654 57.0584 23.3654 59.3441Z" fill="black"/>
<path d="M24.5483 59.3441C24.5483 61.0054 25.8606 62.3522 27.4794 62.3522C29.0982 62.3522 30.4106 61.0054 30.4106 59.3441C30.4106 57.6828 29.0982 56.3361 27.4794 56.3361C25.8606 56.3361 24.5483 57.6828 24.5483 59.3441Z" fill="#ACB7D0"/>
<path d="M26.3273 59.3441C26.3273 59.9972 26.8431 60.5266 27.4795 60.5266C28.1159 60.5266 28.6317 59.9972 28.6317 59.3441C28.6317 58.691 28.1159 58.1616 27.4795 58.1616C26.8431 58.1616 26.3273 58.691 26.3273 59.3441Z" fill="black"/>
<path d="M57.7877 40.3211C57.8749 40.2506 57.9961 40.2402 58.0909 40.3C58.2643 40.4094 58.537 40.5971 58.6847 40.7796C58.8329 40.9627 58.9634 41.2742 59.0366 41.4694C59.0761 41.575 59.0408 41.6923 58.9532 41.7632C58.7673 41.9136 58.4744 41.7674 58.4329 41.5319C58.405 41.3738 58.3566 41.2204 58.2739 41.1186C58.192 41.0176 58.0533 40.939 57.9058 40.8793C57.6838 40.7893 57.6015 40.4719 57.7877 40.3211Z" fill="#D3E9FA"/>
<rect x="18.8574" y="36.8022" width="28.2824" height="1.23272" fill="black"/>
<rect x="18.8574" y="30.7207" width="28.2824" height="1.23272" fill="black"/>
<rect x="18.8574" y="42.8839" width="28.2824" height="1.23272" fill="black"/>
<rect x="18.8574" y="49.124" width="28.2824" height="1.23272" fill="black"/>
</g>
<defs>
<clipPath id="clip0_272_2480">
<rect width="50.63" height="50.63" fill="white" transform="matrix(-1 0 0 1 66.8154 16.4163)"/>
</clipPath>
</defs>
</svg>
