<svg xmlns="http://www.w3.org/2000/svg" viewBox="0 0 500 500"><g id="freepik--Floor--inject-398"><polygon id="freepik--floor--inject-398" points="250 483.08 494.59 341.86 250 200.65 5.41 341.86 250 483.08" style="fill:#e0e0e0"></polygon></g><g id="freepik--Walls--inject-398"><g id="freepik--walls--inject-398"><polygon points="250 462.44 469.35 335.8 250 209.16 30.65 335.8 250 462.44" style="fill:#FBA834"></polygon><g style="opacity:0.8"><polygon points="250 462.44 469.35 335.8 250 209.16 30.65 335.8 250 462.44" style="fill:#fff"></polygon></g><polygon points="250 471.82 250 462.44 469.35 335.8 469.35 162.25 477.47 157.56 477.47 340.49 250 471.82" style="fill:#455a64"></polygon><polygon points="250 471.82 250 462.44 30.65 335.8 30.65 162.25 22.52 157.56 22.52 340.49 250 471.82" style="fill:#37474f"></polygon><polygon points="22.52 157.56 250 26.23 250 35.61 30.65 162.25 22.52 157.56" style="fill:#455a64"></polygon><polygon points="250 35.61 250 209.16 30.65 335.8 30.65 162.25 250 35.61" style="fill:#fff"></polygon><polygon points="477.47 157.56 250 26.23 250 35.61 469.35 162.25 477.47 157.56" style="fill:#37474f"></polygon><polygon points="250 209.16 250 35.61 469.35 162.25 469.35 335.8 250 209.16" style="fill:#FBA834"></polygon><polygon points="250 209.16 250 35.61 469.35 162.25 469.35 335.8 250 209.16" style="fill:#fff;opacity:0.6000000000000001"></polygon><polygon points="469.35 335.8 469.35 326.73 250 200.09 250 209.16 469.35 335.8" style="fill:#fafafa"></polygon><g id="freepik--Window--inject-398"><polygon points="37.35 322.9 37.35 315.18 243.32 196.24 243.32 203.96 37.35 322.9" style="fill:#f0f0f0"></polygon><polygon points="236.64 200.1 243.32 203.96 243.32 48.53 236.63 52.39 236.64 200.1" style="fill:#e0e0e0"></polygon><path d="M185.81,118.55V229.43l6.68,3.86V114.69Zm-55.1,142.72,6.69,3.86V146.53l-6.69,3.86ZM79.23,291l6.68,3.86V176.26l-6.69,3.86Z" style="fill:#e0e0e0"></path><polygon points="37.35 199.99 37.35 192.3 236.63 77.22 243.32 81.05 37.35 199.99" style="fill:#f0f0f0"></polygon><path d="M185.81,81.74v24.79l6.68,3.86V77.87Zm-55.1,56.63,6.69,3.86V109.71l-6.69,3.87ZM79.23,168.1,85.91,172V139.44l-6.69,3.87Z" style="fill:#e0e0e0"></path><polygon points="243.32 203.96 243.32 48.53 37.35 167.43 37.35 322.9 243.32 203.96" style="opacity:0.25"></polygon><polygon points="86.08 294.76 121.6 274.25 213.38 65.82 177.85 86.33 86.08 294.76" style="fill:#fff;opacity:0.2"></polygon><polygon points="37.36 236.23 37.36 317.76 126.11 116.2 77.97 143.99 37.36 236.23" style="fill:#fff;opacity:0.2"></polygon><polygon points="243.32 203.96 243.32 54.62 155.15 254.88 243.32 203.96" style="fill:#fff;opacity:0.2"></polygon><path d="M174.85,196c-1.66,3.93-3.32,7.86-4.88,11.83l-2.33,6c-.73,2-1.51,4-2.19,6,1-1.9,1.89-3.83,2.84-5.74l2.7-5.8c1.8-3.87,3.5-7.79,5.19-11.7s3.32-7.85,4.88-11.83,3.12-7.94,4.52-12c-2,3.81-3.76,7.67-5.54,11.55S176.54,192.07,174.85,196Zm-21.34-9.06c1.8-3.87,3.5-7.78,5.19-11.69s3.32-7.86,4.88-11.83,3.12-7.94,4.52-12c-1.95,3.8-3.76,7.67-5.54,11.54s-3.5,7.78-5.19,11.7-3.32,7.85-4.88,11.82l-2.33,6c-.73,2-1.51,4-2.19,6,1-1.89,1.89-3.82,2.84-5.74Zm21.34-19.18c2.53-6.21,5-12.43,7.41-18.71-2.92,6-5.69,12.16-8.43,18.27s-5.38,12.29-8.07,18.43-5.24,12.36-7.77,18.57l-3.77,9.32c-1.21,3.13-2.47,6.25-3.63,9.39,1.47-3,2.85-6.07,4.28-9.11l4.15-9.16c2.74-6.12,5.37-12.29,8.07-18.44S172.32,174,174.85,167.74Zm30.06-11.29c1.8-3.87,3.49-7.78,5.19-11.7s3.32-7.85,4.87-11.83,3.12-7.94,4.53-12c-1.95,3.8-3.76,7.66-5.55,11.54s-3.49,7.78-5.19,11.69S205.44,152,203.88,156l-2.33,6c-.73,2-1.5,4-2.19,6,1-1.9,1.89-3.83,2.84-5.74Zm26.52-2.64c-1.8,3.87-3.49,7.78-5.19,11.69s-3.32,7.86-4.88,11.83l-2.33,6c-.73,2-1.5,4-2.19,6,1-1.89,1.89-3.83,2.84-5.74l2.71-5.8c1.8-3.87,3.49-7.78,5.18-11.7s3.33-7.85,4.88-11.82,3.12-7.94,4.53-12C235,146.07,233.22,149.94,231.43,153.81Zm-5.19-16.54c2.54-6.22,5-12.44,7.41-18.72-2.91,6-5.68,12.16-8.43,18.28s-5.37,12.29-8.07,18.43-5.23,12.35-7.76,18.56l-3.78,9.33c-1.21,3.13-2.46,6.24-3.63,9.39,1.47-3,2.86-6.08,4.29-9.11l4.14-9.17c2.75-6.12,5.38-12.29,8.07-18.43S223.71,143.48,226.24,137.27ZM69.14,229c2.54-6.21,5-12.43,7.41-18.71-2.91,6-5.68,12.16-8.43,18.28S62.75,240.87,60.05,247s-5.23,12.35-7.76,18.56l-3.78,9.32c-1.21,3.14-2.46,6.25-3.63,9.39,1.47-3,2.86-6.07,4.29-9.11L53.31,266c2.75-6.12,5.38-12.29,8.07-18.44S66.61,235.23,69.14,229Zm0,28.24c-1.66,3.93-3.32,7.86-4.88,11.83l-2.33,6c-.73,2-1.5,4-2.19,6,1-1.9,1.89-3.83,2.84-5.74l2.71-5.8c1.8-3.87,3.49-7.79,5.19-11.7S73.8,250,75.35,246s3.12-7.94,4.53-12c-1.95,3.8-3.76,7.66-5.55,11.54S70.84,253.35,69.14,257.26ZM47.81,248.2c1.8-3.87,3.49-7.78,5.19-11.69s3.32-7.86,4.87-11.83,3.12-7.94,4.53-12c-1.95,3.81-3.76,7.67-5.55,11.54s-3.49,7.79-5.19,11.7-3.32,7.85-4.88,11.82l-2.33,6c-.73,2-1.5,4-2.19,6,1-1.89,1.89-3.82,2.84-5.74Zm72.73-49.65c2.53-6.22,5-12.44,7.41-18.72-2.92,6-5.69,12.16-8.43,18.28s-5.38,12.29-8.07,18.43-5.24,12.35-7.77,18.56l-3.77,9.33c-1.21,3.13-2.47,6.24-3.63,9.39,1.47-3,2.85-6.08,4.28-9.11l4.15-9.17c2.74-6.12,5.37-12.29,8.07-18.43S118,204.76,120.54,198.55Zm0,28.24c-1.66,3.92-3.32,7.85-4.88,11.82l-2.33,6c-.73,2-1.51,4-2.19,6,1-1.89,1.89-3.83,2.84-5.74l2.7-5.8c1.8-3.87,3.5-7.78,5.19-11.7s3.32-7.85,4.88-11.82,3.12-7.94,4.52-12c-2,3.8-3.76,7.67-5.54,11.54S122.23,222.87,120.54,226.79ZM99.2,217.73c1.8-3.87,3.5-7.78,5.19-11.7s3.32-7.85,4.88-11.83,3.12-7.94,4.52-12c-2,3.8-3.76,7.66-5.54,11.54s-3.5,7.78-5.19,11.69-3.32,7.86-4.88,11.83l-2.33,6c-.73,2-1.51,4-2.19,6,1-1.9,1.89-3.83,2.84-5.74Z" style="fill:#fff;opacity:0.2"></path><polygon points="192.5 233.29 192.5 233.29 179.64 240.72 192.5 233.29" style="fill:#fafafa"></polygon><polygon points="243.32 81.05 195.44 108.7 195.44 76.17 192.5 77.87 192.5 110.4 140.34 140.53 140.34 107.98 137.4 109.68 137.4 142.23 88.85 170.26 88.85 137.71 85.91 139.41 85.91 171.96 37.35 199.98 37.35 204.26 85.91 176.24 85.91 294.86 88.85 293.16 88.85 174.54 137.4 146.51 137.4 265.13 140.34 263.43 140.34 144.81 192.5 114.69 192.5 233.31 195.44 231.61 195.44 113 243.32 85.35 243.32 81.05" style="fill:#fafafa"></polygon><path d="M30.67,162.24h0l0,173.56L250,209.15V35.61ZM243.32,204,37.36,322.9V167.43l206-118.9Z" style="fill:#fafafa"></path></g><g id="freepik--Carpet--inject-398"><polygon id="freepik--Shadow--inject-398" points="66.32 340.16 250.61 233.76 437.73 342.47 254.03 448.54 66.32 340.16" style="fill:#FBA834;opacity:0.30000000000000004"></polygon><polygon id="freepik--carpet--inject-398" points="254.06 446.02 436.85 340.49 250.58 232.27 67.21 338.14 254.06 446.02" style="fill:#fff"></polygon></g><g id="freepik--Pictures--inject-398"><g id="freepik--Picture--inject-398"><g id="freepik--Frame--inject-398"><polygon points="438.75 217.03 437.82 217.59 418.69 206.55 419.63 205.99 438.75 217.03" style="fill:#455a64"></polygon><polygon points="419.63 205.99 437.82 216.49 437.82 167.21 419.63 156.71 419.63 205.99" style="fill:#fff"></polygon><path d="M416.94,207.56l22.64,13.08V166.19l-22.64-13.07Zm1.76-51.4,19.12,11.05v50.38l-19.12-11Z" style="fill:#FBA834"></path><polygon points="418.69 206.55 419.63 205.99 419.63 156.71 418.69 156.16 418.69 206.55" style="fill:#37474f"></polygon><polygon points="416.94 153.12 417.88 152.57 440.53 165.65 439.58 166.19 416.94 153.12" style="fill:#455a64"></polygon><polygon points="440.53 165.65 439.58 166.19 439.58 220.64 440.53 220.09 440.53 165.65" style="fill:#37474f"></polygon></g><g id="freepik--Land--inject-398"><polygon points="420.99 204.9 436.46 213.83 436.46 168.85 420.99 159.92 420.99 204.9" style="fill:#f5f5f5"></polygon></g><g id="freepik--land--inject-398"><polygon points="420.99 204.9 436.46 213.83 436.46 168.85 420.99 159.92 420.99 204.9" style="fill:#FBA834"></polygon></g><g id="freepik--land--inject-398" style="opacity:0.7000000000000001"><polygon points="420.99 204.9 436.46 213.83 436.46 168.85 420.99 159.92 420.99 204.9" style="fill:#fff"></polygon></g><path d="M436.46,198.83a13.59,13.59,0,0,1-2.21,0,27.84,27.84,0,0,1-7.54-1.63c-1.87-.7-3.74-1.59-5.72-1.65v9.37l2.1,1.21a7,7,0,0,1,2.87-1.59c3-.79,6,.71,9.1,1.06a10.85,10.85,0,0,0,1.4.07Z" style="fill:#fff;opacity:0.6000000000000001"></path><path d="M436.46,187.63c-3.46-1-7-1.87-9.48-4.41-2-2.05-2.93-4.88-3.58-7.66s-1.11-5.65-2.37-8.21l0-.08V188c.2.29.39.58.6.86,2.27,3.08,5.62,5.65,9.44,5.85,1.79.09,3.65-.33,5.43-.32Z" style="fill:#fff;opacity:0.6000000000000001"></path><path d="M436.46,177.34a10.53,10.53,0,0,1-3.43-9.59q.08-.39.18-.78l-5.95-3.43c0,.39,0,.78.05,1.17a34.23,34.23,0,0,0,.49,6.79,13.3,13.3,0,0,0,6.78,8.76,13.56,13.56,0,0,0,1.88.79Z" style="fill:#fff;opacity:0.6000000000000001"></path></g><g id="freepik--picture--inject-398"><g id="freepik--frame--inject-398"><polygon points="438.75 247.02 437.82 247.57 418.69 236.53 419.63 235.98 438.75 247.02" style="fill:#455a64"></polygon><polygon points="419.63 235.98 437.82 246.48 437.82 227.43 419.63 216.93 419.63 235.98" style="fill:#fff"></polygon><path d="M416.94,237.55l22.64,13.07V226.41l-22.64-13.08Zm1.76-21.17,19.12,11v20.16L418.7,236.53Z" style="fill:#FBA834"></path><polygon points="418.69 236.53 419.63 235.98 419.63 216.93 418.69 216.38 418.69 236.53" style="fill:#37474f"></polygon><polygon points="416.94 213.34 417.88 212.79 440.53 225.87 439.58 226.41 416.94 213.34" style="fill:#455a64"></polygon><polygon points="440.53 225.87 439.58 226.41 439.58 250.62 440.53 250.08 440.53 225.87" style="fill:#37474f"></polygon></g><path d="M432.92,230.56,430.31,233l.94,4-5.8-12.38-5.11,5.9v4.85l16.77,9.68v-4.84Zm-2.46-1.81c.69.4,1.24.08,1.24-.71a2.72,2.72,0,0,0-1.24-2.15c-.68-.4-1.24-.08-1.24.71A2.74,2.74,0,0,0,430.46,228.75Z" style="fill:#FBA834"></path><path d="M432.92,230.56,430.31,233l.94,4-5.8-12.38-5.11,5.9v4.85l16.77,9.68v-4.84Zm-2.46-1.81c.69.4,1.24.08,1.24-.71a2.72,2.72,0,0,0-1.24-2.15c-.68-.4-1.24-.08-1.24.71A2.74,2.74,0,0,0,430.46,228.75Z" style="fill:#fff;opacity:0.6000000000000001"></path></g><g id="freepik--picture--inject-398"><g id="freepik--frame--inject-398"><polygon points="300.64 167.28 299.71 167.84 280.58 156.79 281.51 156.24 300.64 167.28" style="fill:#455a64"></polygon><polygon points="281.51 156.24 299.71 166.74 299.71 117.45 281.51 106.96 281.51 156.24" style="fill:#fff"></polygon><path d="M278.82,157.81l22.65,13.07V116.44l-22.65-13.08Zm1.76-51.4,19.13,11v50.39l-19.13-11.05Z" style="fill:#FBA834"></path><polygon points="280.58 156.79 281.51 156.24 281.51 106.96 280.58 106.41 280.58 156.79" style="fill:#37474f"></polygon><polygon points="278.82 103.36 279.77 102.82 302.41 115.89 301.47 116.44 278.82 103.36" style="fill:#455a64"></polygon><polygon points="302.41 115.89 301.47 116.44 301.47 170.88 302.41 170.34 302.41 115.89" style="fill:#37474f"></polygon></g><g id="freepik--land--inject-398"><polygon points="282.88 155.15 298.34 164.08 298.34 119.1 282.88 110.17 282.88 155.15" style="fill:#f5f5f5"></polygon></g><g id="freepik--land--inject-398"><polygon points="282.88 155.15 298.34 164.08 298.34 119.1 282.88 110.17 282.88 155.15" style="fill:#FBA834"></polygon></g><g id="freepik--land--inject-398" style="opacity:0.7000000000000001"><polygon points="282.88 155.15 298.34 164.08 298.34 119.1 282.88 110.17 282.88 155.15" style="fill:#fff"></polygon></g><path d="M298.34,149.08a14.83,14.83,0,0,1-2.21,0,27.79,27.79,0,0,1-7.53-1.64c-1.87-.69-3.74-1.59-5.72-1.64v9.37l2.09,1.21a7.15,7.15,0,0,1,2.87-1.6c3-.78,6,.72,9.1,1.07a13.13,13.13,0,0,0,1.4.07Z" style="fill:#fff;opacity:0.6000000000000001"></path><path d="M298.34,137.88c-3.46-1-7-1.88-9.48-4.42-2-2-2.93-4.88-3.58-7.66s-1.11-5.64-2.36-8.21a.25.25,0,0,1,0-.07V138.2c.19.29.38.58.59.86,2.27,3.08,5.62,5.65,9.44,5.85,1.8.1,3.65-.32,5.43-.32Z" style="fill:#fff;opacity:0.6000000000000001"></path><path d="M298.34,127.59a10.55,10.55,0,0,1-3.42-9.6,7.08,7.08,0,0,1,.17-.77l-5.95-3.44c0,.4,0,.79.05,1.18a35.8,35.8,0,0,0,.49,6.79,13.35,13.35,0,0,0,6.78,8.76,12.84,12.84,0,0,0,1.88.78Z" style="fill:#fff;opacity:0.6000000000000001"></path></g><g id="freepik--picture--inject-398"><g id="freepik--frame--inject-398"><polygon points="300.65 107.06 299.71 107.62 280.59 96.57 281.52 96.02 300.65 107.06" style="fill:#455a64"></polygon><polygon points="281.52 96.02 299.71 106.52 299.71 87.47 281.52 76.97 281.52 96.02" style="fill:#fff"></polygon><path d="M278.83,97.59l22.64,13.07V86.45L278.83,73.38Zm1.76-21.17,19.12,11v20.15L280.59,96.57Z" style="fill:#FBA834"></path><polygon points="280.59 96.57 281.52 96.02 281.52 76.97 280.59 76.42 280.59 96.57" style="fill:#37474f"></polygon><polygon points="278.83 73.38 279.77 72.83 302.42 85.91 301.47 86.45 278.83 73.38" style="fill:#455a64"></polygon><polygon points="302.42 85.91 301.47 86.45 301.47 110.66 302.42 110.12 302.42 85.91" style="fill:#37474f"></polygon></g><path d="M294.81,90.61,292.2,93l.94,4.06-5.8-12.39-5.11,5.91v4.84L299,105.13v-4.84Zm-2.46-1.82c.69.4,1.25.08,1.25-.71a2.73,2.73,0,0,0-1.25-2.15c-.68-.4-1.24-.08-1.24.72A2.73,2.73,0,0,0,292.35,88.79Z" style="fill:#FBA834"></path><path d="M294.81,90.61,292.2,93l.94,4.06-5.8-12.39-5.11,5.91v4.84L299,105.13v-4.84Zm-2.46-1.82c.69.4,1.25.08,1.25-.71a2.73,2.73,0,0,0-1.25-2.15c-.68-.4-1.24-.08-1.24.72A2.73,2.73,0,0,0,292.35,88.79Z" style="fill:#fff;opacity:0.6000000000000001"></path></g></g><g id="freepik--TV--inject-398"><path d="M403.37,214.84l.16-.1a2.48,2.48,0,0,0,1.12-1.94V150.5a2.48,2.48,0,0,0-1.12-1.94L318,99.41a2.46,2.46,0,0,0-2.24,0h0a2.48,2.48,0,0,0-1.12,1.94v62.3a2.47,2.47,0,0,0,1.12,1.94l85.31,49.26A2.52,2.52,0,0,0,403.37,214.84Z" style="fill:#37474f"></path><path d="M400.75,151.46l3.58-2.06a2.28,2.28,0,0,1,.32,1.1v62.3a2.48,2.48,0,0,1-1.12,1.94l-.16.1a2.52,2.52,0,0,1-2.24,0l-.38-.22Z" style="fill:#263238"></path><path d="M402.25,214.19v-62.3a2.48,2.48,0,0,0-1.12-1.94L315.82,100.7c-.62-.36-1.12-.07-1.12.64v62.3a2.47,2.47,0,0,0,1.12,1.94l85.31,49.26C401.75,215.19,402.25,214.9,402.25,214.19Z" style="fill:#455a64"></path><path d="M314.7,101.34l.15,20.39,0,20.4.06,20.39c0,.41,0,.87,0,1.25a2.17,2.17,0,0,0,.41,1,2.25,2.25,0,0,0,.9.73l1.1.63,4.42,2.54,8.85,5.08,35.26,20.48,17.64,10.24,17.58,10.33L383.4,204.77l-17.69-10.15-35.37-20.3-8.82-5.12-4.41-2.56L316,166a2.83,2.83,0,0,1-1.05-.88,2.74,2.74,0,0,1-.51-1.3c0-.48,0-.87,0-1.3l.05-20.39.05-20.4Z" style="fill:#455a64"></path><path d="M357.84,187.29l-3.3-1.9c-.25-.15-.45,0-.45.22a.94.94,0,0,0,.45.74l3.3,1.91c.24.14.44,0,.44-.23A1,1,0,0,0,357.84,187.29Z" style="fill:#e0e0e0"></path><path d="M399.38,151.51,317.7,104.26c-.36-.21-.64,0-.64.37v55.73a1.41,1.41,0,0,0,.64,1.11l81.68,47.16c.36.2.64,0,.64-.37V152.62A1.42,1.42,0,0,0,399.38,151.51Z" style="fill:#263238"></path><path d="M332.36,165.29a22.3,22.3,0,0,1-.4,4.41l-14.26-8.24a1.4,1.4,0,0,1-.64-1.11V139.56a8.34,8.34,0,0,1,3.72,1.2C327.17,144.45,332.36,155.44,332.36,165.29Z" style="fill:#FBA834;opacity:0.30000000000000004"></path><path d="M392.9,157.75v.16c0,6.18-2.67,9.91-6.3,9.7a6.64,6.64,0,0,1-2.94-1c-5.12-3-9.26-11.72-9.26-19.59,0-3.9,1-6.85,2.66-8.46h0l13.2,7.63A28.13,28.13,0,0,1,392.9,157.75Z" style="fill:#FBA834;opacity:0.30000000000000004"></path><ellipse cx="356.38" cy="156.65" rx="10.51" ry="19.66" transform="translate(-30.28 111.47) rotate(-17.06)" style="fill:#FBA834;opacity:0.30000000000000004"></ellipse><path d="M400,160.42v35.14a8.8,8.8,0,0,1-2-.87,15,15,0,0,1-2.82-2.15,29.1,29.1,0,0,1-6.63-10.82,34.35,34.35,0,0,1-2.13-11.55c0-.9,0-1.76.12-2.56.57-5.54,3-9.07,6.3-9.7a7.52,7.52,0,0,1,5.16,1.11A14.48,14.48,0,0,1,400,160.42Z" style="fill:#FBA834;opacity:0.30000000000000004"></path><path d="M352,134.68c0,7.57-4,11.41-8.9,8.57s-8.91-11.28-8.91-18.85c0-4.25,1.26-7.33,3.24-8.71l11.34,6.56A27.11,27.11,0,0,1,352,134.68Z" style="fill:#FBA834;opacity:0.30000000000000004"></path><path d="M396.35,199.77a14.21,14.21,0,0,1-1.29,6.36l-15.24-8.8a26.1,26.1,0,0,1-1.28-7.84c0-7.57,4-11.4,8.9-8.57a8.67,8.67,0,0,1,1.17.8c2.87,2.22,5.3,6.31,6.63,10.82h0A25.72,25.72,0,0,1,396.35,199.77Z" style="fill:#FBA834;opacity:0.30000000000000004"></path><path d="M327.47,118.27c0,7.56-4,11.4-8.91,8.57a10.6,10.6,0,0,1-1.5-1.07V104.63c0-.42.29-.57.64-.37l7.91,4.58A26.3,26.3,0,0,1,327.47,118.27Z" style="fill:#FBA834;opacity:0.30000000000000004"></path><path d="M334.23,149.58c0,4.56-2.41,6.87-5.37,5.16s-5.36-6.79-5.36-11.35,2.4-6.88,5.36-5.17S334.23,145,334.23,149.58Z" style="fill:#FBA834;opacity:0.30000000000000004"></path><path d="M375.43,175.29c0,4.56-2.4,6.87-5.36,5.16s-5.37-6.8-5.37-11.36,2.41-6.87,5.37-5.16S375.43,170.73,375.43,175.29Z" style="fill:#FBA834;opacity:0.30000000000000004"></path><path d="M365.32,143.62c0,4.56-2.4,6.87-5.36,5.16s-5.37-6.8-5.37-11.36,2.4-6.87,5.37-5.16S365.32,139.06,365.32,143.62Z" style="fill:#FBA834;opacity:0.1"></path><path d="M371.69,187.09a14.52,14.52,0,0,1-.8,5.08l-15.5-8.95a24.19,24.19,0,0,1-.8-6c0-7.26,3.83-10.95,8.55-8.23S371.69,179.83,371.69,187.09Z" style="fill:#FBA834;opacity:0.1"></path><ellipse cx="378.25" cy="167.11" rx="7.75" ry="14.51" transform="translate(-32.39 118.35) rotate(-17.06)" style="fill:#FBA834;opacity:0.1"></ellipse><ellipse cx="329.92" cy="130.14" rx="7.75" ry="14.51" transform="translate(-23.66 102.54) rotate(-17.06)" style="fill:#FBA834;opacity:0.1"></ellipse><path d="M347,169.44c0,3.47-.86,6.1-2.29,7.63l-12.52-7.23a25.78,25.78,0,0,1-2.29-10.27c0-7.28,3.83-10.95,8.55-8.23S347,162.17,347,169.44Z" style="fill:#FBA834;opacity:0.1"></path><path d="M377,153.24c0,3.21-1.7,4.84-3.79,3.64s-3.78-4.79-3.78-8,1.7-4.84,3.78-3.64S377,150,377,153.24Z" style="fill:#FBA834;opacity:0.30000000000000004"></path><path d="M345.14,166.84c0,3.21-1.69,4.84-3.78,3.64s-3.78-4.79-3.78-8,1.69-4.84,3.78-3.64S345.14,163.62,345.14,166.84Z" style="fill:#FBA834;opacity:0.30000000000000004"></path></g></g></g><g id="freepik--Shadows--inject-398"><path id="freepik--shadow--inject-398" d="M129.73,371.15,75.05,339.59a1.09,1.09,0,0,1,0-2l117.92-68a3.94,3.94,0,0,1,3.54,0l54.68,31.57a1.08,1.08,0,0,1,0,2.05l-117.91,68A3.9,3.9,0,0,1,129.73,371.15Z" style="fill:#FBA834;opacity:0.30000000000000004"></path><path id="freepik--shadow--inject-398" d="M48.47,329.31c-5.77,3.33-5.77,8.72,0,12.05s15.12,3.33,20.88,0,5.77-8.72,0-12.05S54.24,326,48.47,329.31Z" style="fill:#FBA834;opacity:0.30000000000000004"></path><path id="freepik--shadow--inject-398" d="M436.14,350.59,459.63,337c1.4-.81,1.4-2.12,0-2.93L426.57,315a5.59,5.59,0,0,0-5.07,0L398.06,328.6c-1.4.81-1.4,2.12,0,2.93l33,19.06A5.59,5.59,0,0,0,436.14,350.59Z" style="fill:#FBA834;opacity:0.30000000000000004"></path><path id="freepik--shadow--inject-398" d="M255,299.46l-25-14.41a.65.65,0,0,1,0-1.22l34.73-20.11a2.31,2.31,0,0,1,2.11,0l25,14.41a.64.64,0,0,1,0,1.21l-34.73,20.11A2.34,2.34,0,0,1,255,299.46Z" style="fill:#FBA834;opacity:0.30000000000000004"></path></g><g id="freepik--Lamp--inject-398"><g id="freepik--lamp--inject-398"><path d="M71.44,332.83h0c0-1.86-1.21-3.71-3.66-5.13-4.91-2.83-12.86-2.83-17.77,0-2.45,1.42-3.67,3.27-3.67,5.13h0v1.73h0c0,1.83,1.26,3.66,3.68,5.06,4.91,2.83,12.86,2.83,17.77,0,2.42-1.4,3.65-3.23,3.67-5.06h0Z" style="fill:#37474f"></path><path d="M50,327.7c-4.9,2.83-4.9,7.42,0,10.26s12.86,2.83,17.77,0,4.9-7.43,0-10.26S54.91,324.87,50,327.7Z" style="fill:#455a64"></path><path d="M57.59,221.25h2.64V331.47h0a.62.62,0,0,1-.37.6,2.06,2.06,0,0,1-1.87,0,.61.61,0,0,1-.38-.6h0Z" style="fill:#37474f"></path><path d="M40.73,214.51h0l8.56-21.83H68.54l8.56,21.83h0c1.22,3.41-.46,7.1-5,9.75-7.25,4.19-19,4.19-26.26,0C41.19,221.61,39.52,217.92,40.73,214.51Z" style="fill:#FBA834"></path><path d="M50.21,218.66c-3.49-5.67,1-16.39,4.25-25.34v-.64H49.29l-8.56,21.83h0c-1.21,3.41.46,7.1,5.05,9.75,7.25,4.19,19,4.19,26.26,0C65.49,226.84,53.69,224.32,50.21,218.66Z" style="opacity:0.2"></path><path d="M65.88,197.91a15.4,15.4,0,0,1-13.93,0c-3.85-2.22-3.85-5.82,0-8a15.34,15.34,0,0,1,13.93,0C69.72,192.09,69.72,195.69,65.88,197.91Z" style="fill:#FBA834"></path><g style="opacity:0.2"><path d="M65.88,197.91a15.4,15.4,0,0,1-13.93,0c-3.85-2.22-3.85-5.82,0-8a15.34,15.34,0,0,1,13.93,0C69.72,192.09,69.72,195.69,65.88,197.91Z" style="fill:#fff"></path></g><path d="M58.91,198.12a12.13,12.13,0,0,0,6-1.41c1.39-.8,2.15-1.81,2.15-2.82s-.76-2-2.15-2.83a13.3,13.3,0,0,0-11.92,0c-1.39.8-2.15,1.81-2.15,2.83s.76,2,2.15,2.82A12.13,12.13,0,0,0,58.91,198.12Z" style="fill:#FBA834"></path><g style="opacity:0.2"><path d="M58.91,198.12a12.13,12.13,0,0,0,6-1.41c1.39-.8,2.15-1.81,2.15-2.82s-.76-2-2.15-2.83a13.3,13.3,0,0,0-11.92,0c-1.39.8-2.15,1.81-2.15,2.83s.76,2,2.15,2.82A12.13,12.13,0,0,0,58.91,198.12Z"></path></g></g></g><g id="freepik--Furniture--inject-398"><g id="freepik--Drawer--inject-398"><g id="freepik--drawer--inject-398"><polygon points="260.35 285.15 258.1 296.33 255.91 297.6 253.74 296.34 251.46 285.15 255.91 282.59 260.35 285.15" style="fill:#e0e0e0"></polygon><polygon points="260.35 285.15 258.1 296.33 255.91 297.6 253.74 296.34 251.46 285.15 255.91 282.59 260.35 285.15" style="fill:#9a4a4d"></polygon><polygon points="255.91 297.6 255.91 287.72 260.35 285.15 258.1 296.33 255.91 297.6" style="fill:#b16668"></polygon><polygon points="260.35 285.15 258.89 292.37 255.91 294.1 252.93 292.38 251.46 285.15 255.91 282.59 260.35 285.15" style="opacity:0.15"></polygon><polygon points="239.66 273.21 237.41 284.39 235.22 285.66 233.05 284.4 230.78 273.21 235.22 270.65 239.66 273.21" style="fill:#e0e0e0"></polygon><polygon points="239.66 273.21 237.41 284.39 235.22 285.66 233.05 284.4 230.78 273.21 235.22 270.65 239.66 273.21" style="fill:#9a4a4d"></polygon><polygon points="235.22 285.66 235.22 275.78 239.66 273.21 237.41 284.39 235.22 285.66" style="fill:#b16668"></polygon><polygon points="239.66 273.21 238.21 280.43 235.22 282.16 232.24 280.44 230.78 273.21 235.22 270.65 239.66 273.21" style="opacity:0.15"></polygon><polygon points="291.11 267.37 288.85 278.55 286.66 279.81 284.49 278.56 282.22 267.37 286.66 264.8 291.11 267.37" style="fill:#e0e0e0"></polygon><polygon points="291.11 267.37 288.85 278.55 286.66 279.81 284.49 278.56 282.22 267.37 286.66 264.8 291.11 267.37" style="fill:#9a4a4d"></polygon><polygon points="286.66 279.81 286.66 269.93 291.11 267.37 288.85 278.55 286.66 279.81" style="fill:#b16668"></polygon><polygon points="291.11 267.37 289.65 274.59 286.66 276.31 283.69 274.59 282.22 267.37 286.66 264.8 291.11 267.37" style="opacity:0.15"></polygon><g id="freepik--Cabinet--inject-398"><g id="freepik--cabinet--inject-398"><polygon points="255.91 292.29 230.54 277.65 230.54 234.92 255.91 249.56 255.91 292.29" style="fill:#263238"></polygon><polygon points="255.91 249.56 292.37 228.48 292.37 271.22 255.91 292.29 255.91 249.56" style="fill:#37474f"></polygon><polygon points="292.37 228.48 255.91 249.56 230.54 234.92 267 213.84 292.37 228.48" style="fill:#455a64"></polygon><polygon points="259.37 270.69 288.91 253.6 289.54 253.97 289.54 268.37 260 285.45 259.36 285.08 259.37 270.69" style="fill:#263238"></polygon><polygon points="260 271.05 289.54 253.97 289.54 268.37 260 285.45 260 271.05" style="fill:#455a64"></polygon><path d="M272.1,267.89l4.71-2.72c.61-.35,1.1-.19,1.1.36a2.19,2.19,0,0,1-1.1,1.64l-4.71,2.72c-.61.35-1.11.19-1.11-.36A2.23,2.23,0,0,1,272.1,267.89Z" style="fill:#37474f"></path><polygon points="259.36 252.3 288.9 235.22 289.54 235.58 289.54 249.98 260 267.06 259.36 266.7 259.36 252.3" style="fill:#263238"></polygon><polygon points="260 252.67 289.54 235.58 289.54 249.98 260 267.06 260 252.67" style="fill:#455a64"></polygon><path d="M272.1,249.51l4.71-2.72c.61-.35,1.1-.19,1.1.36a2.23,2.23,0,0,1-1.1,1.64l-4.71,2.71c-.61.35-1.11.19-1.11-.36A2.21,2.21,0,0,1,272.1,249.51Z" style="fill:#37474f"></path></g></g></g><g id="freepik--Pot--inject-398"><path id="freepik--shadow--inject-398" d="M280.78,222c2.65,1.53,2.65,4,0,5.53a10.59,10.59,0,0,1-9.59,0c-2.64-1.52-2.64-4,0-5.53A10.59,10.59,0,0,1,280.78,222Z" style="fill:#37474f"></path><path d="M271.68,225.87c-2.31-2.35-3.66-8.22-1.41-10.09h11.44c2.25,1.87.89,7.74-1.41,10.09l-.06.07-.08.07-.21.19-.06,0-.17.14-.3.19a7.63,7.63,0,0,1-6.87,0h0l-.3-.2-.16-.12-.07-.05-.2-.18-.09-.09Z" style="fill:#f5f5f5"></path><path d="M280.72,214.89c2.61,1.5,2.61,4,0,5.46a10.51,10.51,0,0,1-9.46,0c-2.61-1.51-2.61-4,0-5.46A10.44,10.44,0,0,1,280.72,214.89Z" style="fill:#fff"></path><path d="M278.86,216c1.59.91,1.59,2.4,0,3.32a6.4,6.4,0,0,1-5.75,0c-1.59-.92-1.59-2.41,0-3.32A6.33,6.33,0,0,1,278.86,216Z" style="fill:#ebebeb"></path><path d="M273.11,217.53a6.33,6.33,0,0,1,5.75,0,2.75,2.75,0,0,1,1,.87,2.67,2.67,0,0,1-1,.88,6.4,6.4,0,0,1-5.75,0,2.72,2.72,0,0,1-.95-.88A2.8,2.8,0,0,1,273.11,217.53Z" style="fill:#e0e0e0"></path><path d="M278.51,218.4a12.85,12.85,0,0,0,2.08-2.76c1-1.7,1.14-4,.65-4.26s-2.52,2-2.52,2a12.74,12.74,0,0,0,.21-2.9c-.08-1.51-.45-2.89-.89-3.16s-1.4,1.63-1.82,3-.66,2.52-.66,2.52a20.45,20.45,0,0,0-.75-3.18c-.5-1.44-1-1.76-1.31-1.62s-.59.81-.69,2.72a18.25,18.25,0,0,0,.08,2.74s-.71-.78-1.5-1.54-1.24-1-1.49-.79-.32,1.45,1,3.89a13.26,13.26,0,0,0,2.54,3.34S275.33,219.61,278.51,218.4Z" style="fill:#FBA834"></path><g style="opacity:0.2"><path d="M278.51,218.4a12.85,12.85,0,0,0,2.08-2.76c1-1.7,1.14-4,.65-4.26s-2.52,2-2.52,2a12.74,12.74,0,0,0,.21-2.9c-.08-1.51-.45-2.89-.89-3.16s-1.4,1.63-1.82,3-.66,2.52-.66,2.52a20.45,20.45,0,0,0-.75-3.18c-.5-1.44-1-1.76-1.31-1.62s-.59.81-.69,2.72a18.25,18.25,0,0,0,.08,2.74s-.71-.78-1.5-1.54-1.24-1-1.49-.79-.32,1.45,1,3.89a13.26,13.26,0,0,0,2.54,3.34S275.33,219.61,278.51,218.4Z"></path></g></g></g><g id="freepik--wine-bottle--inject-398"><path id="freepik--shadow--inject-398" d="M263.55,228.49c3,1.73,3,4.53,0,6.26a12,12,0,0,1-10.85,0c-3-1.73-3-4.53,0-6.26A12,12,0,0,1,263.55,228.49Z" style="fill:#37474f"></path><g id="freepik--wine-bottle--inject-398"><path d="M256.28,197.54v-5.73l1.85.08,1.85-.08v5.73a9.25,9.25,0,0,0,2.33,6.19,7.89,7.89,0,0,1,1.85,5.38v21.82h0c0,1.3-1.28,2.62-3.79,3.23a9.47,9.47,0,0,1-4.49,0c-2.51-.61-3.77-1.93-3.78-3.23h0V209.11a7.94,7.94,0,0,1,1.84-5.38A9.21,9.21,0,0,0,256.28,197.54Z" style="fill:#FBA834"></path><path d="M256.28,197.54v-5.73l1.85.08,1.85-.08v5.73a9.25,9.25,0,0,0,2.33,6.19,7.89,7.89,0,0,1,1.85,5.38v21.82h0c0,1.3-1.28,2.62-3.79,3.23a9.47,9.47,0,0,1-4.49,0c-2.51-.61-3.77-1.93-3.78-3.23h0V209.11a7.94,7.94,0,0,1,1.84-5.38A9.21,9.21,0,0,0,256.28,197.54Z" style="opacity:0.5"></path><path d="M263.48,207.79a2.9,2.9,0,0,0-1.55-1.89,8.41,8.41,0,0,0-7.6,0,2.81,2.81,0,0,0-1.56,2,6.81,6.81,0,0,1,1.6-3.75,9.77,9.77,0,0,0,2.49-6.58v-5.12l1.27.05,1.27-.05v5.12a9.81,9.81,0,0,0,2.48,6.58A6.8,6.8,0,0,1,263.48,207.79Z" style="fill:#FBA834;opacity:0.2"></path><path d="M263.58,230.17v.76c0,1.13-1.33,2.18-3.35,2.67a8.68,8.68,0,0,1-2.1.25,8.82,8.82,0,0,1-2.11-.25c-2-.5-3.33-1.54-3.34-2.67v-.77a11.84,11.84,0,0,1,.09-1.23,2.83,2.83,0,0,1,1.56-2,8.41,8.41,0,0,1,7.6,0,2.91,2.91,0,0,1,1.55,1.9h0c0,.05,0,.09,0,.13v0C263.54,229.37,263.57,229.77,263.58,230.17Z" style="fill:#FBA834"></path><path d="M263.58,230.17v.76c0,1.13-1.33,2.18-3.35,2.67a8.68,8.68,0,0,1-2.1.25,8.82,8.82,0,0,1-2.11-.25c-2-.5-3.33-1.54-3.34-2.67v-.77a11.84,11.84,0,0,1,.09-1.23,2.83,2.83,0,0,1,1.56-2,8.41,8.41,0,0,1,7.6,0,2.91,2.91,0,0,1,1.55,1.9h0c0,.05,0,.09,0,.13v0C263.54,229.37,263.57,229.77,263.58,230.17Z" style="opacity:0.30000000000000004"></path><path d="M261.93,231.34a8.41,8.41,0,0,1-7.6,0,2.54,2.54,0,0,1-1.56-2.41,2.83,2.83,0,0,1,1.56-2,8.41,8.41,0,0,1,7.6,0,2.91,2.91,0,0,1,1.55,1.9h0c0,.05,0,.09,0,.13v0A2.61,2.61,0,0,1,261.93,231.34Z" style="fill:#FBA834;opacity:0.2"></path><path d="M261.85,232.67a8.26,8.26,0,0,1-7.44,0,2.52,2.52,0,0,1-1.53-2.37,2.78,2.78,0,0,1,1.53-1.93,8.26,8.26,0,0,1,7.44,0,2.82,2.82,0,0,1,1.51,1.85h0a.59.59,0,0,1,0,.13h0A2.53,2.53,0,0,1,261.85,232.67Z" style="fill:#FBA834;opacity:0.2"></path><path d="M258.39,234.38c-2.54,0-4.32-1.85-4.32-3.2V214c0-5.08-.09-6.56,1.92-10,1.76-3.05,1.72-4.36,1.68-12.09l-1.39-.06v5.73a9.21,9.21,0,0,1-2.34,6.19,7.94,7.94,0,0,0-1.84,5.38v21.82c0,1.3,1.27,2.62,3.78,3.23a9.29,9.29,0,0,0,2.51.27Z" style="opacity:0.2"></path><path d="M259,198.17v-6.32l-.62,0v6.8a11.93,11.93,0,0,0,1.41,5.16,9.93,9.93,0,0,1,1.89,6.48v23.41a6.06,6.06,0,0,0,1.19-.66V209.45a10.74,10.74,0,0,0-2.24-5.86A8.9,8.9,0,0,1,259,198.17Z" style="fill:#FBA834;opacity:0.30000000000000004"></path><path d="M260.24,191.45a2.75,2.75,0,0,0-.31-1.61l0,0-.06-.07a.67.67,0,0,0-.15-.14h0l-.19-.13a3,3,0,0,0-2.74,0l-.19.13h0a.93.93,0,0,0-.14.14.27.27,0,0,0-.07.08v0a2.77,2.77,0,0,0-.32,1.61,1,1,0,0,0,.62.86,3.28,3.28,0,0,0,3,0A1,1,0,0,0,260.24,191.45Z" style="fill:#FBA834"></path><path d="M260.24,191.45a2.75,2.75,0,0,0-.31-1.61l0,0-.06-.07a.67.67,0,0,0-.15-.14h0l-.19-.13a3,3,0,0,0-2.74,0l-.19.13h0a.93.93,0,0,0-.14.14.27.27,0,0,0-.07.08v0a2.77,2.77,0,0,0-.32,1.61,1,1,0,0,0,.62.86,3.28,3.28,0,0,0,3,0A1,1,0,0,0,260.24,191.45Z" style="opacity:0.30000000000000004"></path><path d="M259.7,189.68a1.5,1.5,0,0,1,.4,1,2.13,2.13,0,0,1,0,1,2.4,2.4,0,0,1-2.06.83c.94-.36,1.6-.64,1.8-1.12A2.05,2.05,0,0,0,259.7,189.68Z" style="fill:#FBA834;opacity:0.30000000000000004"></path><path d="M256.76,191a.83.83,0,0,1,0-1.58,3,3,0,0,1,2.74,0,.84.84,0,0,1,0,1.58A3.07,3.07,0,0,1,256.76,191Z" style="fill:#FBA834;opacity:0.6000000000000001"></path><path d="M257.15,190.81a.6.6,0,0,1,0-1.13,2.16,2.16,0,0,1,2,0,.6.6,0,0,1,0,1.13A2.16,2.16,0,0,1,257.15,190.81Z" style="opacity:0.2"></path><path d="M257.15,190.8h0a2.16,2.16,0,0,0,2,0h0A2.16,2.16,0,0,0,257.15,190.8Z" style="opacity:0.2"></path><path d="M256.91,189.39l-.08,0-.07,0-.19.13h0l-.14.13-.07.08v0a2.77,2.77,0,0,0-.32,1.61.51.51,0,0,0,0,.13.33.33,0,0,0,0,.13h0a1.3,1.3,0,0,0,.57.6,2.51,2.51,0,0,0,.63.25,1,1,0,0,1,.05-1.26C256.14,190.83,256,189.88,256.91,189.39Z" style="opacity:0.2"></path></g><path d="M260.37,215.26a9.47,9.47,0,0,1-4.49,0c-2.51-.62-3.77-1.94-3.78-3.24v11c0,1.3,1.27,2.62,3.78,3.23a9.47,9.47,0,0,0,4.49,0c2.51-.61,3.78-1.93,3.79-3.23V212C264.15,213.32,262.88,214.65,260.37,215.26Z" style="fill:#fff"></path><path d="M254.07,225.6v-11a3.11,3.11,0,0,1-2-2.57v11A3.14,3.14,0,0,0,254.07,225.6Z" style="fill:#e0e0e0"></path><path d="M260.85,216a2.56,2.56,0,1,1-2.52-3A2.8,2.8,0,0,1,260.85,216Z" style="fill:#FBA834"></path><path d="M258.15,218.43a1.83,1.83,0,0,1-.82-.32,2.15,2.15,0,0,1-.6-.64,2.72,2.72,0,0,1-.42-1.7,2.61,2.61,0,0,1,.19-.87,2.66,2.66,0,0,1,.47-.77,2.3,2.3,0,0,0-.52.75,2.73,2.73,0,0,0-.23.88,2.85,2.85,0,0,0,.41,1.78,2.24,2.24,0,0,0,.64.66,1.83,1.83,0,0,0,.87.31,1.66,1.66,0,0,0,1-.18,2.13,2.13,0,0,0,.61-.51,2.09,2.09,0,0,1-.64.46A1.69,1.69,0,0,1,258.15,218.43Zm2.3-2.67a3.44,3.44,0,0,0-.05-.45,2.59,2.59,0,0,0-.3-.86,1.84,1.84,0,0,0-.64-.66,1.8,1.8,0,0,0-.86-.29,1.77,1.77,0,0,0-.46,0,2.18,2.18,0,0,0-.44.11,2.12,2.12,0,0,0-.73.52,1.88,1.88,0,0,1,1.62-.54,2,2,0,0,1,.82.29,1.85,1.85,0,0,1,.59.62,3.15,3.15,0,0,1,.36,1.71,2.82,2.82,0,0,1-.19.86,2.28,2.28,0,0,1-.44.75,2.52,2.52,0,0,0,.72-1.6A3.53,3.53,0,0,0,260.45,215.76Z" style="fill:#FBA834"></path><path d="M258.15,218.43a1.83,1.83,0,0,1-.82-.32,2.15,2.15,0,0,1-.6-.64,2.72,2.72,0,0,1-.42-1.7,2.61,2.61,0,0,1,.19-.87,2.66,2.66,0,0,1,.47-.77,2.3,2.3,0,0,0-.52.75,2.73,2.73,0,0,0-.23.88,2.85,2.85,0,0,0,.41,1.78,2.24,2.24,0,0,0,.64.66,1.83,1.83,0,0,0,.87.31,1.66,1.66,0,0,0,1-.18,2.13,2.13,0,0,0,.61-.51,2.09,2.09,0,0,1-.64.46A1.69,1.69,0,0,1,258.15,218.43Zm2.3-2.67a3.44,3.44,0,0,0-.05-.45,2.59,2.59,0,0,0-.3-.86,1.84,1.84,0,0,0-.64-.66,1.8,1.8,0,0,0-.86-.29,1.77,1.77,0,0,0-.46,0,2.18,2.18,0,0,0-.44.11,2.12,2.12,0,0,0-.73.52,1.88,1.88,0,0,1,1.62-.54,2,2,0,0,1,.82.29,1.85,1.85,0,0,1,.59.62,3.15,3.15,0,0,1,.36,1.71,2.82,2.82,0,0,1-.19.86,2.28,2.28,0,0,1-.44.75,2.52,2.52,0,0,0,.72-1.6A3.53,3.53,0,0,0,260.45,215.76Z" style="opacity:0.30000000000000004"></path></g><g id="freepik--Glass--inject-398"><path id="freepik--shadow--inject-398" d="M246.42,233.56c1.86,1.07,1.86,2.8,0,3.87a7.41,7.41,0,0,1-6.71,0c-1.85-1.07-1.85-2.8,0-3.87A7.41,7.41,0,0,1,246.42,233.56Z" style="fill:#37474f"></path><g id="freepik--glass--inject-398"><path d="M245.51,233.51a5.38,5.38,0,0,0-4.88,0,1.7,1.7,0,0,0-1,1.41v.36a1.7,1.7,0,0,0,1,1.41,5.44,5.44,0,0,0,4.88,0,1.72,1.72,0,0,0,1-1.41v-.36A1.72,1.72,0,0,0,245.51,233.51Z" style="fill:#FBA834"></path><path d="M245.51,233.51a5.38,5.38,0,0,0-4.88,0,1.7,1.7,0,0,0-1,1.41v.36a1.7,1.7,0,0,0,1,1.41,5.44,5.44,0,0,0,4.88,0,1.72,1.72,0,0,0,1-1.41v-.36A1.72,1.72,0,0,0,245.51,233.51Z" style="fill:#fff;opacity:0.30000000000000004"></path><path d="M240.63,236.33c-1.35-.78-1.35-2,0-2.82a5.38,5.38,0,0,1,4.88,0c1.35.78,1.35,2,0,2.82A5.38,5.38,0,0,1,240.63,236.33Z" style="fill:#FBA834"></path><path d="M240.63,236.33c-1.35-.78-1.35-2,0-2.82a5.38,5.38,0,0,1,4.88,0c1.35.78,1.35,2,0,2.82A5.38,5.38,0,0,1,240.63,236.33Z" style="fill:#fff;opacity:0.55"></path><path d="M242.05,234c-.84.18-1.06.77-.62,1.22a2.36,2.36,0,0,0,2.92-.11Z" style="fill:#FBA834;opacity:0.30000000000000004"></path><path d="M244.56,233.41a1.4,1.4,0,0,1,.1,2.7,6.42,6.42,0,0,1-4,0,5.24,5.24,0,0,0,4.06.31C247.19,235.62,246.25,233.55,244.56,233.41Z" style="fill:#fff;opacity:0.30000000000000004"></path><g id="freepik--glass--inject-398"><path d="M246.78,210.1h-7.43s-.75,6.76-.67,9.94a4.37,4.37,0,0,0,2.22,3.81,3.2,3.2,0,0,1,1.64,2.77v6.63a.7.7,0,0,1-.32.58,1.58,1.58,0,0,0-.53.53l0,0c-.15.29,0,.61.37.84a2.31,2.31,0,0,0,2.08,0c.39-.23.51-.55.37-.84l0-.08a1.62,1.62,0,0,0-.51-.5.68.68,0,0,1-.32-.58v-6.63a3.2,3.2,0,0,1,1.63-2.77,4.38,4.38,0,0,0,2.23-3.81C247.53,216.86,246.78,210.1,246.78,210.1Z" style="fill:#FBA834"></path><path d="M246.78,210.1h-7.43s-.75,6.76-.67,9.94a4.37,4.37,0,0,0,2.22,3.81,3.2,3.2,0,0,1,1.64,2.77v6.63a.7.7,0,0,1-.32.58,1.58,1.58,0,0,0-.53.53l0,0c-.15.29,0,.61.37.84a2.31,2.31,0,0,0,2.08,0c.39-.23.51-.55.37-.84l0-.08a1.62,1.62,0,0,0-.51-.5.68.68,0,0,1-.32-.58v-6.63a3.2,3.2,0,0,1,1.63-2.77,4.38,4.38,0,0,0,2.23-3.81C247.53,216.86,246.78,210.1,246.78,210.1Z" style="fill:#fff;opacity:0.5"></path><path d="M241.68,224a5.38,5.38,0,0,1-2.34-1.63,4.32,4.32,0,0,0,1.56,1.5,3.2,3.2,0,0,1,1.64,2.77C242.54,225.07,242.5,224.39,241.68,224Z" style="fill:#FBA834;opacity:0.2"></path><path d="M243.07,223.79a4,4,0,0,1-4.06-4h0a93,93,0,0,1,.64-9.39h6.84c.14,1.3.71,6.7.64,9.39h0A4,4,0,0,1,243.07,223.79Z" style="fill:#FBA834"></path><path d="M243.07,223.79a4,4,0,0,1-4.06-4h0a93,93,0,0,1,.64-9.39h6.84c.14,1.3.71,6.7.64,9.39h0A4,4,0,0,1,243.07,223.79Z" style="fill:#fff;opacity:0.30000000000000004"></path><path d="M239.84,221.44a3.67,3.67,0,0,0,6.46,0Z" style="fill:#FBA834"></path><path d="M239.84,221.44a3.67,3.67,0,0,0,6.46,0Z" style="opacity:0.30000000000000004"></path><ellipse cx="243.07" cy="220.74" rx="3.44" ry="1.98" style="fill:#FBA834"></ellipse><ellipse cx="243.07" cy="220.74" rx="3.44" ry="1.98" style="opacity:0.1"></ellipse><path d="M240.44,211.61c-1.45-.84-1.45-2.19,0-3a5.8,5.8,0,0,1,5.26,0c1.45.84,1.45,2.19,0,3A5.8,5.8,0,0,1,240.44,211.61Z" style="fill:#FBA834"></path><path d="M240.44,211.61c-1.45-.84-1.45-2.19,0-3a5.8,5.8,0,0,1,5.26,0c1.45.84,1.45,2.19,0,3A5.8,5.8,0,0,1,240.44,211.61Z" style="fill:#fff;opacity:0.6000000000000001"></path><path d="M243.07,211.91a5,5,0,0,1-2.47-.58,1.29,1.29,0,0,1,0-2.47,5.53,5.53,0,0,1,4.93,0,1.29,1.29,0,0,1,0,2.47A5,5,0,0,1,243.07,211.91Z" style="fill:#FBA834"></path><path d="M243.07,211.91a5,5,0,0,1-2.47-.58,1.29,1.29,0,0,1,0-2.47,5.53,5.53,0,0,1,4.93,0,1.29,1.29,0,0,1,0,2.47A5,5,0,0,1,243.07,211.91Z" style="fill:#fff;opacity:0.30000000000000004"></path></g><path d="M244.83,211.93c.28,4.34.72,7.5.1,9.35-.4,1.18-1.86,2-1.86,3.68v8.15a2.28,2.28,0,0,0,.32,1.28c.16.38-.3.87-1.12.71a2,2,0,0,0,1.65,0c.47-.27.41-.71,0-1.08s-.53-.16-.53-1.38v-6.89c0-1.38.5-1.81,1.54-2.81,1.42-1.36,1.48-2.71,1.41-4.65s-.45-6.83-.45-6.83Z" style="fill:#fff;opacity:0.30000000000000004"></path></g></g></g><g id="freepik--Sofa--inject-398"><g id="freepik--Couch--inject-398"><g id="freepik--couch--inject-398"><polygon points="129.49 367.86 130.44 354.28 137.02 350.48 133.25 365.69 129.49 367.86" style="fill:#b16668"></polygon><polygon points="129.49 367.86 125.73 365.69 125.8 351.6 130.44 354.28 129.49 367.86" style="fill:#9a4a4d"></polygon><polygon points="83.39 341.25 84.34 327.67 90.92 323.87 87.15 339.08 83.39 341.25" style="fill:#b16668"></polygon><polygon points="83.39 341.25 79.63 339.08 79.7 324.99 84.34 327.67 83.39 341.25" style="fill:#9a4a4d"></polygon><polygon points="241.77 303.03 240.82 290.55 234.24 294.34 238.01 305.21 241.77 303.03" style="fill:#b16668"></polygon><polygon points="238.01 305.21 234.24 303.03 229.6 291.67 234.24 294.34 238.01 305.21" style="fill:#9a4a4d"></polygon><polygon points="129.49 353.73 242.38 288.55 242.38 292.9 129.49 358.07 129.49 353.73" style="fill:#b16668"></polygon><polygon points="76.81 327.66 129.49 358.07 129.49 353.73 76.81 323.31 76.81 327.66" style="fill:#9a4a4d"></polygon><polygon points="129.49 353.73 242.38 288.55 189.7 258.13 76.81 323.31 129.49 353.73" style="fill:#9a4a4d"></polygon><path d="M242.45,261.8v22.95a8.18,8.18,0,0,1-3.68,6.38l-1.06.61-.05,0a8.36,8.36,0,0,1-4.6.79L138,345.35a8.2,8.2,0,0,1-3.64,6.12l0,0-1.06.61a1.22,1.22,0,0,1-.28.14.55.55,0,0,1-.15.08l0,0a8.38,8.38,0,0,1-5.7.26,4,4,0,0,1-.64-.24l-.1,0-.44-.22L78,324.47a8.14,8.14,0,0,1-3.68-6.37V268.38A8.17,8.17,0,0,1,78,262l105.55-61a8.16,8.16,0,0,1,7.36,0l3,1.73a9.78,9.78,0,0,1,4.24,6.33L201,233.64l37.74,21.79A8.15,8.15,0,0,1,242.45,261.8Z" style="fill:#37474f"></path><path d="M193.91,202.76l-3-1.73a8.16,8.16,0,0,0-7.36,0L78,262c-.21.12-.45.29-.38.23a8.46,8.46,0,0,0-3.26,5.52c.27-1.88,1.8-2.56,3.64-1.51L81,268a8.09,8.09,0,0,0,7.36,0l105.55-61C195.94,205.83,195.94,203.93,193.91,202.76Z" style="fill:#455a64"></path><path d="M242.45,261.8v22.95a8.18,8.18,0,0,1-3.68,6.38l-1.06.61-.05,0a7.86,7.86,0,0,1-4.31.81,7,7,0,0,1-3-.84l-34-19.66a8.18,8.18,0,0,1-3.68-6.38V242.75a8.12,8.12,0,0,1,3.68-6.37l4.73-2.74,37.74,21.79A8.15,8.15,0,0,1,242.45,261.8Z" style="fill:#263238"></path><path d="M201,233.64l-4.74,2.74c-2,1.17-2,3.08,0,4.25l34,19.66a8.12,8.12,0,0,1,3.68,6.37v23c0,2.33,1.66,3.29,3.68,2.12l1.06-.61a8.18,8.18,0,0,0,3.68-6.38V261.8a8.18,8.18,0,0,0-3.68-6.38Z" style="fill:#455a64"></path><path d="M234,266.66v23c0,2.33,1.66,3.29,3.68,2.12l1.06-.61a8.18,8.18,0,0,0,3.68-6.38V261.8a7.63,7.63,0,0,0-1.08-3.63L233,263A7.52,7.52,0,0,1,234,266.66Z" style="fill:#37474f"></path><path d="M232.5,292.58a8.93,8.93,0,0,1-1.34,2A16.52,16.52,0,0,1,227.7,297l-85.3,49.28a4.11,4.11,0,0,1-3.68,0l-12-6.91-23.93-13.82a6.9,6.9,0,0,1,0-12.21l13.57-7.85,10.36-6,61.33-35.44a8.13,8.13,0,0,1,7.36,0l34.05,19.66c2,1.18,3.68,2.08,3.68,4.78A13.41,13.41,0,0,1,232.5,292.58Z" style="fill:#263238"></path><path d="M142.4,338.34,231.34,287c1-.59,1.84-.12,1.84,1.06v3.72a4.07,4.07,0,0,1-1.84,3.19L142.4,346.31c-1,.58-1.84.11-1.84-1.07v-3.72A4.08,4.08,0,0,1,142.4,338.34Z" style="fill:#37474f"></path><path d="M188.09,250.85,149.77,273a8.11,8.11,0,0,0-3.68,6.37v2.48a8.11,8.11,0,0,0,3.68,6.37l34,19.66a8.16,8.16,0,0,0,7.36,0l38.32-22.15a8.12,8.12,0,0,0,3.68-6.37v-2.47a8.16,8.16,0,0,0-3.68-6.38l-34.05-19.66A8.16,8.16,0,0,0,188.09,250.85Z" style="fill:#37474f"></path><path d="M187.5,297.79v11a7.47,7.47,0,0,1-3.68-.88l-34.06-19.66a8.13,8.13,0,0,1-3.67-6.37v-2.47a8.23,8.23,0,0,1,3.3-6.14c-1.65,1.18-1.52,2.92.37,4l34.06,19.66A7.5,7.5,0,0,0,187.5,297.79Z" style="fill:#263238"></path><path d="M191.18,296.91l38.32-22.15c2-1.17,2-3.07,0-4.25l-34.05-19.66a8.16,8.16,0,0,0-7.36,0L149.77,273c-2,1.17-2,3.08,0,4.25l34,19.66A8.16,8.16,0,0,0,191.18,296.91Z" style="fill:#455a64"></path><path d="M141.15,278l-38.32,22.15a8.14,8.14,0,0,0-3.68,6.37V309a8.14,8.14,0,0,0,3.68,6.37L136.88,335a8.16,8.16,0,0,0,7.36,0l38.33-22.15a8.11,8.11,0,0,0,3.67-6.37V304a8.15,8.15,0,0,0-3.67-6.38L148.51,278A8.16,8.16,0,0,0,141.15,278Z" style="fill:#37474f"></path><path d="M140.57,324.91v11a7.56,7.56,0,0,1-3.68-.88l-34.06-19.66A8.14,8.14,0,0,1,99.15,309V306.5a8.23,8.23,0,0,1,3.3-6.13c-1.64,1.18-1.52,2.91.38,4L136.89,324A7.47,7.47,0,0,0,140.57,324.91Z" style="fill:#263238"></path><path d="M144.24,324l38.33-22.15c2-1.17,2-3.07,0-4.25L148.51,278a8.16,8.16,0,0,0-7.36,0l-38.32,22.15c-2,1.17-2,3.07,0,4.25L136.88,324A8.16,8.16,0,0,0,144.24,324Z" style="fill:#455a64"></path><g id="freepik--Cushion--inject-398"><path d="M123.93,265.23c-2.35-.24-4.3,2.48-8.23,4.4a38.69,38.69,0,0,0-14,10.8c-3.41,4-4.7,3.3-5.74,5.78s1.84,3.53,3.21,7c2.32,5.92,5.19,9.9,8.18,12.36,5.29,4.35,4.48,7.39,6.88,7.36,2.57,0,2.38-2.23,6.41-3.79,9.52-3.7,13.43-7,17.83-13.51,1.71-2.54,3.9-2.33,4.32-4.78.21-1.23-1.58-1.89-3.19-5.74-2.68-6.41-7-12.42-11.12-15.54C126.64,268.25,126.33,265.46,123.93,265.23Z" style="fill:#FBA834"></path><path d="M123.93,265.23c-2.35-.24-4.3,2.48-8.23,4.4a38.69,38.69,0,0,0-14,10.8c-3.41,4-4.7,3.3-5.74,5.78s1.84,3.53,3.21,7c2.32,5.92,5.19,9.9,8.18,12.36,5.29,4.35,4.48,7.39,6.88,7.36,2.57,0,2.38-2.23,6.41-3.79,9.52-3.7,13.43-7,17.83-13.51,1.71-2.54,3.9-2.33,4.32-4.78.21-1.23-1.58-1.89-3.19-5.74-2.68-6.41-7-12.42-11.12-15.54C126.64,268.25,126.33,265.46,123.93,265.23Z" style="opacity:0.30000000000000004"></path><path d="M98.53,290.33c2,2.85,1.75,5.7,5.89,10.94,4,5,6.85,6.44,8,8.7,1,1.88,2.34,2.76,2.66.56s-1.4-8.47-5.41-13.84c-4.61-6.19-7.55-8.56-9.54-9.47C97.05,285.8,97,288.09,98.53,290.33Z" style="opacity:0.2"></path><path d="M120.77,306.76c-2.62.9-2.74,3.23-4.06,5a10.4,10.4,0,0,1,3.91-2.61A45.14,45.14,0,0,0,130.71,304C127.35,305.8,122.68,306.1,120.77,306.76Zm16.46-12.07c-1.63,1.5-1.47,4.16-3.43,6.74a36.79,36.79,0,0,0,4.65-5.76c1.57-2.32,3.52-2.35,4.17-4.2C141.18,293.29,139.19,292.88,137.23,294.69Z" style="opacity:0.2"></path><path d="M120.65,270.9a27.2,27.2,0,0,0-15.07,8.25,4.42,4.42,0,0,0-1,3.25,4.36,4.36,0,0,0,2.26,3.55,8.05,8.05,0,0,0,4.63.57c2.9-.37,4.61-1.13,8.36-1.19a8.57,8.57,0,0,1,4,1c1.85,1,3.23,2.19,4.85,3.06,2.24,1.2,6.2.65,7.58-.73s1.8-3.68.48-6.45C133.76,276.05,128.3,270.05,120.65,270.9Z" style="fill:#FBA834;opacity:0.30000000000000004"></path></g><g id="freepik--cushion--inject-398"><path d="M185.44,229.82c2.05-1.19,4.95.48,9.32.6a49.07,49.07,0,0,1,19.3,4.2c4.74,2.21,5.64,1.07,7.61,2.89s-.22,4,0,7.75c.34,6.34-.64,11.15-2.34,14.63-3,6.15-1,8.57-3.23,9.54-2.35,1-3.09-1.05-7.4-.81-10.2.57-17.19-1-23.88-5.08-2.62-1.61-4.52-.51-5.92-2.57-.69-1,.66-2.37.54-6.55-.21-6.94,1.2-14.18,3.71-18.74C184.23,233.69,183.36,231,185.44,229.82Z" style="fill:#FBA834"></path><path d="M185.44,229.82c2.05-1.19,4.95.48,9.32.6a49.07,49.07,0,0,1,19.3,4.2c4.74,2.21,5.64,1.07,7.61,2.89s-.22,4,0,7.75c.34,6.34-.64,11.15-2.34,14.63-3,6.15-1,8.57-3.23,9.54-2.35,1-3.09-1.05-7.4-.81-10.2.57-17.19-1-23.88-5.08-2.62-1.61-4.52-.51-5.92-2.57-.69-1,.66-2.37.54-6.55-.21-6.94,1.2-14.18,3.71-18.74C184.23,233.69,183.36,231,185.44,229.82Z" style="opacity:0.30000000000000004"></path><path d="M221,242.34c-.65,3.42.76,5.9-.84,12.39-1.54,6.22-3.58,8.7-3.73,11.25-.12,2.12-1,3.47-2.19,1.61s-2.22-8.3-.8-14.85c1.65-7.54,3.35-10.91,4.79-12.56C220.49,237.6,221.52,239.64,221,242.34Z" style="opacity:0.2"></path><path d="M197.37,268.1a44.32,44.32,0,0,0,11.31.52,10.52,10.52,0,0,1,4.64.77c-1.95-1.09-3-3.17-5.78-2.91C205.53,266.67,201.16,268.33,197.37,268.1Zm-18.11-6.67c1.35,1.43,3.15.64,5.54,2.11a36.83,36.83,0,0,0,6.61,3.32c-2.85-1.53-3.81-4-5.91-4.72C183,261.3,181.33,262.5,179.26,261.43Z" style="opacity:0.2"></path><path d="M190.77,233.63c5.54-1.36,13-1.32,18.25,1,1,.49,2.85,1.81,3.23,2.95a4.37,4.37,0,0,1-.6,4.17,8.06,8.06,0,0,1-4,2.43c-2.8.86-5.65.55-9.3,1.83a11.37,11.37,0,0,0-4.07,2.94c-1.26,1.7-2,3.33-3.16,4.79-1.54,2-5.38,3.15-7.2,2.47s-3.16-2.61-3.1-5.68C181,243.73,183.45,236,190.77,233.63Z" style="fill:#FBA834;opacity:0.30000000000000004"></path></g><path d="M129.54,350V327a8.18,8.18,0,0,0-3.68-6.37L88.13,298.86l-2.89-24.54A9.8,9.8,0,0,0,81,268l-3-1.72c-2-1.17-3.68-.22-3.68,2.12V318.1A8.17,8.17,0,0,0,78,324.47l47.86,27.63C127.88,353.27,129.54,352.32,129.54,350Z" style="fill:#263238"></path><path d="M138,322.15v23a1.85,1.85,0,0,1,0,.24,8.2,8.2,0,0,1-3.64,6.12l0,0-1.06.61a1.22,1.22,0,0,1-.28.14.55.55,0,0,1-.15.08l0,0-.29.11a8.49,8.49,0,0,1-5.41.15,4,4,0,0,1-.64-.24c1.77.73,3.13-.26,3.14-2.38h0V327a8.14,8.14,0,0,0-3.68-6.37l-6.67-3.86L88.13,298.87l4.74-2.75a8.22,8.22,0,0,1,7.36,0l27.38,15.81,6.67,3.85A8.15,8.15,0,0,1,138,322.15Z" style="fill:#455a64"></path><path d="M129.54,327v23h0c0,2.12-1.37,3.11-3.14,2.38a4,4,0,0,0,.64.24,8.49,8.49,0,0,0,5.41-.15l.29-.11,0,0a.55.55,0,0,0,.15-.08,1.22,1.22,0,0,0,.28-.14l1.06-.61,0,0a8.2,8.2,0,0,0,3.64-6.12,1.85,1.85,0,0,0,0-.24v-23a7.49,7.49,0,0,0-1.08-3.62l-8.42,4.87A7.46,7.46,0,0,1,129.54,327Z" style="fill:#37474f"></path></g></g></g><g id="freepik--Speaker--inject-398"><g id="freepik--speaker--inject-398"><path d="M427.83,261.64l25.36,14.64a5.49,5.49,0,0,1,2.48,4.3v50.83a5.52,5.52,0,0,1-2.48,4.31l-18.36,10.59a5.45,5.45,0,0,1-5,0l-25.35-14.64a5.47,5.47,0,0,1-2.49-4.3V276.54a5.47,5.47,0,0,1,2.49-4.3l18.35-10.6A5.51,5.51,0,0,1,427.83,261.64Z" style="fill:#37474f"></path><path d="M429.86,289.75l-25.35-14.64c-1.38-.79-2.49-.15-2.49,1.43v50.83a5.47,5.47,0,0,0,2.49,4.3l25.35,14.64c1.37.8,2.49.15,2.49-1.43V294.05A5.5,5.5,0,0,0,429.86,289.75Z" style="fill:#455a64"></path><path d="M434.83,289.75l18.36-10.6c1.37-.79,2.48-.15,2.48,1.43v50.83a5.52,5.52,0,0,1-2.48,4.31l-18.36,10.59c-1.37.8-2.48.15-2.48-1.43V294.05A5.49,5.49,0,0,1,434.83,289.75Z" style="fill:#263238"></path><path d="M422.86,261.64l-18.35,10.6c-1.38.79-1.38,2.08,0,2.87l25.35,14.64a5.51,5.51,0,0,0,5,0l18.36-10.6c1.37-.79,1.37-2.08,0-2.87l-25.36-14.64A5.51,5.51,0,0,0,422.86,261.64Z" style="fill:#37474f"></path><path d="M417.18,333.54c-5.76-3.33-10.44-11.42-10.44-18.08s4.68-9.36,10.44-6,10.45,11.42,10.45,18.08S423,336.87,417.18,333.54Z" style="fill:#263238"></path><path d="M417.18,332.34c-5.19-3-9.39-10.29-9.39-16.28s4.2-8.42,9.39-5.43,9.4,10.29,9.4,16.28S422.37,335.33,417.18,332.34Z" style="fill:#37474f"></path><path d="M417.18,327.82a12.11,12.11,0,0,1-5.48-9.5c0-3.5,2.45-4.92,5.48-3.17a12.12,12.12,0,0,1,5.49,9.5C422.67,328.15,420.21,329.57,417.18,327.82Z" style="fill:#FBA834"></path><path d="M417.18,323.37a3.62,3.62,0,0,1-1.63-2.83c0-1,.73-1.46,1.63-.94a3.62,3.62,0,0,1,1.63,2.83C418.81,323.46,418.08,323.89,417.18,323.37Z" style="fill:#FBA834"></path><path d="M417.18,323.37a3.62,3.62,0,0,1-1.63-2.83c0-1,.73-1.46,1.63-.94a3.62,3.62,0,0,1,1.63,2.83C418.81,323.46,418.08,323.89,417.18,323.37Z" style="fill:#fff;opacity:0.30000000000000004"></path><path d="M417.18,305.56a17,17,0,0,1-7.7-13.34c0-4.91,3.45-6.9,7.7-4.44a17,17,0,0,1,7.7,13.34C424.88,306,421.44,308,417.18,305.56Z" style="fill:#263238"></path><path d="M417.18,304.67a15.33,15.33,0,0,1-6.93-12c0-4.42,3.11-6.21,6.93-4a15.3,15.3,0,0,1,6.93,12C424.11,305.09,421,306.88,417.18,304.67Z" style="fill:#37474f"></path><path d="M417.18,301.34a9,9,0,0,1-4-7c0-2.58,1.81-3.62,4-2.33a8.92,8.92,0,0,1,4.05,7C421.23,301.58,419.42,302.63,417.18,301.34Z" style="fill:#FBA834"></path><path d="M417.18,298.06A2.68,2.68,0,0,1,416,296c0-.77.54-1.08,1.2-.7a2.64,2.64,0,0,1,1.2,2.08C418.38,298.13,417.85,298.44,417.18,298.06Z" style="fill:#FBA834"></path><path d="M417.18,298.06A2.68,2.68,0,0,1,416,296c0-.77.54-1.08,1.2-.7a2.64,2.64,0,0,1,1.2,2.08C418.38,298.13,417.85,298.44,417.18,298.06Z" style="fill:#fff;opacity:0.30000000000000004"></path><path d="M404.74,277.94a2,2,0,0,1,.88,1.54c0,.56-.39.79-.88.51a2,2,0,0,1-.89-1.54C403.85,277.88,404.25,277.65,404.74,277.94Z" style="fill:#263238"></path><path d="M429.12,292a2,2,0,0,1,.89,1.54c0,.57-.39.8-.89.52a2,2,0,0,1-.88-1.54C428.24,292,428.63,291.74,429.12,292Z" style="fill:#263238"></path><path d="M404.74,327.05a2,2,0,0,1,.88,1.54c0,.57-.39.8-.88.52a2,2,0,0,1-.89-1.54C403.85,327,404.25,326.77,404.74,327.05Z" style="fill:#263238"></path><path d="M429.12,341.14a1.93,1.93,0,0,1,.89,1.54c0,.57-.39.8-.89.51a2,2,0,0,1-.88-1.54C428.24,341.09,428.63,340.86,429.12,341.14Z" style="fill:#263238"></path><path d="M446.19,320.9l-4.36,2.52c-1.37.79-2.49.15-2.49-1.44V308.87a5.5,5.5,0,0,1,2.49-4.31l4.36-2.52c1.37-.79,2.49-.15,2.49,1.44v13.11A5.5,5.5,0,0,1,446.19,320.9Z" style="fill:#37474f"></path><path d="M447.51,304.37c0-.95-.67-1.34-1.49-.86l-4,2.31a3.33,3.33,0,0,0-1.49,2.59v2.32l7-4Z" style="fill:#263238"></path><path d="M440.51,321.09c0,1,.67,1.34,1.49.86l4-2.31a3.33,3.33,0,0,0,1.49-2.59v-2.32l-7,4Z" style="fill:#263238"></path></g></g><g id="freepik--Bottle--inject-398"><g id="freepik--Beer--inject-398"><path id="freepik--shadow--inject-398" d="M160.58,377.37c2.8,1.63,2.8,4.27,0,5.9a11.15,11.15,0,0,1-10.15,0c-2.81-1.63-2.81-4.27,0-5.9A11.15,11.15,0,0,1,160.58,377.37Z" style="fill:#FBA834;opacity:0.30000000000000004"></path><g id="freepik--Beers--inject-398"><g id="freepik--beer-bottle--inject-398"><path d="M160.88,379.91V363c0-1.11-1.23-2.61-1.66-3.27-.57-.88-.56-2.1-.7-3.59-.19-2.15-1-4.08-1.17-5.64a.57.57,0,0,0,.2-.56c-.08-.36-.47-.49-.47-.58a3.18,3.18,0,0,0-3.16,0c0,.09-.4.23-.47.58a.5.5,0,0,0,0,.12.61.61,0,0,0,.21.44c-.14,1.56-1,3.49-1.17,5.64-.13,1.49-.12,2.71-.7,3.59-.43.66-1.65,2.16-1.65,3.27v16.95h0c0,.66.52,1.33,1.57,1.84a9.85,9.85,0,0,0,7.61,0C160.35,381.25,160.88,380.58,160.88,379.91Z" style="fill:#37474f"></path><path d="M160.08,364.8v14.58a2,2,0,0,1-1.22,1.61,7.54,7.54,0,0,1-6.72,0,2,2,0,0,1-1.22-1.6V364.7a1.27,1.27,0,0,1,0-.28,2.54,2.54,0,0,1,1.31-1.53,7.18,7.18,0,0,1,6.48,0,2.52,2.52,0,0,1,1.31,1.56A2,2,0,0,1,160.08,364.8Z" style="fill:#FBA834"></path><path d="M160.08,364.8v14.58a2,2,0,0,1-1.22,1.61,7.54,7.54,0,0,1-6.72,0,2,2,0,0,1-1.22-1.6V364.7a1.27,1.27,0,0,1,0-.28,2.54,2.54,0,0,1,1.31-1.53,7.18,7.18,0,0,1,6.48,0,2.52,2.52,0,0,1,1.31,1.56A2,2,0,0,1,160.08,364.8Z" style="opacity:0.4"></path><path d="M152.54,380.69c-1.64-.88-1.64-2.31,0-3.19a6.9,6.9,0,0,1,5.92,0c1.64.88,1.64,2.31,0,3.19A6.9,6.9,0,0,1,152.54,380.69Z" style="opacity:0.1"></path><path d="M160.08,364.8a2.29,2.29,0,0,1-1.34,1.83,7.12,7.12,0,0,1-6.48,0,2.29,2.29,0,0,1-1.34-1.8v-.13a1.27,1.27,0,0,1,0-.28,2.54,2.54,0,0,1,1.31-1.53,7.18,7.18,0,0,1,6.48,0,2.52,2.52,0,0,1,1.31,1.56A2,2,0,0,1,160.08,364.8Z" style="fill:#FBA834"></path><path d="M160.08,364.8a2.29,2.29,0,0,1-1.34,1.83,7.12,7.12,0,0,1-6.48,0,2.29,2.29,0,0,1-1.34-1.8v-.13a1.27,1.27,0,0,1,0-.28,2.54,2.54,0,0,1,1.31-1.53,7.18,7.18,0,0,1,6.48,0,2.52,2.52,0,0,1,1.31,1.56A2,2,0,0,1,160.08,364.8Z" style="opacity:0.30000000000000004"></path><path d="M156.79,350.21c.36-.18.54-.4.54-.63v0c-.13-.11-.25-.18-.25-.23a3.18,3.18,0,0,0-3.16,0c0,.05-.13.12-.25.23v0c0,.23.18.46.53.63A3.33,3.33,0,0,0,156.79,350.21Z" style="fill:#263238"></path><path d="M157.44,351.1c0-.21-.07-.42-.09-.62a1.39,1.39,0,0,1-.39.26,3.79,3.79,0,0,1-2.92,0,1.4,1.4,0,0,1-.4-.27q0,.31-.09.63l0,0a1.21,1.21,0,0,0,.46.33,3.7,3.7,0,0,0,2.92,0A1.18,1.18,0,0,0,157.44,351.1Z" style="fill:#263238"></path><path d="M157.33,349.33a1.72,1.72,0,0,0-.27-1.17l0,0,0-.06-.13-.1h0l-.17-.09a3,3,0,0,0-2.37,0l-.16.09h0l-.12.1-.06.06v0a1.72,1.72,0,0,0-.27,1.17c0,.23.18.46.53.63a3.33,3.33,0,0,0,2.59,0C157.15,349.79,157.33,349.56,157.33,349.33Z" style="fill:#37474f"></path><path d="M154.31,349c-.65-.32-.65-.83,0-1.15a3,3,0,0,1,2.37,0c.66.32.66.83,0,1.15A3,3,0,0,1,154.31,349Z" style="fill:#455a64"></path><path d="M154.65,348.86c-.46-.22-.46-.59,0-.82a2.25,2.25,0,0,1,1.69,0c.47.23.47.6,0,.82A2.16,2.16,0,0,1,154.65,348.86Z" style="fill:#263238"></path><path d="M156.41,382.49a10.34,10.34,0,0,1-1.45-.29,5.29,5.29,0,0,1-2.05-1,1.7,1.7,0,0,1-.69-1.28V363a8.61,8.61,0,0,1,1.21-3.27c.59-1.16.26-2.39.39-3.88.17-1.9.51-3.49.69-4.91a.35.35,0,0,1,.06-.56,1,1,0,0,1,.38-.17.61.61,0,0,1,0-1c-1.26-.41-1.22-1.34.29-1.57a2.65,2.65,0,0,0-.93.23l-.16.09h0l-.12.1-.06.06v0a1.72,1.72,0,0,0-.27,1.17.41.41,0,0,0,0,.19.65.65,0,0,0-.26.39.5.5,0,0,0,0,.12.61.61,0,0,0,.21.44c-.14,1.56-1,3.49-1.17,5.64-.13,1.49-.12,2.71-.7,3.59-.43.66-1.65,2.16-1.65,3.27v16.95h0c0,.66.52,1.33,1.57,1.84A9.44,9.44,0,0,0,156.41,382.49Z" style="opacity:0.2"></path><path d="M157.46,349.84c-.05-.09-.18.38-.67.63a4.41,4.41,0,0,1-2.16.39,4.52,4.52,0,0,0,2.06-.15C157.52,350.36,157.54,350,157.46,349.84Z" style="fill:#fafafa;opacity:0.1"></path><path d="M156.86,348a1,1,0,0,1,.34.75,1.23,1.23,0,0,1,0,.75,2.26,2.26,0,0,1-1.79.6c.82-.25,1.39-.46,1.57-.81A1.31,1.31,0,0,0,156.86,348Z" style="fill:#fafafa;opacity:0.1"></path><path d="M159.86,363v16.94c0,.38-.39.78-1.07,1.11a7.75,7.75,0,0,1-3.29.65c3.39-.35,3.24-1.83,3.24-3.38V364.81c0-3.2-1.17-3.45-1.79-4.76s0-3.47-.37-5.45c-.22-1.32-.45-2.06-.58-2.86a4.35,4.35,0,0,0,.52-.1c.09.44.22.9.34,1.37a18.73,18.73,0,0,1,.65,3.17c0,.24,0,.48.05.71a6.68,6.68,0,0,0,.77,3.23l.3.43A5.87,5.87,0,0,1,159.86,363Z" style="fill:#fafafa;opacity:0.2"></path></g></g></g></g><g id="freepik--Plant--inject-398"><g id="freepik--hanging-flowerpot--inject-398"><path d="M243.53,152.91h-.07a.34.34,0,0,1-.26-.4l12.23-57.89a.34.34,0,1,1,.67.14l-12.23,57.89A.35.35,0,0,1,243.53,152.91Z" style="fill:#ebebeb"></path><path d="M268,153.21a.35.35,0,0,1-.34-.27L255.43,94.75a.34.34,0,1,1,.67-.14l12.22,58.19a.34.34,0,0,1-.26.4Z" style="fill:#ebebeb"></path><g id="freepik--pot--inject-398"><path d="M266.75,156.55H244.61l2.29,9.54h0a4.69,4.69,0,0,0,2.55,3.15,13.77,13.77,0,0,0,12.47,0,4.46,4.46,0,0,0,2.56-3.42Z" style="fill:#37474f"></path><path d="M264.05,163.09a9.17,9.17,0,0,0,1.33-.93l1.25-5.09a9.24,9.24,0,0,1-2.24,1.78c-4.67,2.69-12.16,2.76-17,.22l.56-2.28-.17-.24h-3.18l2.29,9.54h0a4.69,4.69,0,0,0,2.55,3.15,13.74,13.74,0,0,0,9.06,1.21c-5.51.42-9.3-2-9.86-4.22-.23-.89-.62-2.85-.62-2.85C252.63,165.72,259.65,165.63,264.05,163.09Z" style="fill:#263238"></path><path d="M267.9,153.73a4.48,4.48,0,0,1-.74,1.72,8.07,8.07,0,0,1-2.77,2.47c-4.81,2.77-12.6,2.77-17.41,0a8.2,8.2,0,0,1-2.78-2.47,4.61,4.61,0,0,1-.73-1.72h0c-.42-2.08.75-4.26,3.52-5.86,4.81-2.77,12.6-2.77,17.41,0C267.16,149.47,268.33,151.65,267.9,153.73Z" style="fill:#455a64"></path><path d="M267.16,155.45a8.07,8.07,0,0,1-2.77,2.47c-4.81,2.77-12.6,2.77-17.41,0a8.2,8.2,0,0,1-2.78-2.47,4.61,4.61,0,0,1-.73-1.72h0l.55,3.75a6.24,6.24,0,0,0,3.38,4.14c4.58,2.64,12,2.64,16.59,0a6.3,6.3,0,0,0,3.37-4.08l0-.19.53-3.62A4.48,4.48,0,0,1,267.16,155.45Z" style="fill:#37474f"></path><path d="M262.94,148.71a16.06,16.06,0,0,0-14.51,0c-2.26,1.31-3.25,3.08-3,4.78a5.5,5.5,0,0,0,3,3.59,16.06,16.06,0,0,0,14.51,0,5.51,5.51,0,0,0,2.95-3.58C266.18,151.79,265.2,150,262.94,148.71Z" style="fill:#37474f"></path><path d="M246.16,155.08a6.85,6.85,0,0,0,2.27,2,16.06,16.06,0,0,0,14.51,0,6.85,6.85,0,0,0,2.27-2c0-1.39-1-2.76-2.79-3.82a14.87,14.87,0,0,0-13.47,0C247.12,152.32,246.19,153.7,246.16,155.08Z" style="fill:#fafafa"></path></g><g id="freepik--plant--inject-398"><path d="M253.36,142c-.15-4.4-1.8-11.23-3.39-14a22.51,22.51,0,0,1,5,13Z" style="fill:#FBA834"></path><path d="M253.36,142c-.15-4.4-1.8-11.23-3.39-14a22.51,22.51,0,0,1,5,13Z" style="opacity:0.35000000000000003"></path><path d="M258.13,151.51c.15-3.06,2.4-4,4.93-3.06,1.79.71,4.39,3.38,5.21,7.64C267.47,153.89,261.63,146.49,258.13,151.51Z" style="fill:#FBA834"></path><path d="M258.27,153a2.51,2.51,0,0,1,3-2.27c1.79.37,6,3.66,7.78,9-.32-3.61-1.5-6.73-3.91-8.75s-4.18-2.33-5.94-1.29C257.63,150.61,258.27,153,258.27,153Z" style="fill:#FBA834"></path><path d="M258.27,153a2.51,2.51,0,0,1,3-2.27c1.79.37,6,3.66,7.78,9-.32-3.61-1.5-6.73-3.91-8.75s-4.18-2.33-5.94-1.29C257.63,150.61,258.27,153,258.27,153Z" style="opacity:0.2"></path><path d="M255.06,154.45c-1.45-4.86-1.67-13.89-.27-18.77,2-6.9,6.08-9.92,9.14-10.66-2.9,1.21-6,5.64-6.82,10s-.37,19.47-.37,19.47Z" style="fill:#FBA834"></path><path d="M260.53,139.11c2-1.94,3.52-3.25,6-3.12s5.72,3.55,7.62,10.81c-2-4.61-4.5-8.67-8.56-9.1A6.53,6.53,0,0,0,260.53,139.11Z" style="fill:#FBA834"></path><path d="M260.53,139.11c2-1.94,3.52-3.25,6-3.12s5.72,3.55,7.62,10.81c-2-4.61-4.5-8.67-8.56-9.1A6.53,6.53,0,0,0,260.53,139.11Z" style="opacity:0.2"></path><path d="M238.45,134.8a15.79,15.79,0,0,1,16.24,13.34l-2.18-.36s-1.81-5.71-4.94-8.67C244.78,136.47,242.71,135.42,238.45,134.8Z" style="fill:#FBA834"></path><path d="M255.22,146.77a15.44,15.44,0,0,0-4.73-11.1c-3.74-3.49-5.1-4.25-9-5.24a24.39,24.39,0,0,1,8,6.68,14.06,14.06,0,0,1,2.59,8.52C252.58,146.77,254.1,149.14,255.22,146.77Z" style="fill:#FBA834"></path><path d="M255.22,146.77a15.44,15.44,0,0,0-4.73-11.1c-3.74-3.49-5.1-4.25-9-5.24a24.39,24.39,0,0,1,8,6.68,14.06,14.06,0,0,1,2.59,8.52C252.58,146.77,254.1,149.14,255.22,146.77Z" style="opacity:0.2"></path><path d="M255.06,148c-.49-3.13,1.19-8.72,3.15-11.45a15.63,15.63,0,0,1,9.77-6.46,17.62,17.62,0,0,0-9.58,10.62,23.61,23.61,0,0,0-.51,8.91Z" style="fill:#FBA834"></path><path d="M255.06,148c-.49-3.13,1.19-8.72,3.15-11.45a15.63,15.63,0,0,1,9.77-6.46,17.62,17.62,0,0,0-9.58,10.62,23.61,23.61,0,0,0-.51,8.91Z" style="opacity:0.2"></path><path d="M256.26,149.71c.18-2.71,1.77-8.74,4.91-11.17a5.77,5.77,0,0,1,7.7.48,4.7,4.7,0,0,0-5.84.09c-1.65,1.36-3.33,5.45-4.17,9.34Z" style="fill:#FBA834"></path><path d="M256.26,149.71c.18-2.71,1.77-8.74,4.91-11.17a5.77,5.77,0,0,1,7.7.48,4.7,4.7,0,0,0-5.84.09c-1.65,1.36-3.33,5.45-4.17,9.34Z" style="opacity:0.35000000000000003"></path><path d="M256.39,154.45a13.28,13.28,0,0,1,5.2-12.34c4.81-3.35,8.13-2.47,9.39-2.09-3.72-.25-7.45,1.82-9.74,4.38-1.58,1.78-3.07,4.7-3.16,9.52Z" style="fill:#FBA834"></path><path d="M256.45,154.7a2.92,2.92,0,0,0,1.77-.63c0-1.88.5-5.66,3.15-7.89s4.71-1.8,5.13-.93c0-1.28-1.61-2.42-3.4-2C260.1,143.84,255.89,147.71,256.45,154.7Z" style="fill:#FBA834"></path><path d="M256.45,154.7a2.92,2.92,0,0,0,1.77-.63c0-1.88.5-5.66,3.15-7.89s4.71-1.8,5.13-.93c0-1.28-1.61-2.42-3.4-2C260.1,143.84,255.89,147.71,256.45,154.7Z" style="opacity:0.35000000000000003"></path><path d="M261.53,143.78c1.63-.88,3-1.65,4.85-.8.08,0,1.11-.31,1.51.16,1.51,1.79,1,6.25-1.76,10.52,1.28-3.2,1.34-9.12-1-10A4.77,4.77,0,0,0,261.53,143.78Z" style="fill:#FBA834"></path><path d="M261.53,143.78c1.63-.88,3-1.65,4.85-.8.08,0,1.11-.31,1.51.16,1.51,1.79,1,6.25-1.76,10.52,1.28-3.2,1.34-9.12-1-10A4.77,4.77,0,0,0,261.53,143.78Z" style="opacity:0.2"></path><path d="M266.38,143c.73.34,2.23,2.9,1.26,6.48.9-2.7.58-5.3-.94-6.56A1.5,1.5,0,0,0,266.38,143Z" style="fill:#FBA834"></path><path d="M266.38,143c.73.34,2.23,2.9,1.26,6.48.9-2.7.58-5.3-.94-6.56A1.5,1.5,0,0,0,266.38,143Z" style="opacity:0.35000000000000003"></path><path d="M253.24,153.82a2.52,2.52,0,0,0-2.77-2.49c-1.81.23-6.26,3.18-8.46,8.41a14.59,14.59,0,0,1,4.49-8.61c2.1-1.89,4.72-2.68,6.65-1.44S253.24,153.82,253.24,153.82Z" style="fill:#FBA834"></path><path d="M253.24,153.82a2.52,2.52,0,0,0-2.77-2.49c-1.81.23-6.26,3.18-8.46,8.41a14.59,14.59,0,0,1,4.49-8.61c2.1-1.89,4.72-2.68,6.65-1.44S253.24,153.82,253.24,153.82Z" style="opacity:0.35000000000000003"></path><path d="M252.51,147c-1.57-1.56-2.66-3.07-5.55-2.47s-4.86,3.73-5.64,8c.49-1.63,2-5.38,4.92-6S250.63,146.07,252.51,147Z" style="fill:#FBA834"></path><path d="M253.25,153.82c-.41-2.76-1.46-6.71-4.41-6.87a7.69,7.69,0,0,0-7.52,5.55c.69-3.51,3.68-6.86,6.8-6.87s6.2.68,6.94,8.82Z" style="fill:#FBA834"></path><path d="M253.25,153.82c-.41-2.76-1.46-6.71-4.41-6.87a7.69,7.69,0,0,0-7.52,5.55c.69-3.51,3.68-6.86,6.8-6.87s6.2.68,6.94,8.82Z" style="opacity:0.2"></path><path d="M250.77,142.08a8,8,0,0,0-4.06-2c-1-.16-3-.94-5.05,1s-4.29,6.49-3.51,9.67C238.48,147.37,243,137.9,250.77,142.08Z" style="fill:#FBA834"></path><path d="M250.77,142.08a8,8,0,0,0-4.06-2c-1-.16-3-.94-5.05,1s-4.29,6.49-3.51,9.67C238.48,147.37,243,137.9,250.77,142.08Z" style="opacity:0.2"></path><path d="M255.48,154.73c0-2.57-1.88-10.71-4.84-12.78-3.71-2.6-6.18-.39-6.18-.39a5,5,0,0,1,4.41.7c1.92,1.4,3.7,5.5,4.38,11.56A2.7,2.7,0,0,0,255.48,154.73Z" style="fill:#FBA834"></path><path d="M255.48,154.73c0-2.57-1.88-10.71-4.84-12.78-3.71-2.6-6.18-.39-6.18-.39a5,5,0,0,1,4.41.7c1.92,1.4,3.7,5.5,4.38,11.56A2.7,2.7,0,0,0,255.48,154.73Z" style="opacity:0.35000000000000003"></path><path d="M253.8,147.08a28.72,28.72,0,0,0,1.2,7.62,5.38,5.38,0,0,0,1.79,0c.56-1,0-7.32,1.1-7.44C257.05,146.84,254.19,145.79,253.8,147.08Z" style="fill:#FBA834"></path><path d="M253.8,147.08a28.72,28.72,0,0,0,1.2,7.62,5.38,5.38,0,0,0,1.79,0c.56-1,0-7.32,1.1-7.44C257.05,146.84,254.19,145.79,253.8,147.08Z" style="opacity:0.2"></path><path d="M253.8,147.08c.87-.9,4.42.88,5.08,6.16.89-2.51.5-5.61-.39-6.39a1.59,1.59,0,0,0-1.82-.25S253.92,145.39,253.8,147.08Z" style="fill:#FBA834"></path><path d="M256.67,146.6c1.09.46,2.33,2,2.32,4.54.08-1.32-.17-3.63-2-4.65A1.49,1.49,0,0,0,256.67,146.6Z" style="fill:#FBA834"></path><path d="M256.67,146.6c1.09.46,2.33,2,2.32,4.54.08-1.32-.17-3.63-2-4.65A1.49,1.49,0,0,0,256.67,146.6Z" style="opacity:0.2"></path></g><path d="M255.76,164.13a.34.34,0,0,1-.34-.34V94.68a.35.35,0,0,1,.69,0v69.11A.35.35,0,0,1,255.76,164.13Z" style="fill:#ebebeb"></path><path d="M255.76,95a3.06,3.06,0,1,1,3.06-3A3.06,3.06,0,0,1,255.76,95Zm0-5.42A2.37,2.37,0,1,0,258.13,92,2.37,2.37,0,0,0,255.76,89.6Z" style="fill:#ebebeb"></path><path d="M255.76,89.6a.35.35,0,0,1-.34-.34V38.73l.69.41V89.26A.35.35,0,0,1,255.76,89.6Z" style="fill:#ebebeb"></path><path d="M255.68,164.13a18,18,0,0,1-8.62-2,6.64,6.64,0,0,1-3.61-4.38.34.34,0,0,1,.28-.4.34.34,0,0,1,.4.28c.24,1.46,1.41,2.84,3.27,3.9,4.57,2.58,12,2.58,16.56,0a6,6,0,0,0,3.27-3.85.34.34,0,0,1,.4-.28.35.35,0,0,1,.28.4,6.68,6.68,0,0,1-3.61,4.33A17.93,17.93,0,0,1,255.68,164.13Z" style="fill:#ebebeb"></path></g></g><g id="freepik--character-4--inject-398"><g id="freepik--Character--inject-398"><g id="freepik--Bottom--inject-398"><g id="freepik--bottom--inject-398"><path d="M357.45,325.52l1-9.41-10.77.71s.16,5.11.31,8c.09,1.71-2.21,4.88-2.21,4.88s5.06,2.71,7.77,1.76a7.15,7.15,0,0,0,4.11-5C357.63,325.67,357.45,325.52,357.45,325.52Z" style="fill:#ffa8a7"></path><path d="M331.51,340.22a2.35,2.35,0,0,0,.46,2.5,11.94,11.94,0,0,0,8.29,1.92,15,15,0,0,0,8.08-2.86c1.67-1.26,4-3,5.89-3.4a11.82,11.82,0,0,0,4.21-1.53c.56-.49.52-2.73.52-2.73Z" style="fill:#263238"></path><path d="M357.45,325.5a.67.67,0,0,1,.62.54c.12.61.23,2.4.48,3.42a16.71,16.71,0,0,1,.32,5.43c-.25,1.14-3.09,1.89-4.91,2.5a23.53,23.53,0,0,0-5.92,3.36,17.08,17.08,0,0,1-8.76,2.89c-3.19-.07-6.76-1.1-7.56-2.5-1-1.72-1.7-3.72,3.06-5.69.9-.37,4.07-2.06,5.15-2.67,2.92-1.66,5-3.19,6.37-6.19a1.67,1.67,0,0,1,.69-.91,1.59,1.59,0,0,1,.92-.06,32.13,32.13,0,0,1,4.63.91c.63.29,1.53.63,1.5,1.39a2.23,2.23,0,0,1-.19.77c-.06.16-.11.36,0,.46s.32,0,.44-.11a12.41,12.41,0,0,0,1.3-1.41,4.61,4.61,0,0,1,.76-.7,7.2,7.2,0,0,0,.81-.48C357.5,326.19,357.43,325.86,357.45,325.5Z" style="fill:#455a64"></path><path d="M348,340.75c.84-.62,1.72-1.22,2.61-1.75h0s-5.61,3.07-7.83,1.6a1.81,1.81,0,0,1-.68-2.42c0-.36-5-3-6.43-3.16h0l-.93.44c-4.76,2-4,4-3.06,5.69.8,1.4,3.38,2.52,7.5,2.59A17.57,17.57,0,0,0,348,340.75Z" style="fill:#37474f"></path><path d="M342.54,337.13c-3,1.05-1.71,1.58-.89,1.71s5.81-2.5,8.86-4.68,5.21-4.79,6.4-5.62c.44-.31.91-.7,1.34-1.06-.07-.6-.13-1.15-.18-1.44a.67.67,0,0,0-.62-.54c0,.36.05.69-.25.95a7.2,7.2,0,0,1-.81.48,4.61,4.61,0,0,0-.76.7,12.41,12.41,0,0,1-1.3,1.41A38,38,0,0,1,342.54,337.13Z" style="fill:#37474f"></path><path d="M341.87,338.44a.3.3,0,0,0,.18-.06.26.26,0,0,0,.05-.38c-.81-1-4.71-3.29-6.87-3.11a.28.28,0,1,0,0,.55c2-.17,5.72,2.13,6.36,2.89A.34.34,0,0,0,341.87,338.44Z" style="fill:#263238"></path><path d="M344.45,337a.32.32,0,0,0,.19-.05.27.27,0,0,0,.05-.39c-.82-1-4.71-3.28-6.88-3.1a.29.29,0,0,0-.26.3.29.29,0,0,0,.32.25c2-.17,5.72,2.13,6.36,2.89A.28.28,0,0,0,344.45,337Z" style="fill:#263238"></path><path d="M347,335.65a.33.33,0,0,0,.19-.06.26.26,0,0,0,0-.38c-.81-1-4.7-3.29-6.87-3.1a.27.27,0,0,0-.26.29.28.28,0,0,0,.31.25c2-.17,5.72,2.13,6.37,2.9A.3.3,0,0,0,347,335.65Z" style="fill:#263238"></path><path d="M349.44,334.09a.26.26,0,0,0,.19,0,.27.27,0,0,0,0-.39c-.81-1-4.71-3.28-6.87-3.1a.28.28,0,0,0-.26.3.28.28,0,0,0,.31.25c2-.17,5.72,2.13,6.37,2.89A.27.27,0,0,0,349.44,334.09Z" style="fill:#263238"></path><path d="M351.8,332.54a.32.32,0,0,0,.18-.06.26.26,0,0,0,0-.38c-1.12-1.37-5.2-3.32-7.37-3.14a.28.28,0,0,0-.26.3.29.29,0,0,0,.32.25c1.94-.17,5.86,1.71,6.85,2.92A.28.28,0,0,0,351.8,332.54Z" style="fill:#263238"></path><path d="M378.75,330.65l-2.46-8.91,11-1.7.49,8.63s1.17,3.08.5,4.21-8,2.42-8.64,1.68S378.75,330.65,378.75,330.65Z" style="fill:#ffa8a7"></path><path d="M379.87,350.09c.36,2.76,1,4.54,2.18,6s3.35,1.71,5.45.94,4.75-2.42,5.21-4.9a13.67,13.67,0,0,0-.42-6.64Z" style="fill:#263238"></path><path d="M387.74,328.67c.88-.06.71,3.73,1.45,7.41.8,3.94,2.25,5.42,2.94,8.64.79,3.69.68,5.4-.67,7.88s-6.46,5.42-9.25,2.52c-2.28-2.37-2.55-5.3-2.6-9.08a84.65,84.65,0,0,0-.4-9.59c-.35-2.79-1.2-5.27-.46-5.69.09.41.18.92.26,1.32s.26,1.82.75,1.77a5.35,5.35,0,0,0-.06-1.06,1.28,1.28,0,0,1,.18-1,4.22,4.22,0,0,1,1.41-.74c.86-.27,2.38-.61,3.25-.8.44-.09.88-.17,1.32-.23a4.2,4.2,0,0,1,1.12,0,.67.67,0,0,1,.49.32,1,1,0,0,1,.08.42,2.46,2.46,0,0,0,.16.76c0,.11.13.23.25.19a.24.24,0,0,0,.13-.25c0-.45-.11-.78-.17-1.3,0-.24-.09-.57-.11-.81S387.78,328.9,387.74,328.67Z" style="fill:#455a64"></path><path d="M391.87,343.68c.12.53.86,4.05-.2,4.85s-2-1.87-2-1.87-2.85-.38-6.83,1.76c.25.55-.26,2.56-1.4,2.31s-1.83-4.31-1.84-4.37c.05,3.63.37,6.46,2.59,8.76,2.79,2.9,7.91,0,9.25-2.52s1.46-4.19.67-7.88C392.05,344.35,392,344,391.87,343.68Z" style="fill:#37474f"></path><path d="M389.38,347c.1,1.35,1.59.69,1.53-1.24s-1.52-6.33-1.72-9.63c-.32-4.54-.57-7.47-1.45-7.41,0,0,0,.09,0,.13l.23,1.89a7.17,7.17,0,0,1,.1.81c.2,2.77.31,8.16.74,10.66A37.92,37.92,0,0,1,389.38,347Z" style="fill:#37474f"></path><path d="M383.33,348.32a38.41,38.41,0,0,1-1.13-4.66c-.46-2.47-2-7.41-2.78-10.07a6,6,0,0,1-.41-1.51c-.08-.37-.16-.84-.24-1.23a.31.31,0,0,1,0-.08c-.54.31-.32,2.45,0,3.56s.66,2.3,1,3.89c1,3.13,1.11,7.85,1.72,9.65S383.71,349.61,383.33,348.32Z" style="fill:#37474f"></path><path d="M382.79,348.54a.27.27,0,0,0,.11-.05,12.22,12.22,0,0,1,6.72-1.54.35.35,0,0,0,.38-.26.26.26,0,0,0-.25-.32,12.64,12.64,0,0,0-7.18,1.65.28.28,0,0,0-.11.41A.31.31,0,0,0,382.79,348.54Z" style="fill:#263238"></path><path d="M381.87,345.69l.1,0a15,15,0,0,1,7.53-1.73.36.36,0,0,0,.37-.27.27.27,0,0,0-.26-.31,15.43,15.43,0,0,0-7.95,1.83.28.28,0,0,0-.13.4A.31.31,0,0,0,381.87,345.69Z" style="fill:#263238"></path><path d="M389.11,341.15a.38.38,0,0,0,.26-.23.26.26,0,0,0-.23-.34c-4-.65-7.78,1.66-7.94,1.76a.28.28,0,0,0-.11.4.35.35,0,0,0,.45.07s3.7-2.26,7.43-1.66A.33.33,0,0,0,389.11,341.15Z" style="fill:#263238"></path><path d="M388.71,338.54a.39.39,0,0,0,.27-.23.26.26,0,0,0-.22-.34,11.59,11.59,0,0,0-8.1,1.76.28.28,0,0,0-.09.41.34.34,0,0,0,.45,0,11.19,11.19,0,0,1,7.55-1.63Z" style="fill:#263238"></path><path d="M388.26,335.6a.34.34,0,0,0,.26-.22.26.26,0,0,0-.21-.35c-4.14-.79-8,1.74-8.16,1.85a.28.28,0,0,0-.09.41.34.34,0,0,0,.45,0s3.76-2.47,7.6-1.73Z" style="fill:#263238"></path><path d="M382.65,234.51c2.07,21.86,2.56,53.15,2.56,53.15.18,1.66,1.45,6.61,2.53,14.77,1,7.28,0,22.4,0,23.31,0,0-5.16,3.61-10,2.07,0,0-5.94-22.49-8.57-32.64-2.49-9.61-5.8-25.05-5.8-25.05l-1.88,15.71s.45,6.34.35,10.71c-.12,5.08-3.69,25.28-3.69,25.28s-5.76,3.26-10.79-.55c0,0-3.07-29.57-3.31-35.67-.48-12-.38-36.31,1.07-51Z" style="fill:#455a64"></path><path d="M363.4,270.12l-2.73-15.53s-5.8-.76-8.81-3.44c0,0,2,3.58,7.46,4.89L362,270.18l-.49,15.65Z" style="fill:#263238"></path><path d="M388,325.94c-1.17,1.65-6.12,3.42-10.42,2l-1-3.84c3.25,1,8.8.32,11.4-1.85Z" style="fill:#37474f"></path><path d="M358.25,322c-1.44,1.42-6.94,2.2-10.94,0l-.23-3.44c3,1.55,8.82,1.69,11.75,0Z" style="fill:#37474f"></path></g></g><g id="freepik--Top--inject-398"><g id="freepik--Arm--inject-398"><path d="M345.71,220c-2.78,1.12-14.82,5.2-14.82,5.2l2.21,8.17s11.08-1.66,16.9-3c6.45-1.49,7.81-2.71,6.5-10.77Z" style="fill:#c8856a"></path><path d="M352.33,194.08c-6.3,1-8.59,4.92-8,12.37.44,5.66,1.38,13.52,1.38,13.52,5,2.86,8,4,11.57,3.59Z" style="fill:#455a64"></path><g id="freepik--beer--inject-398"><g id="freepik--beers--inject-398"><g id="freepik--beer-bottle--inject-398"><path d="M326.48,239.56c0-.1-1.91-16-2-17.16s.92-2.79,1.28-3.5c.48-1,.32-2.2.27-3.72-.06-2.21.55-4.26.51-5.85a.62.62,0,0,1-.27-.55c0-.37.42-.55.41-.64a3.21,3.21,0,0,1,3.2-.38c0,.09.43.18.55.53l0,.12a.66.66,0,0,1-.16.47c.33,1.56,1.41,3.41,1.86,5.57.31,1.49.45,2.73,1.14,3.55.52.61,1.94,2,2.07,3.11s2,17.16,2,17.16h0c.08.68-.37,1.42-1.37,2.06a10,10,0,0,1-7.7.92C327.17,240.86,326.56,240.24,326.48,239.56Z" style="fill:#37474f"></path><path d="M327,209c-.38-.13-.59-.34-.62-.57v0c.12-.13.24-.21.23-.26a3.21,3.21,0,0,1,3.2-.38c0,.05.14.1.28.2v0c0,.23-.12.48-.46.7A3.41,3.41,0,0,1,327,209Z" style="fill:#263238"></path><path d="M326.48,210c0-.22,0-.43,0-.64a1.56,1.56,0,0,0,.43.22,3.87,3.87,0,0,0,3-.35,1.5,1.5,0,0,0,.37-.32c0,.2.1.41.16.63l0,0a1.46,1.46,0,0,1-.42.39,3.87,3.87,0,0,1-3,.35A1.27,1.27,0,0,1,326.48,210Z" style="fill:#263238"></path><path d="M326.38,208.16a1.78,1.78,0,0,1,.14-1.21v0l.05-.06a.68.68,0,0,1,.12-.12h0l.15-.11a3.15,3.15,0,0,1,2.4-.29l.18.08h0l.14.08.06.05,0,0a1.76,1.76,0,0,1,.41,1.16c0,.23-.12.48-.46.7a3.41,3.41,0,0,1-2.63.31C326.62,208.61,326.41,208.4,326.38,208.16Z" style="fill:#37474f"></path><path d="M329.4,207.5c.63-.4.57-.92-.14-1.17a3.15,3.15,0,0,0-2.4.29c-.62.4-.56.92.14,1.16A3.09,3.09,0,0,0,329.4,207.5Z" style="fill:#455a64"></path><path d="M329,207.37c.44-.28.4-.66-.1-.83a2.26,2.26,0,0,0-1.71.2c-.45.29-.4.66.1.84A2.23,2.23,0,0,0,329,207.37Z" style="fill:#263238"></path><path d="M325.05,222.33l2,17c.05.51.57,1,1.45,1.27a8.46,8.46,0,0,0,3.63.28,8.26,8.26,0,0,0,3.45-1.13c.79-.5,1.18-1.06,1.12-1.57,0,0-1.81-15.28-2-17a6,6,0,0,0-1.62-2.47l-.34-.39a5.31,5.31,0,0,1-1.06-2.8q-.09-.5-.18-1a.07.07,0,0,1,0-.05c0-.06,0-.12-.05-.18a1.19,1.19,0,0,0-.77-.6,4.47,4.47,0,0,0-3.45.41,1.22,1.22,0,0,0-.62.78v.22c0,.31,0,.64,0,1a5.27,5.27,0,0,1-.37,3c-.06.13-.15.29-.24.46A6.13,6.13,0,0,0,325.05,222.33Z" style="fill:#FBA834"></path><path d="M325.05,222.33l2,17c.05.51.57,1,1.45,1.27a8.46,8.46,0,0,0,3.63.28,8.26,8.26,0,0,0,3.45-1.13c.79-.5,1.18-1.06,1.12-1.57,0,0-1.81-15.28-2-17a6,6,0,0,0-1.62-2.47l-.34-.39a5.31,5.31,0,0,1-1.06-2.8q-.09-.5-.18-1a.07.07,0,0,1,0-.05c0-.06,0-.12-.05-.18a1.19,1.19,0,0,0-.77-.6,4.47,4.47,0,0,0-3.45.41,1.22,1.22,0,0,0-.62.78v.22c0,.31,0,.64,0,1a5.27,5.27,0,0,1-.37,3c-.06.13-.15.29-.24.46A6.13,6.13,0,0,0,325.05,222.33Z" style="opacity:0.2"></path><path d="M335.4,239.71c1.73-1.11,1.56-2.56-.39-3.23a8.66,8.66,0,0,0-6.66.79c-1.73,1.11-1.56,2.56.38,3.24A8.68,8.68,0,0,0,335.4,239.71Z" style="opacity:0.1"></path><path d="M326.61,215.08c.05.3.32.56.82.74a4.52,4.52,0,0,0,3.45-.41c.43-.28.64-.6.62-.9a.61.61,0,0,0-.05-.18,1.19,1.19,0,0,0-.77-.6,4.47,4.47,0,0,0-3.45.41,1.22,1.22,0,0,0-.62.78Z" style="fill:#FBA834"></path><path d="M326.61,215.08c.05.3.32.56.82.74a4.52,4.52,0,0,0,3.45-.41c.43-.28.64-.6.62-.9a.61.61,0,0,0-.05-.18,1.19,1.19,0,0,0-.77-.6,4.47,4.47,0,0,0-3.45.41,1.22,1.22,0,0,0-.62.78Z" style="opacity:0.4"></path><path d="M331.31,241.64a10,10,0,0,0,1.43-.47,5.31,5.31,0,0,0,2-1.27,1.72,1.72,0,0,0,.54-1.38s-1.9-16-2-17.16a8.64,8.64,0,0,0-1.62-3.16c-.73-1.1-.55-2.39-.86-3.88-.4-1.9-.94-3.48-1.29-4.89a.36.36,0,0,0-.13-.57,1,1,0,0,0-.4-.12.62.62,0,0,0-.12-1c1.23-.57,1.07-1.5-.48-1.56a2.87,2.87,0,0,1,1,.12l.18.08h0l.14.08.06.05,0,0a1.76,1.76,0,0,1,.41,1.16.41.41,0,0,1,0,.19.74.74,0,0,1,.32.37l0,.12a.66.66,0,0,1-.16.47c.33,1.56,1.41,3.41,1.86,5.57.31,1.49.45,2.73,1.14,3.55.52.61,1.94,2,2.07,3.11s2,17.16,2,17.16h0c.08.68-.37,1.42-1.37,2.06A9.67,9.67,0,0,1,331.31,241.64Z" style="opacity:0.2"></path><path d="M326.32,208.7c0-.1.22.36.75.55a4.44,4.44,0,0,0,2.23.14,4.56,4.56,0,0,1-2.1.09C326.32,209.23,326.25,208.88,326.32,208.7Z" style="fill:#fafafa;opacity:0.1"></path><path d="M326.7,206.8a1.06,1.06,0,0,0-.25.81,1.39,1.39,0,0,0,.12.75,2.33,2.33,0,0,0,1.88.4c-.85-.17-1.46-.31-1.68-.64A1.31,1.31,0,0,1,326.7,206.8Z" style="fill:#fafafa;opacity:0.1"></path><path d="M325.47,222.28l2,17.16c0,.38.48.74,1.21,1a8,8,0,0,0,3.42.27c-3.48.05-3.5-1.46-3.69-3L326.82,224c-.38-3.24.77-3.64,1.24-5s-.37-3.51-.28-5.56c.06-1.36.21-2.14.24-3a3.08,3.08,0,0,1-.53,0c-.05.46-.12.95-.19,1.44a19.36,19.36,0,0,0-.27,3.28l0,.73a6.77,6.77,0,0,1-.39,3.36c-.06.13-.15.29-.25.47A6,6,0,0,0,325.47,222.28Z" style="fill:#fafafa;opacity:0.2"></path></g></g></g><g id="freepik--Fingers--inject-398"><path d="M324.49,221.64c-.92.51-2.22,2.78-2,3.86l2.37,0-.39-3A4.52,4.52,0,0,1,324.49,221.64Z" style="fill:#af6152"></path><path d="M324.05,223.84c-1.16-.63-2.36,1.45-.93,3.17-.91.15-.61,1.8.36,2.79-.84.3-.25,2.13.8,2.95-.71.1-.41,1.71,1.25,2.43.89.38,2.18-.44.17-2.22,1.68.31.94-2.39-.52-2.76,2.19.33.83-2.38.08-2.78C326.55,226.79,326.39,225.1,324.05,223.84Z" style="fill:#c8856a"></path></g></g><g id="freepik--Chest--inject-398"><path d="M363.87,247.41c-1.46,0-3-.06-4.49-.17-12.43-.94-14.36-4.51-15.05-5.79,0-.16,1.07-21,1.4-30.2.43-12.38,1.69-14.07,4.35-16.15,1.73-1.36,9.23-2.83,14.73-3.08A81.82,81.82,0,0,1,383,196.09c2.49,4.11,2.66,10.07,2,14.69-.45,3-.94,12.32-1.18,16.35-.39,6.47-.3,10.26-.21,16.12C382.9,243.7,376.09,247.41,363.87,247.41Z" style="fill:#fafafa"></path></g><g id="freepik--chest--inject-398"><g id="freepik--Head--inject-398"><path d="M371.05,187.17a52,52,0,0,0,5.21-6.77c1.33-2.28,2.14-4.06,2.12-6.27,0-1.31-.74-3.12-1.69-3.55a6.07,6.07,0,0,0-4.06-7.79,20,20,0,0,1-2.64-.89c-1-.49-1.22-1.35-2-2.11-1.4-1.32-3.85-1.47-4.89.35-.9-1.3-2.22-1.34-3.76-1a2.6,2.6,0,0,0-2.15,2.83,2.74,2.74,0,0,0-4.17,1.28c-.18.88,0,1.63-.65,2.4a1.36,1.36,0,0,1-2.26,0c-.28,1.25.16,2.23,1.53,2.23a2.8,2.8,0,0,0-.48,2.37,2.6,2.6,0,0,0,2.25,1.92,4.52,4.52,0,0,0,.51,1.94,4.57,4.57,0,0,0,1.53,1.53,28.23,28.23,0,0,0,6.46,2.1l2.6.68c.15,0,.95.13,1,.27Z" style="fill:#263238"></path><path d="M375.38,184.92a3.35,3.35,0,0,1-3.75-.69l-.63,9.46c-.88,1.85-4.91,6.61-11.72,9.2-1.72-3.28-.82-8.11,0-9.29v-3.29a12.49,12.49,0,0,1-2.58-.21,5.79,5.79,0,0,1-4.43-4.63,25.31,25.31,0,0,1,.2-9.51,8,8,0,0,0,.24-2.29,10.8,10.8,0,0,1,.94-4.89c2.5-1.81,8.33-2.11,13.35,1.31-.76,3.06.32,5.57,2.5,6.86-.15.83-.36,2.93,1,3,1,0,1.12-1.21,2.19-2.25s3.45-1.21,4.29.45C378.15,180.43,377.6,183.74,375.38,184.92Z" style="fill:#c8856a"></path><path d="M359.28,190.31c3.49-.23,6.88-.35,8.82-2.77a22,22,0,0,0,2.3-4,16.87,16.87,0,0,1-1.75,5.08c-1,1.56-3.91,2.67-9.37,2.86Z" style="fill:#af6152"></path><path d="M362,177a1,1,0,0,0,.93,1,1,1,0,0,0,1-1,1,1,0,0,0-.94-1A1,1,0,0,0,362,177Z" style="fill:#263238"></path><path d="M362.83,173.93l2,1.32a1.26,1.26,0,0,0-.36-1.7A1.17,1.17,0,0,0,362.83,173.93Z" style="fill:#263238"></path><path d="M353.76,173.87l2.35-.52a1.15,1.15,0,0,0-1.39-.93A1.26,1.26,0,0,0,353.76,173.87Z" style="fill:#263238"></path><path d="M354,176.22a1,1,0,1,0,1-1A1,1,0,0,0,354,176.22Z" style="fill:#263238"></path><path d="M355.07,179.87l3.31,1.68,1.4-6.6C358.54,174.43,356.76,177.41,355.07,179.87Z" style="fill:#af6152"></path><path d="M362.08,183.31,358,184a2,2,0,0,0,2.34,1.8A2.18,2.18,0,0,0,362.08,183.31Z" style="fill:#af6152"></path><path d="M361.55,184a2.11,2.11,0,0,1,.51,0,2.16,2.16,0,0,1-1.76,1.78,1.88,1.88,0,0,1-.67,0A1.92,1.92,0,0,1,361.55,184Z" style="fill:#ffa8a7"></path></g></g><g id="freepik--arm--inject-398"><g id="freepik--arm--inject-398"><path d="M378.76,258.48a2.21,2.21,0,0,0-.48.57.63.63,0,0,0,.05.7.76.76,0,0,0,.32.17,2.75,2.75,0,0,0,2.22-.38,6.64,6.64,0,0,0,1.64-1.62,1.45,1.45,0,0,1,.56-.54c1.05-.48.5,1.25.41,1.66a17.28,17.28,0,0,1-1.08,3.35c-.28.85-2.45,2.75-3,3.53a1.77,1.77,0,0,0-.13,2.06c.38.37,1.22-.14,2.27-1.12a22.24,22.24,0,0,0,2.17-2.05c.4-.57.82-1.13.82-1.13a11.81,11.81,0,0,1-.88,2c-.38.57-1.82,2-2.28,2.69a1.6,1.6,0,0,0,.12,1.81c.25.28.37.7,1.75-.63a21.17,21.17,0,0,0,1.93-2,2,2,0,0,0,2-.59,20,20,0,0,0,2.16-3,2.79,2.79,0,0,0,1.71-1.37c.58-1.12,1.34-2.9,1.9-4.34s.35-5.15.69-7.7c.1-.78,1.33-10.61,2-16.1.86-7.16.56-8.61.13-10.75-1-5.05-1-4.58-2.79-11.53-1.45-5.6-1.78-6.86-2.52-9-1.12-3.34-2.55-4.84-7.26-6.69-2.67,2-3.77,7.17-2.36,17.05a97.25,97.25,0,0,0,4.46,13.81s.14,21.42.12,21.8a2.09,2.09,0,0,1-.88,1.75c-.57.47-1.22.85-1.77,1.35-1.79,1.63-2.23,4.35-3.89,6.12Z" style="fill:#c8856a"></path><path d="M385.21,267.56a13.11,13.11,0,0,0,2-2.95,16,16,0,0,0,1.26-3.34c-.46,1.1-.92,2.18-1.47,3.23A25.45,25.45,0,0,1,385.21,267.56Z" style="fill:#af6152"></path><path d="M389.36,264a6.29,6.29,0,0,0,.95-1.51,7.82,7.82,0,0,0,.57-1.69c-.3.52-.53,1.06-.78,1.59Z" style="fill:#af6152"></path><path d="M384.57,263.68a16,16,0,0,0,1.54-2.67,6.49,6.49,0,0,1-1.9,3.63Z" style="fill:#af6152"></path></g><path d="M383.12,222.16c4.3.08,8.73-.71,11.74-3.6-.35-1.44-.59-3.42-1.09-5.33-2.14-8.19-2.69-10.71-3.94-12.84-1-1.75-2.73-3.46-6.87-4.3-5.33,3.8-2.78,16.39-2.78,16.39Z" style="fill:#37474f"></path></g></g></g></g><g id="freepik--character-3--inject-398"><g id="freepik--character--inject-398"><g id="freepik--bottom--inject-398"><g id="freepik--bottom--inject-398"><polygon points="312.48 313.68 314.51 312.48 312.4 312.04 312.48 313.68" style="fill:#263238"></polygon><path d="M333.53,316.18s-25.49-9.7-25.68-8a2.41,2.41,0,0,0,.08,1l-.08-.08.67,3.15a7.21,7.21,0,0,0,4,1.38c0-.15-.05-1.1-.08-1.64a12.33,12.33,0,0,1,2.26,1c1.66,1,2.8,2.77,4.63,4.84,1.33,1.51,3.57,2.1,6.83,2.34,3.52.26,6.55-.64,7.35-1.66A2.59,2.59,0,0,0,333.53,316.18Z" style="fill:#263238"></path><path d="M332.81,315.64c-.26-.24-1.21-1.18-2.47-2.18-1.11-.87-2.41-2-3.78-2.86a13.87,13.87,0,0,1-1.87-1.38c-.46-.44-.91-.91-1.33-1.4a27.38,27.38,0,0,1-3.33-5c-.45-.84-1-2.07-.93-5.64.19-5.16.46-10,.75-16.25l-12.21,2.49c.51,3.33,1.38,9.22,1.71,11.4.5,3.32.5,5.37.11,6.91-.25,1-1.79,3.87-1.77,4.93,0,1.71,1.44,3.09,3,3.82,1.26.61,2.67.81,3.89,1.46a12.43,12.43,0,0,1,3.29,2.89,12.1,12.1,0,0,0,2.88,3,10.71,10.71,0,0,0,4.12,1.15,21.18,21.18,0,0,0,5.43-.11C332.81,318.47,334.66,317.38,332.81,315.64Z" style="fill:#ffbda7"></path><path d="M331.26,313.87c-1.12-.84-2.72-2.05-4.64-3.4a4.53,4.53,0,0,0-3.81.63c-3.55,2.23-4,5.09-4,5.09a5.31,5.31,0,0,0,3.17,2.48c4.37,1.6,11.93.46,11.87-1.55C333.83,315.84,332.63,314.9,331.26,313.87Zm-21.84-12.64-1.53,3.68a3.69,3.69,0,0,0,.3,3.86,5.64,5.64,0,0,0,3.89,2.33C313,307.22,311,302,309.42,301.23Z" style="fill:#37474f"></path><path d="M285.88,308.29c.67,1.17-.34,5.48-.25,8.57.08,2.81.69,7.71-.22,10.46-1.08,3.26-3.63,6.32-7.52,3.38-1.93-1.46-3.3-4.18-3.39-8.22-.06-2.82,1.22-6.49,2.25-9.9,1.19-4,1.66-6.13,1.66-6.13Z" style="fill:#263238"></path><path d="M279.16,286.79c-.36,6.39-.48,10.33-.53,14.52a46.74,46.74,0,0,1-.59,7.08c-.6,2.66-1.6,6.35-2,8.07-.59,2.4-1,3.92-.28,6.65a3.35,3.35,0,0,0,.25.62c1.09,2.27,4,4,4.9,3.79a1.58,1.58,0,0,0,1.63.62,1.16,1.16,0,0,0,.31-.07,1.66,1.66,0,0,0,.31-.12,3.18,3.18,0,0,0,1.6-2,4.57,4.57,0,0,0,.17-.59,21,21,0,0,0,.28-6.86c0-1.52.1-3.46.29-5.91a116.47,116.47,0,0,1,2.31-13.32c.68-2.55,2.1-7.59,3-11Z" style="fill:#ffbda7"></path><path d="M275.37,319.59c2.32-1,9-.94,10,2.39-.05,3.11-.26,6.24-2.07,7.88-3.25,2.94-5.89-.37-7.12-2.82A12.72,12.72,0,0,1,275.37,319.59Z" style="fill:#37474f"></path><path d="M289.54,200.92c-3.2,6.5-5,9.77-5.81,25.43-.78,15-1.51,27.73-1.76,29.85s-2.54,6.93-3.38,16.14c-1,10.52-.8,31.17-.8,31.17s.3,1.74,4.19,2.44a6.79,6.79,0,0,0,5.52-1s9.7-37.36,11-43.7c1.47-7,4.88-21.71,4.88-21.71l1.5,19a87.89,87.89,0,0,0,.51,17.47c1.15,9.22,3.72,21.41,3.72,21.41a9.58,9.58,0,0,0,5.37,1.91c4.22.08,5.36-1.2,5.36-1.2s2.06-32.68,2.26-43.14,1.46-37.18-1.47-52.71Z" style="fill:#37474f"></path><path d="M307.67,221.57l-4.26,18,1.5,19,.41-19.26,3.3-14.27c2.49-.56,8.17-3.48,9.8-7.77C314.53,221.2,307.67,221.57,307.67,221.57Z" style="fill:#263238"></path><path d="M289.14,275.9Q287.47,284,286,292.18q2.07-8,3.94-16.09c1.26-5.38,2.45-10.75,3.64-16.17s1.93-10.91,2.6-16.4,1.22-11,1.69-16.51c-.89,5.46-1.71,10.92-2.53,16.38s-1.69,10.91-2.83,16.3S290.23,270.48,289.14,275.9Z" style="fill:#263238"></path><path d="M317.53,248.32c.1,2.39.24,4.81.19,7.18s0,5.24-.07,7.64c0,0-.37,18-.52,22.79.57-4.78,1.51-25.56,1.68-30.41,0-4.88-.39-9.66-.8-14.47s-1-9.59-1.68-14.36l.84,14.42C317.29,243.52,317.43,245.92,317.53,248.32Z" style="fill:#263238"></path></g></g><g id="freepik--top--inject-398"><path d="M342.3,157.72c-.05-.42-.38-.46-.71-.38a2.43,2.43,0,0,0-1.23.79,15.72,15.72,0,0,0-1.29,2c-.67,1-1.73,2.68-2.85,3.22-.23.11-.74.27-.58-.17a10.54,10.54,0,0,0,.55-1.73,2.15,2.15,0,0,0-.36-1.73.75.75,0,0,0-.44-.3c-.26,0-.34.12-.42.31s-.22.37-.33.56c-.24.37-.48.75-.71,1.13a15.27,15.27,0,0,0-2.69,7.33c0,.38.21,3.26.26,4.93.1,1.48-.45,9.83-.45,9.83s-2.54-2.48-6.78-6.8a22.67,22.67,0,0,0-4.23-3.85c-2-1.32-5-1.71-6.29-1.91l3.48,14.4s9.13,7.32,14.49,10.41c4.71,2.71,6.41,1.26,7.5-.64s1.81-5.22-.38-14.8c-.23-1-.52-2.85-.7-3.86a23.06,23.06,0,0,1-.42-3.94,3.51,3.51,0,0,1,1.52-2.5,11.82,11.82,0,0,0,2.05-2.61,10.93,10.93,0,0,0,1.23-2.61,3.34,3.34,0,0,0,.28-1.38,9.75,9.75,0,0,1-.35-1.12c0-.46.14-.92.06-1.37a4,4,0,0,0-.45-1,1.81,1.81,0,0,1,.08-1.49A1.58,1.58,0,0,0,342.3,157.72Z" style="fill:#ffbda7"></path><path d="M331.05,183.53a25.11,25.11,0,0,0,.48,7.71s-2.43-2.86-1.52-8.73Z" style="fill:#f0997a"></path><path d="M335.54,165a8,8,0,0,1-.79,4.38,4.73,4.73,0,0,0,1.14-2.13A2.65,2.65,0,0,0,335.54,165Z" style="fill:#f0997a"></path><path d="M343.67,171.72a6.45,6.45,0,0,0-5.44,2.14,2,2,0,0,0-.5,2l.15.4a2.05,2.05,0,0,0,1.75,1.12,6.43,6.43,0,0,0,5.43-2.14,2.06,2.06,0,0,0,.51-2c0-.06-.13-.34-.16-.4A2,2,0,0,0,343.67,171.72Z" style="fill:#FBA834"></path><path d="M343.67,171.72a6.45,6.45,0,0,0-5.44,2.14,2,2,0,0,0-.5,2l.15.4a2.05,2.05,0,0,0,1.75,1.12,6.43,6.43,0,0,0,5.43-2.14,2.06,2.06,0,0,0,.51-2c0-.06-.13-.34-.16-.4A2,2,0,0,0,343.67,171.72Z" style="fill:#fff;opacity:0.30000000000000004"></path><path d="M339.47,177c-1.84-.28-2.39-1.68-1.24-3.14a6.45,6.45,0,0,1,5.44-2.14c1.84.27,2.39,1.68,1.23,3.13A6.45,6.45,0,0,1,339.47,177Z" style="fill:#FBA834"></path><path d="M339.47,177c-1.84-.28-2.39-1.68-1.24-3.14a6.45,6.45,0,0,1,5.44-2.14c1.84.27,2.39,1.68,1.23,3.13A6.45,6.45,0,0,1,339.47,177Z" style="fill:#fff;opacity:0.55"></path><path d="M340,173.73c-.85.57-.84,1.32-.15,1.62a2.82,2.82,0,0,0,3.2-1.41Z" style="fill:#FBA834;opacity:0.30000000000000004"></path><path d="M342.57,172a1.67,1.67,0,0,1,1.3,3,7.69,7.69,0,0,1-4.43,1.76,6.19,6.19,0,0,0,4.65-1.43C346.46,173.33,344.52,171.44,342.57,172Z" style="fill:#fff;opacity:0.30000000000000004"></path><g id="freepik--glass--inject-398"><path d="M334.81,145.09l-4.14,1.63-4.14,1.63s2.14,7.86,3.62,11.37A5.25,5.25,0,0,0,334.3,163a3.8,3.8,0,0,1,3,2.36l2.92,7.38a.83.83,0,0,1-.11.79,1.87,1.87,0,0,0-.35.83.13.13,0,0,0,0,.06c0,.38.24.69.78.77a2.73,2.73,0,0,0,2.31-.91c.34-.43.33-.85,0-1.1l-.08-.07a2,2,0,0,0-.79-.33.81.81,0,0,1-.61-.51l-2.92-7.38a3.83,3.83,0,0,1,.61-3.79,5.24,5.24,0,0,0,.8-5.23C338.61,152.29,334.81,145.09,334.81,145.09Z" style="fill:#FBA834"></path><path d="M334.81,145.09l-4.14,1.63-4.14,1.63s2.14,7.86,3.62,11.37A5.25,5.25,0,0,0,334.3,163a3.8,3.8,0,0,1,3,2.36l2.92,7.38a.83.83,0,0,1-.11.79,1.87,1.87,0,0,0-.35.83.13.13,0,0,0,0,.06c0,.38.24.69.78.77a2.73,2.73,0,0,0,2.31-.91c.34-.43.33-.85,0-1.1l-.08-.07a2,2,0,0,0-.79-.33.81.81,0,0,1-.61-.51l-2.92-7.38a3.83,3.83,0,0,1,.61-3.79,5.24,5.24,0,0,0,.8-5.23C338.61,152.29,334.81,145.09,334.81,145.09Z" style="fill:#fff;opacity:0.5"></path><path d="M335.22,162.78a6.46,6.46,0,0,1-3.32-.78,5.25,5.25,0,0,0,2.4,1,3.8,3.8,0,0,1,3,2.36C336.65,163.62,336.31,162.88,335.22,162.78Z" style="fill:#FBA834;opacity:0.2"></path><path d="M336.68,162a4.81,4.81,0,0,1-6.26-2.64h0c-1.25-3-3-9.23-3.41-10.73l3.81-1.51,3.81-1.5c.73,1.39,3.73,7.15,4.84,10.18h0A4.82,4.82,0,0,1,336.68,162Z" style="fill:#FBA834"></path><path d="M336.68,162a4.81,4.81,0,0,1-6.26-2.64h0c-1.25-3-3-9.23-3.41-10.73l3.81-1.51,3.81-1.5c.73,1.39,3.73,7.15,4.84,10.18h0A4.82,4.82,0,0,1,336.68,162Z" style="fill:#fff;opacity:0.30000000000000004"></path><path d="M339.31,155.81h0a4.71,4.71,0,0,1-8.76,3.45h0c-.6-1.41-1.31-3.6-1.94-5.65,0,0,0,0,0-.06-.15-.56.2-1.21,1.06-1.8a8.75,8.75,0,0,1,6.22-1.07l.29.09a2.51,2.51,0,0,1,1.34.92.93.93,0,0,1,.05.1s0,0,0,0C338.28,153.29,338.92,154.73,339.31,155.81Z" style="fill:#FBA834"></path><path d="M339.31,155.81h0a4.71,4.71,0,0,1-8.76,3.45h0c-.6-1.41-1.31-3.6-1.94-5.65,0,0,0,0,0-.06-.15-.56.2-1.21,1.06-1.8a8.75,8.75,0,0,1,6.22-1.07l.29.09a2.51,2.51,0,0,1,1.34.92.93.93,0,0,1,.05.1s0,0,0,0C338.28,153.29,338.92,154.73,339.31,155.81Z" style="fill:#fff;opacity:0.85"></path><path d="M337.92,154.45c-.38-.88-1.05-2.3-1.7-3.66l-.05,0-.29-.09a6,6,0,0,0-1.23-.17c1.65,3.41,2.91,6,3,7.85.05,1-.56,2.11-.67,3.3h0a4,4,0,0,0,.57-.32l0,0,.35-.27,0,0,.1-.09h0c.09-.21.2-.44.31-.68C339.38,158.1,338.85,156.57,337.92,154.45Z" style="fill:#f5f5f5"></path><path d="M336.52,153.69a8.63,8.63,0,0,1-6.38,1,2.12,2.12,0,0,1-1.5-1.05s0,0,0-.06,0,0,0-.06c-.15-.56.2-1.21,1.06-1.8a8.75,8.75,0,0,1,6.22-1.07l.16,0a2.29,2.29,0,0,1,1.44.92.08.08,0,0,1,0,0h0C337.81,152.29,337.49,153,336.52,153.69Z" style="fill:#fafafa"></path><path d="M333.44,148c2.21,4.71,4.09,8,4.21,10.37.08,1.49-1.2,3-.46,4.9l3.59,9.09a2.7,2.7,0,0,0,.91,1.27c.36.36.06,1.1-.93,1.28a2.42,2.42,0,0,0,1.85-.68c.41-.51.15-1-.47-1.2s-.67,0-1.2-1.31-2.75-7-3-7.67c-.6-1.53-.24-2.24.48-3.8,1-2.14.46-3.67-.47-5.79s-3.5-7.41-3.5-7.41Z" style="fill:#fff;opacity:0.30000000000000004"></path><path d="M328.41,149.56c-2-.29-2.58-1.8-1.33-3.37a7,7,0,0,1,5.85-2.31c2,.29,2.58,1.81,1.33,3.38A6.94,6.94,0,0,1,328.41,149.56Z" style="fill:#FBA834"></path><path d="M328.41,149.56c-2-.29-2.58-1.8-1.33-3.37a7,7,0,0,1,5.85-2.31c2,.29,2.58,1.81,1.33,3.38A6.94,6.94,0,0,1,328.41,149.56Z" style="fill:#fff;opacity:0.6000000000000001"></path><path d="M331.47,148.75a6,6,0,0,1-3,.43,1.54,1.54,0,0,1-1.09-2.75,6,6,0,0,1,2.49-1.73,6,6,0,0,1,3-.44A1.54,1.54,0,0,1,334,147,6.15,6.15,0,0,1,331.47,148.75Z" style="fill:#FBA834"></path><path d="M331.47,148.75a6,6,0,0,1-3,.43,1.54,1.54,0,0,1-1.09-2.75,6,6,0,0,1,2.49-1.73,6,6,0,0,1,3-.44A1.54,1.54,0,0,1,334,147,6.15,6.15,0,0,1,331.47,148.75Z" style="fill:#fff;opacity:0.30000000000000004"></path></g><path d="M335.83,159.74a.75.75,0,0,0-.44-.3c-.26,0-.34.12-.42.31s-.22.37-.33.56c-.24.37-.48.75-.71,1.13a15.27,15.27,0,0,0-2.69,7.33l4.4-5.57a10.54,10.54,0,0,0,.55-1.73A2.15,2.15,0,0,0,335.83,159.74Z" style="fill:#ffbda7"></path><g id="freepik--head--inject-398"><path d="M319.28,153.86l.08-.26a17.77,17.77,0,0,0,.87-2.83c.28-2-.7-3.93-1.88-5.55a18.12,18.12,0,0,0-9.89-7,17.58,17.58,0,0,0-3.61-.53c-4.24-.22-10.29,1.28-11.54,6-.14.56-.06.75-.44,1s-.57.23-.82.43a5.84,5.84,0,0,0-1.71,2.2,8.56,8.56,0,0,0-.55,4.23c.14,1.62.42,3.29-.33,4.81-.67,1.36-1.86,2.38-2.54,3.73a5.63,5.63,0,0,0,3,7.8,1.71,1.71,0,0,1-.6-2.29,4.32,4.32,0,0,0,2.4,2.42,8.53,8.53,0,0,0,3.93.3,3.5,3.5,0,0,1-1.41-1.34,14.16,14.16,0,0,0,5.13,1.72,9.68,9.68,0,0,0,3.35.09,7.2,7.2,0,0,1,1.12-.35,5,5,0,0,1,1.09.33,11.83,11.83,0,0,0,2.5.39,12.06,12.06,0,0,0,4.69-.67,3.63,3.63,0,0,0,2.54-2.24,3.28,3.28,0,0,1,.31,2.22,7,7,0,0,0,4-5.53,7.68,7.68,0,0,0-1.7-6.21,3,3,0,0,0,3.58-1.13c-.39.48-1.24.22-1.52-.32A2.2,2.2,0,0,1,319.28,153.86Z" style="fill:#263238"></path><path d="M313.26,146.3s2.6,2.33,2.63,10.92c0,6.17-1.16,8.46-3.05,9.43a9.82,9.82,0,0,1-4.5.79v2.7s6.28,6.38,1.3,7.17c-2.65.43-5.29-.83-7.62-2.2a12.7,12.7,0,0,1-3.89-4v-7.53a3,3,0,0,1-3.77-.26,4.35,4.35,0,0,1-1.08-5.76c1.19-1.6,3.24-1.29,4.49.58,0,0,2,.64,1.67-2,0,0,1.52-.66,2.22-3.33.36-1.37-1-4.08.05-5.11,1.62-1.17,4.6.7,7.44.7C310.62,148.43,312.21,146.54,313.26,146.3Z" style="fill:#ffbda7"></path><path d="M306.83,160.59l3.05,1a1.57,1.57,0,0,1-2,1.1A1.67,1.67,0,0,1,306.83,160.59Z" style="fill:#b16668"></path><path d="M307.16,161.39a1.34,1.34,0,0,1,1.48,1.22.22.22,0,0,1,0,.08,1.51,1.51,0,0,1-.73,0,1.62,1.62,0,0,1-1.09-1.18A1.3,1.3,0,0,1,307.16,161.39Z" style="fill:#f28f8f"></path><path d="M313.82,152.78l-2-1a1.06,1.06,0,0,1,1.46-.5A1.16,1.16,0,0,1,313.82,152.78Z" style="fill:#263238"></path><path d="M305.28,152.29l-1.85,1.19a1,1,0,0,1,.29-1.51A1.15,1.15,0,0,1,305.28,152.29Z" style="fill:#263238"></path><polygon points="308.34 153.36 309.67 159.43 312.77 157.77 308.34 153.36" style="fill:#f0997a"></polygon><path d="M308.34,167.44c-5-.36-7.5-1.54-8.49-3.29a5.12,5.12,0,0,0,2.16,3.14,15.53,15.53,0,0,0,6.33,1.44Z" style="fill:#f0997a"></path><path d="M311.86,154.09a1,1,0,0,0,.92,1.06,1,1,0,0,0,1.05-.89,1,1,0,0,0-.93-1.06A1,1,0,0,0,311.86,154.09Z" style="fill:#263238"></path><path d="M304.71,154.86a1,1,0,0,0,.93,1.07,1,1,0,0,0,1.05-.9,1,1,0,0,0-.93-1.06A1,1,0,0,0,304.71,154.86Z" style="fill:#263238"></path></g><g id="freepik--chest--inject-398"><path d="M298.14,168.63v-.41c-1.14,0-.17,3.25-4.15,4.84a15.63,15.63,0,0,1-4.08,1.29c-.87,2.34-3.77,6.27-2.8,11.63s2.43,10.38,2.57,12.91c.09,1.61-4,9.54-4,9.54s7.16,6.95,21.14,6.34,15-6.06,15-6.06-1.13-7.06-1.53-9.59l.18-6.68s5.18-5.51,2.5-10.79c-3.11-6.12-9.25-10.68-9.25-10.68-1.43-.37-3.29-.47-4.42-1.15-.57-.35-.36-1.68-1-1.56v.47C307,170.28,299.08,170.17,298.14,168.63Z" style="fill:#FBA834"></path><path d="M307.84,173.24a16.64,16.64,0,0,1-4.86.68,28.43,28.43,0,0,1-4.78-.72s-.05.06,0,.08a9.77,9.77,0,0,0,4.77,1.07,12.27,12.27,0,0,0,4.89-1C307.89,173.36,307.9,173.22,307.84,173.24Z" style="opacity:0.30000000000000004"></path></g><path d="M292.43,173.65c-5,.8-6.35.79-8.89,4.08s-7.57,12-10.41,17.11c-2.43,4.39-4.11,9-2.66,11.42l9.51-2.8,9.8-12.78S296.09,182.73,292.43,173.65Z" style="fill:#ffbda7"></path><path d="M284.49,197.76c-1.16,1-2.26,1.15-4.66,1.57-2.23.39-4.77.65-6.55,2.48.89-1.9,2.24-2.59,5.09-3.31s6.91-1.38,6.91-1.38Z" style="fill:#f0997a"></path><path d="M284.49,197.76c-1.16,1-2.26,1.15-4.66,1.57-2.23.39-4.77.65-6.55,2.48-1.56,1.61-3.68,2.8-2.81,4.45.51,1,1.93,2.54,5.51,3,2.71.32,5-1.16,8.2-2.33,2.71-1,4.17-1.7,4.17-1.7Z" style="fill:#ffbda7"></path><path d="M288.59,200.6c-.77-1.2-.74-2.24-2-3.38s-2.21-1.31-3.59-2.44-2.56-1.79-3.81-1.66-1.22.84-.46,1.58,2.12,1.8,3,2.79,1.82,1.64,1.54,3a61,61,0,0,1-1.81,6.2c-.77,2.17-1.59,3.88-1.48,4.16s1,.59,1.91-.53a40.71,40.71,0,0,0,2.58-5.5s-.24,3.24-.52,5.45-.57,3.88-.61,4.36,1.58.45,2.17-1.14a51.26,51.26,0,0,0,1.31-6.5s.81,2.48,1.33,4.09,1.12,3.77,1.35,4.32,1.39-.09,1.43-1.44a26.19,26.19,0,0,0-.94-4.89s1.56,2.54,1.87,2.82,1.42.34,1.36-1.17c0-1-.53-1.76-1.75-4a12.23,12.23,0,0,1-1.37-3.92C289.67,201.57,289.15,201.47,288.59,200.6Z" style="fill:#ffbda7"></path><path d="M285.5,213.47a12.2,12.2,0,0,0,.49-1.59c.13-.54.26-1.08.37-1.62q.33-1.63.6-3.27l-.28,0,1.24,3.9,1.21,3.91.17.49a1,1,0,0,0,.14.28.49.49,0,0,0,.34.14,1.25,1.25,0,0,0,.93-.63,2.11,2.11,0,0,0,.32-1,5.1,5.1,0,0,0-.07-1,31.25,31.25,0,0,0-1-4c.31,1.32.59,2.66.77,4a2.64,2.64,0,0,1-.27,1.89,1,1,0,0,1-.69.49c-.12,0-.15,0-.21-.22l-.16-.48c-.4-1.3-.75-2.62-1.19-3.92L287,206.92a.14.14,0,0,0-.18-.09.14.14,0,0,0-.1.12c-.14,1.09-.31,2.19-.49,3.28A25.91,25.91,0,0,1,285.5,213.47Z" style="fill:#f0997a"></path><path d="M288.59,200.6c-.49-.73-.71-1.59-1.17-2.33a5.89,5.89,0,0,0-1.88-1.77c-.73-.46-1.53-.84-2.23-1.37a14.59,14.59,0,0,0-2.14-1.48,3.35,3.35,0,0,0-2.45-.34c-.19.07-.37.18-.41.34a.63.63,0,0,0,.12.53,4.71,4.71,0,0,0,.88.91c.65.58,1.32,1.14,1.95,1.75.32.3.61.64.91.95a7.71,7.71,0,0,1,.87,1,2.09,2.09,0,0,1,.4,1.3,10.12,10.12,0,0,1-.26,1.31c-.22.85-.45,1.69-.7,2.53-.5,1.67-1.07,3.33-1.73,4.95-.16.4-.33.81-.48,1.21a3.7,3.7,0,0,0-.18.6c-.06.13.14.23.32.27a1.35,1.35,0,0,0,1.08-.41,4.07,4.07,0,0,0,.73-1,50.8,50.8,0,0,0,2.16-4.75l.22-.52-.05.56c-.14,1.64-.29,3.28-.5,4.91-.1.82-.24,1.63-.35,2.44l-.37,2.45.31-2.45c.11-.82.22-1.63.31-2.45.17-1.64.31-3.28.43-4.92l.16,0c-.65,1.62-1.3,3.24-2.11,4.8a4.12,4.12,0,0,1-.78,1.09,1.55,1.55,0,0,1-1.28.47.81.81,0,0,1-.35-.14.34.34,0,0,1-.15-.16.31.31,0,0,1,0-.13v-.1A4.11,4.11,0,0,1,280,210c.15-.42.31-.82.47-1.23.65-1.61,1.21-3.26,1.71-4.93.25-.83.49-1.67.7-2.51a8.56,8.56,0,0,0,.26-1.26,1.86,1.86,0,0,0-.35-1.15,7.68,7.68,0,0,0-.84-1c-.31-.32-.59-.65-.9-1-.62-.6-1.28-1.16-1.94-1.74a5.06,5.06,0,0,1-.92-1,.86.86,0,0,1-.13-.71.83.83,0,0,1,.55-.47,3.51,3.51,0,0,1,2.6.38A14.34,14.34,0,0,1,283.4,195c.68.53,1.47.91,2.2,1.4a6,6,0,0,1,1.86,1.83C287.91,199,288.11,199.86,288.59,200.6Z" style="fill:#f0997a"></path><path d="M284.41,200.5a3.21,3.21,0,0,0,3.5.31C287.57,201.9,285.21,202.08,284.41,200.5Z" style="fill:#f0997a"></path><path d="M293.07,211.54c-.19.17-.66.14-1-.29a26.19,26.19,0,0,1-1.44-2.38c-.35-.62-1.52-2.79-1.52-2.79l.86,3s1.56,2.54,1.87,2.82A.81.81,0,0,0,293.07,211.54Z" style="fill:#f0997a"></path></g></g></g><g id="freepik--musical-notes--inject-398"><g id="freepik--musical-notes--inject-398"><path d="M154.1,47.85a2.4,2.4,0,0,0-.72-.44,2.48,2.48,0,1,0,1.44,3.2l3-7.93,8.79,1h0l-3,7.87a2.47,2.47,0,1,0,.72,2.76h0l5-13.13L157.48,39Z" style="fill:#e0e0e0"></path><path d="M106,64.93,93.31,55a6.18,6.18,0,0,1,1-2.33,13.36,13.36,0,0,1,2.36-2.45A23.43,23.43,0,0,0,100,47.14a5.66,5.66,0,0,0,1.39-4.22,6,6,0,0,1-1.87,1.87c-1.81,1.13-4.45,1.15-6.45,1.89-3,1.09-4.5,3.29-5.83,6.39,2.22,1.69,4.4,3.44,6.6,5.16L99,62.28l2.3,1.9a5.62,5.62,0,0,0-2,1.57,4.7,4.7,0,1,0,6.6-.82Z" style="fill:#f0f0f0"></path><path d="M118.48,432.18c-1.9-2.18-4.26-2.75-7.32-2.87-.71,2.44-1.49,4.86-2.23,7.28l-1.75,5.71-.86,2.57a5,5,0,0,0-2-1.15,4.27,4.27,0,1,0,2.84,5.33l4.29-14a5.48,5.48,0,0,1,2.3.1,11.37,11.37,0,0,1,2.85,1.21,21.71,21.71,0,0,0,3.72,1.82,5.17,5.17,0,0,0,4-.19,5.22,5.22,0,0,1-2.2-1C120.63,435.87,119.76,433.64,118.48,432.18Z" style="fill:#f0f0f0"></path><path d="M50.79,92l10-5.81h0l2.95,10.6a3.36,3.36,0,0,0-1.09.1,3.24,3.24,0,1,0,4,2.25h0L61.7,81.41l-14.15,7,3.3,11.93a3.45,3.45,0,0,0-1.1.1,3.24,3.24,0,1,0,4,2.25Z" style="fill:#e0e0e0"></path><path d="M44.41,400.67l1,11a2.89,2.89,0,1,0,2.17,2.54l-.85-9.89,9.73-3.48h0l.86,9.8a2.89,2.89,0,1,0,2.16,2.54h0L58,396.86Z" style="fill:#e0e0e0"></path><path d="M449,79l-2,13.8a3.58,3.58,0,0,0-1.18-.4,3.65,3.65,0,1,0,3.1,4.14l1.81-12.37,12.93-1.46h0L461.9,95a3.57,3.57,0,0,0-1.18-.39,3.65,3.65,0,1,0,3.09,4.13h0l3-20.47Z" style="fill:#e0e0e0"></path><path d="M395.68,69.66c-1.95-.31-3.42.42-5.08,1.69.68,1.58,1.33,3.19,2,4.78l1.57,3.75.67,1.72a3.57,3.57,0,0,0-1.54.25,2.91,2.91,0,1,0,3.81,1.56l-3.84-9.19a3.8,3.8,0,0,1,1.25-1,8.41,8.41,0,0,1,2-.61,14.22,14.22,0,0,0,2.74-.66,3.5,3.5,0,0,0,2-1.85,3.67,3.67,0,0,1-1.58.44C398.41,70.66,397,69.87,395.68,69.66Z" style="fill:#f0f0f0"></path><path d="M442.29,393.54c-1.88-2.15-4.21-2.71-7.24-2.83-.71,2.41-1.47,4.8-2.21,7.2-.57,1.88-1.15,3.77-1.73,5.65-.05.18-.85,2.54-.85,2.54a5.1,5.1,0,0,0-1.95-1.14,4.22,4.22,0,1,0,2.81,5.27l4.24-13.82a5.54,5.54,0,0,1,2.28.09,11.91,11.91,0,0,1,2.82,1.2,21.29,21.29,0,0,0,3.68,1.81,5.13,5.13,0,0,0,4-.19,5.46,5.46,0,0,1-2.17-1C444.41,397.19,443.55,395,442.29,393.54Z" style="fill:#f0f0f0"></path><path d="M353.71,49.22,348.63,31,334,38.15l3.4,12.31a3.29,3.29,0,0,0-1.12.11,3.34,3.34,0,1,0,4.11,2.32l-3-11,10.29-6h0l3,10.93a3.64,3.64,0,0,0-1.13.1,3.35,3.35,0,1,0,4.12,2.33Z" style="fill:#e0e0e0"></path><path d="M377.48,447.18l-5.08-18.25-14.6,7.18,3.4,12.32a3.12,3.12,0,0,0-1.13.1,3.34,3.34,0,1,0,4.12,2.32l-3.05-11,10.31-6h0l3,10.94a3.12,3.12,0,0,0-1.13.1,3.34,3.34,0,1,0,4.12,2.32Z" style="fill:#e0e0e0"></path></g></g></svg>
