<svg width="22" height="22" viewBox="0 0 22 22" fill="none" xmlns="http://www.w3.org/2000/svg">
<path d="M11.7987 5.79872C12.8986 5.98306 13.8977 6.50255 14.6953 7.29856C15.493 8.09456 16.0093 9.09165 16.1982 10.1893M11.9666 2.19995C13.9229 2.53092 15.7071 3.45679 17.126 4.86865C18.545 6.28469 19.4685 8.06522 19.8002 10.0175M18.2721 17.7848C18.2721 17.7848 17.21 18.828 16.9497 19.1338C16.5257 19.5863 16.0261 19.7999 15.3712 19.7999C15.3082 19.7999 15.2411 19.7999 15.1781 19.7958C13.9313 19.7162 12.7726 19.2302 11.9036 18.8154C9.52752 17.6675 7.44108 16.0378 5.70729 13.9724C4.27575 12.2505 3.31859 10.6585 2.68469 8.9492C2.29427 7.90602 2.15153 7.09326 2.21451 6.32658C2.25649 5.83642 2.4454 5.43004 2.79384 5.08231L4.22537 3.6537C4.43108 3.46098 4.64938 3.35624 4.86348 3.35624C5.12796 3.35624 5.34206 3.51544 5.47639 3.64951C5.48059 3.6537 5.48479 3.65789 5.48899 3.66208C5.74507 3.90088 5.98856 4.14806 6.24464 4.41199C6.37478 4.54606 6.50912 4.68012 6.64345 4.81837L7.78952 5.9621C8.23452 6.40618 8.23452 6.81675 7.78952 7.26084C7.66778 7.38233 7.55023 7.50383 7.42849 7.62113C7.07585 7.98143 7.35287 7.70498 6.98764 8.03176C6.97924 8.04014 6.97085 8.04432 6.96665 8.0527C6.60562 8.413 6.67278 8.76491 6.74835 9.00371C6.75255 9.01628 6.75675 9.02885 6.76094 9.04142C7.05901 9.76201 7.47881 10.4407 8.11692 11.2493L8.12111 11.2535C9.27978 12.6779 10.5014 13.7881 11.849 14.6386C12.0211 14.7475 12.1974 14.8355 12.3653 14.9193C12.5165 14.9947 12.6592 15.0659 12.781 15.1413C12.7977 15.1497 12.8145 15.1622 12.8313 15.1706C12.9741 15.2418 13.1084 15.2754 13.2469 15.2754C13.5954 15.2754 13.8137 15.0575 13.885 14.9863L14.7079 14.1651C14.8507 14.0227 15.0773 13.8509 15.3418 13.8509C15.6021 13.8509 15.8162 14.0143 15.9463 14.1567C15.9505 14.1609 15.9505 14.1609 15.9547 14.1651L18.2679 16.4735C18.7003 16.9008 18.2721 17.7848 18.2721 17.7848Z" stroke="black" stroke-width="1.5" stroke-linecap="round" stroke-linejoin="round"/>
</svg>
