<svg xmlns="http://www.w3.org/2000/svg" viewBox="0 0 750 500"><g id="freepik--background-complete--inject-296"><path d="M534.75,43.29A29.84,29.84,0,0,1,542,40.16L543.44,33l12.06-.22,1.73,7.08a29.35,29.35,0,0,1,7.32,2.88l6.09-4,8.67,8.37-3.77,6.23a29.68,29.68,0,0,1,3.13,7.21l7.13,1.48L586,74.12l-7.07,1.74a29.91,29.91,0,0,1-2.88,7.31l4,6.1-8.37,8.67-6.23-3.78a29.46,29.46,0,0,1-7.21,3.13l-1.48,7.14-12.06.21L543,97.56a29.7,29.7,0,0,1-7.32-2.87l-6.09,4-8.67-8.38,3.77-6.22a29.84,29.84,0,0,1-3.13-7.21l-7.13-1.49-.21-12,7.07-1.74a30.22,30.22,0,0,1,2.88-7.31l-4-6.09,8.37-8.67,6.23,3.77Zm6.43,16.06A12.93,12.93,0,1,0,559.46,59,12.94,12.94,0,0,0,541.18,59.35Z" style="fill:#e0e0e0"></path><path d="M587.35,93.36a41.21,41.21,0,0,1,10-4.33l2.05-9.86L616,78.88l2.39,9.78a40.68,40.68,0,0,1,10.11,4L637,87.12l12,11.57-5.22,8.61a40.51,40.51,0,0,1,4.33,10l9.86,2,.3,16.66-9.79,2.4a41,41,0,0,1-4,10.11l5.52,8.42-11.58,12-8.61-5.22a40.83,40.83,0,0,1-10,4.33l-2.05,9.86-16.66.29-2.4-9.78a40.84,40.84,0,0,1-10.11-4l-8.42,5.52-12-11.57,5.22-8.61a40.51,40.51,0,0,1-4.33-10l-9.86-2.05-.3-16.66,9.79-2.4a41,41,0,0,1,4-10.11l-5.52-8.42,11.58-12,8.61,5.22Zm8.88,22.2a17.87,17.87,0,1,0,25.28-.45A17.87,17.87,0,0,0,596.23,115.56Z" style="fill:#ebebeb"></path><path d="M236.92,376.52a29.46,29.46,0,0,1,7.21-3.13l1.48-7.14,12.06-.21,1.73,7.08a29.35,29.35,0,0,1,7.32,2.88l6.09-4,8.67,8.38-3.77,6.23a29.68,29.68,0,0,1,3.13,7.21L288,395.3l.21,12.05-7.07,1.74a29.67,29.67,0,0,1-2.88,7.31l4,6.09-8.37,8.68-6.23-3.78a29.46,29.46,0,0,1-7.21,3.13l-1.48,7.14-12.06.21-1.73-7.08a29.13,29.13,0,0,1-7.31-2.88l-6.1,4-8.67-8.38,3.78-6.22a29.49,29.49,0,0,1-3.14-7.21l-7.13-1.49-.21-12.05,7.08-1.74a29.79,29.79,0,0,1,2.87-7.31l-4-6.09,8.37-8.67,6.23,3.77Zm6.43,16.06a12.93,12.93,0,1,0,18.28-.32A12.94,12.94,0,0,0,243.35,392.58Z" style="fill:#e0e0e0"></path><path d="M610.81,36.77a16.52,16.52,0,0,1,4-1.75l.82-4,6.73-.12,1,3.95a16.42,16.42,0,0,1,4.09,1.61l3.4-2.23,4.84,4.67-2.11,3.48a16.62,16.62,0,0,1,1.75,4l4,.83.12,6.73-3.95,1A16.21,16.21,0,0,1,633.87,59l2.23,3.41-4.67,4.84L628,65.17a16.62,16.62,0,0,1-4,1.75l-.83,4-6.73.12-1-4a16.21,16.21,0,0,1-4.08-1.61l-3.41,2.23L603.07,63l2.11-3.48a16.52,16.52,0,0,1-1.75-4l-4-.82L599.33,48l3.95-1a16.42,16.42,0,0,1,1.61-4.09l-2.23-3.4,4.67-4.84,3.48,2.11Zm3.59,9a7.22,7.22,0,1,0,10.21-.18A7.22,7.22,0,0,0,614.4,45.73Z" style="fill:#e0e0e0"></path><path d="M62.32,296.08a16.31,16.31,0,0,1,4-1.75l.83-4,6.73-.11,1,3.95a16.33,16.33,0,0,1,4.08,1.6l3.4-2.23,4.84,4.68-2.11,3.48a16.08,16.08,0,0,1,1.75,4l4,.83.11,6.73-4,1a16.33,16.33,0,0,1-1.6,4.08l2.23,3.4-4.68,4.85-3.48-2.11a16.46,16.46,0,0,1-4,1.75l-.83,4-6.73.12-1-3.95a16.75,16.75,0,0,1-4.08-1.61L59.43,327l-4.85-4.68,2.11-3.47a16.69,16.69,0,0,1-1.75-4L51,314l-.12-6.73,3.95-1a16.75,16.75,0,0,1,1.61-4.08l-2.23-3.4L58.85,294l3.47,2.11Zm3.59,9a7.22,7.22,0,1,0,10.21-.18A7.22,7.22,0,0,0,65.91,305Z" style="fill:#e0e0e0"></path><path d="M237.14,53.17A29.58,29.58,0,0,1,244.43,50l1.5-7.21,12.18-.22,1.76,7.16a29.91,29.91,0,0,1,7.39,2.91l6.16-4,8.77,8.46-3.82,6.3a30.13,30.13,0,0,1,3.17,7.29l7.21,1.5L289,84.34l-7.15,1.75a29.91,29.91,0,0,1-2.91,7.39l4,6.16-8.47,8.77-6.3-3.82a29.51,29.51,0,0,1-7.28,3.17l-1.5,7.21-12.19.22L245.45,108a29.83,29.83,0,0,1-7.4-2.91l-6.16,4-8.77-8.47,3.82-6.29a29.71,29.71,0,0,1-3.16-7.29l-7.22-1.5-.21-12.19,7.15-1.75a30,30,0,0,1,2.91-7.4l-4-6.15,8.46-8.77,6.3,3.82Zm6.49,16.23a13.08,13.08,0,1,0,18.49-.33A13.08,13.08,0,0,0,243.63,69.4Z" style="fill:#f5f5f5"></path><path d="M305.33,33.69a18.26,18.26,0,0,1,4.5-1.95l.93-4.46,7.53-.13,1.08,4.42a18.42,18.42,0,0,1,4.57,1.8l3.81-2.5,5.41,5.23L330.81,40a18.33,18.33,0,0,1,1.95,4.51l4.46.92.13,7.53L332.93,54a18.58,18.58,0,0,1-1.8,4.57l2.5,3.8-5.23,5.42-3.89-2.36a18.36,18.36,0,0,1-4.51,2l-.93,4.46-7.53.13-1.08-4.42a18.42,18.42,0,0,1-4.57-1.8l-3.8,2.49-5.42-5.23L299,59.17a18.29,18.29,0,0,1-2-4.5l-4.46-.93-.13-7.53,4.42-1.08a18.42,18.42,0,0,1,1.8-4.57l-2.5-3.81,5.24-5.42,3.89,2.36Zm4,10a8.08,8.08,0,1,0,11.43-.2A8.09,8.09,0,0,0,309.34,43.72Z" style="fill:#f5f5f5"></path><path d="M526.66,393.78a16.66,16.66,0,0,1,4-1.74l.83-4,6.73-.12,1,4a16.33,16.33,0,0,1,4.08,1.6l3.41-2.23,4.84,4.68-2.11,3.48a16.62,16.62,0,0,1,1.75,4l4,.83.12,6.73-3.95,1a16.42,16.42,0,0,1-1.61,4.09l2.23,3.4-4.67,4.84-3.48-2.11a16.31,16.31,0,0,1-4,1.75l-.83,4-6.73.12-1-4a16.33,16.33,0,0,1-4.08-1.6l-3.4,2.23L518.92,420l2.11-3.48a16.62,16.62,0,0,1-1.75-4l-4-.83-.12-6.74,4-1a16.42,16.42,0,0,1,1.61-4.09l-2.23-3.4,4.67-4.84,3.48,2.1Zm3.59,9a7.22,7.22,0,1,0,10.21-.18A7.23,7.23,0,0,0,530.25,402.75Z" style="fill:#f5f5f5"></path><path d="M690.39,445.24s-3.72-25.56-3.41-40.43,0-31.6,0-31.6h1.71s-1.16,29.52.1,47.32,4.59,24.71,4.59,24.71h-3" style="fill:#e0e0e0"></path><path d="M701.47,344.44a4.55,4.55,0,0,0-1.56-2.28,4.35,4.35,0,0,0-3.73,0c-5.17,1.83-9.76,11.48-11.86,16.56l6.88,23.15C703.6,370.39,705.75,355.3,701.47,344.44Z" style="fill:#e0e0e0"></path><path d="M699.51,343.1s0,.1-.1.3l-.34.84c-.3.73-.72,1.79-1.23,3.11-1,2.63-2.3,6.3-3.45,10.44s-1.94,8-2.43,10.74c-.25,1.39-.43,2.51-.55,3.29-.06.37-.1.66-.14.9a1.77,1.77,0,0,1-.07.31,1.11,1.11,0,0,1,0-.32c0-.24.06-.54.09-.9.09-.79.24-1.92.46-3.31a99.49,99.49,0,0,1,2.35-10.78,100.63,100.63,0,0,1,3.54-10.45c.53-1.31,1-2.36,1.32-3.07l.38-.82C699.44,343.19,699.5,343.09,699.51,343.1Z" style="fill:#ebebeb"></path><path d="M688.14,387.45a20.94,20.94,0,0,1-10.59-17.6c-.25-5.14,1.33-10.18,3.12-15a1.9,1.9,0,0,1,.73-1.09,1.85,1.85,0,0,1,1.75.28c4.68,2.66,7.52,7.74,9,12.91a26.26,26.26,0,0,1,1.06,10.63,17.67,17.67,0,0,1-5.1,9.88" style="fill:#ebebeb"></path><path d="M688.14,387.45a1,1,0,0,1,0-.31l0-.88c0-.78,0-1.89-.1-3.27a88.67,88.67,0,0,0-1.19-10.7c-.72-4.14-1.58-7.86-2.22-10.54l-.77-3.18c-.08-.35-.14-.64-.19-.87a.89.89,0,0,1,0-.31s0,.1.1.3.15.5.25.85c.21.74.51,1.82.85,3.16.69,2.67,1.59,6.39,2.31,10.55A77.88,77.88,0,0,1,688.2,383c0,1.38,0,2.5,0,3.28,0,.36,0,.65,0,.89A1.07,1.07,0,0,1,688.14,387.45Z" style="fill:#e0e0e0"></path><path d="M695.41,426.57c6.34,1.39,11.56,5.86,17.68,8,4,1.43,8.62,1.94,11.85,4.77-.77-1.95-2.61-3.26-4.4-4.37a78,78,0,0,0-16-7.65c-2.88-1-6-1.83-8.93-1" style="fill:#ebebeb"></path><path d="M686.24,432.21c-7.94-.12-16.3-6.88-24.2-7.29,8.27-2.67,20.11-.49,24.2,7.29" style="fill:#ebebeb"></path><path d="M689.35,413.17A25.84,25.84,0,0,1,702,412.3a77.78,77.78,0,0,1,12.39,3.37c-.41-2.75-2.64-4.82-4.73-6.66a32.75,32.75,0,0,0-5-3.82,11,11,0,0,0-6-1.69,9.43,9.43,0,0,0-6.58,3.32,10.89,10.89,0,0,0-2.82,6.35" style="fill:#ebebeb"></path><path d="M673.05,404.4c-5-4.27-12.57-3.85-19.14-3.7a155.84,155.84,0,0,1,29.68,18.5C683.86,414.55,679.36,409.79,673.05,404.4Z" style="fill:#455a64"></path><path d="M673.05,404.4c-5-4.27-12.57-3.85-19.14-3.7a155.84,155.84,0,0,1,29.68,18.5C683.86,414.55,679.36,409.79,673.05,404.4Z" style="fill:#ebebeb"></path><path d="M691.59,398.51a56.16,56.16,0,0,1,7.69-4.47c2.63-1.19,5.09-3.1,7.63-4.47,3.29-1.79,6.15-4.27,9.17-6.48s6.35-4.21,10-4.79a19.72,19.72,0,0,0-9.15.53,59.52,59.52,0,0,0-8.6,3.34c-3.9,1.76-7.87,3.56-11.06,6.41s-6.06,5.67-5.73,9.93" style="fill:#ebebeb"></path><path d="M712.94,432.21a.75.75,0,0,1-.25-.1l-.69-.36c-.6-.32-1.46-.79-2.54-1.34-.53-.28-1.13-.57-1.77-.88s-1.33-.62-2.06-.94a29.79,29.79,0,0,0-4.89-1.7,10.43,10.43,0,0,0-5.1-.13,15.13,15.13,0,0,0-2.15.64,11.42,11.42,0,0,0-1.75.9,11.56,11.56,0,0,0-2.18,1.8c-.46.5-.69.8-.71.78a1.12,1.12,0,0,1,.14-.23,7.27,7.27,0,0,1,.48-.62,9.91,9.91,0,0,1,2.17-1.9,10.36,10.36,0,0,1,1.76-.95,15.94,15.94,0,0,1,2.18-.68,10.65,10.65,0,0,1,5.22.11,29,29,0,0,1,4.93,1.74c.74.33,1.43.65,2.06,1s1.23.62,1.76.92c1.08.56,1.92,1.06,2.5,1.41l.67.41A1.11,1.11,0,0,1,712.94,432.21Z" style="fill:#e0e0e0"></path><path d="M680.32,428.28a1.56,1.56,0,0,1,.5.15,9.46,9.46,0,0,1,1.29.56,15.65,15.65,0,0,1,3.8,2.69,15.88,15.88,0,0,1,2.84,3.68,12.19,12.19,0,0,1,.61,1.27,1.72,1.72,0,0,1,.16.49s-.34-.65-.95-1.66a17.45,17.45,0,0,0-6.55-6.29C681,428.6,680.3,428.33,680.32,428.28Z" style="fill:#e0e0e0"></path><path d="M662.75,404a1.86,1.86,0,0,1,.34.1l.95.34,1.51.56c.58.21,1.22.53,1.94.85a45.89,45.89,0,0,1,10.34,6.59,50.54,50.54,0,0,1,4.82,4.74,53.92,53.92,0,0,1,3.42,4.34c.9,1.28,1.59,2.35,2.06,3.09.22.35.4.63.55.85a1.75,1.75,0,0,1,.17.31s-.08-.09-.22-.27-.34-.46-.59-.83c-.5-.72-1.21-1.77-2.14-3s-2.08-2.73-3.45-4.28a52.7,52.7,0,0,0-4.81-4.71A48.48,48.48,0,0,0,667.4,406c-.71-.32-1.34-.66-1.91-.89l-1.48-.6-.94-.38Z" style="fill:#e0e0e0"></path><path d="M701.26,408.7a2.62,2.62,0,0,1-.63-.08l-.73-.13c-.29-.06-.62-.06-1-.1a9.87,9.87,0,0,0-7.94,2.92,11.38,11.38,0,0,0-1.59,2,17.47,17.47,0,0,0-1.1,2.08,2.55,2.55,0,0,1,.17-.62,8.58,8.58,0,0,1,.76-1.57,10.29,10.29,0,0,1,1.58-2.05,9.61,9.61,0,0,1,2.53-1.91,9.71,9.71,0,0,1,5.61-1c.36.05.7.06,1,.13l.73.19A3.86,3.86,0,0,1,701.26,408.7Z" style="fill:#e0e0e0"></path><path d="M709.24,384l-.3.18-.89.48c-.77.42-1.88,1-3.22,1.83s-2.92,1.79-4.6,3a37.8,37.8,0,0,0-5.14,4.3,13.31,13.31,0,0,0-2.1,2.72c-.52,1-1,2-1.47,2.89a52.38,52.38,0,0,0-2.21,5,30.62,30.62,0,0,0-1.07,3.54c-.21.85-.28,1.33-.31,1.32a2.29,2.29,0,0,1,0-.35,8.8,8.8,0,0,1,.16-1,27.36,27.36,0,0,1,1-3.58,47.18,47.18,0,0,1,2.16-5.07q.69-1.41,1.47-2.91a13.13,13.13,0,0,1,2.14-2.79,36.11,36.11,0,0,1,5.19-4.31c1.69-1.2,3.29-2.17,4.65-3s2.49-1.36,3.27-1.74l.91-.44Z" style="fill:#e0e0e0"></path><path d="M687,408a3,3,0,0,1-.16-.67c-.1-.49-.21-1.1-.35-1.83a50.21,50.21,0,0,0-1.5-6,51.23,51.23,0,0,0-2.27-5.71l-.77-1.7a3.52,3.52,0,0,1-.26-.64,3.25,3.25,0,0,1,.36.59c.21.38.5.95.85,1.66a42.16,42.16,0,0,1,2.36,5.71,42.64,42.64,0,0,1,1.43,6c.12.78.21,1.41.26,1.85A4.38,4.38,0,0,1,687,408Z" style="fill:#e0e0e0"></path><path d="M686.4,389.92a21.69,21.69,0,0,0-2.58-8.57,28.35,28.35,0,0,0-19.18-14.3l17.76,26.47,2.29,4.72A13.62,13.62,0,0,0,686.4,389.92Z" style="fill:#e0e0e0"></path><rect x="670.58" y="442.08" width="41.29" height="7.32" style="fill:#ebebeb"></rect><polygon points="673.67 447.95 677.18 470.66 704.59 470.66 708.79 447.95 673.67 447.95" style="fill:#ebebeb"></polygon><path d="M711.85,449.41c0,.08-9.31.14-20.8.14s-20.8-.06-20.8-.14,9.31-.15,20.8-.15S711.85,449.33,711.85,449.41Z" style="fill:#e0e0e0"></path></g><g id="freepik--Floor--inject-296"><path d="M681,470.7c0,.15-138.37.26-309,.26s-309-.11-309-.26,138.34-.26,309.05-.26S681,470.56,681,470.7Z" style="fill:#263238"></path></g><g id="freepik--Tab--inject-296"><rect x="73.28" y="40.69" width="98.74" height="159.15" rx="3.06" style="fill:#fff"></rect><path d="M76.89,40.69h91.66A3.47,3.47,0,0,1,172,44.16V58.47a0,0,0,0,1,0,0H73.28a0,0,0,0,1,0,0V44.3A3.61,3.61,0,0,1,76.89,40.69Z" style="fill:#e0e0e0"></path><path d="M168.71,199.84a3.67,3.67,0,0,0,1.27-.28,3.34,3.34,0,0,0,2-3c0-3.41,0-8.42-.05-14.86,0-12.92,0-31.59-.08-54.66s0-50.56-.06-81.07V44.53a4.63,4.63,0,0,0-.12-1.36,3.1,3.1,0,0,0-3-2.24h-92A3.05,3.05,0,0,0,74,42.34a3,3,0,0,0-.48,1.41c0,.51,0,1.09,0,1.62V90.2c0,16.6,0,32.62,0,47.88s0,29.75,0,43.32c0,3.39,0,6.73,0,10v4.87a3.15,3.15,0,0,0,2.46,3.3,15.76,15.76,0,0,0,2.3.07H94l54.66.08,14.86,0,3.86,0,1.32,0-1.32,0-3.86,0-14.86.05L94,200H78.25a17.63,17.63,0,0,1-2.39-.07,3.56,3.56,0,0,1-2.78-3.7c0-1.61,0-3.23,0-4.87v-10c0-13.57,0-28.07,0-43.32s0-31.28,0-47.88q0-12.45,0-25.33V45.37c0-.55,0-1.07,0-1.66a3.55,3.55,0,0,1,.57-1.66,3.58,3.58,0,0,1,3-1.62h92.05a3.42,3.42,0,0,1,1.51.32,3.55,3.55,0,0,1,2,2.27,5.5,5.5,0,0,1,.13,1.49V46c0,30.51,0,58-.06,81.07s-.06,41.74-.08,54.66c0,6.44,0,11.45-.05,14.86a3.36,3.36,0,0,1-.76,2.09,3.51,3.51,0,0,1-1.31,1,3.46,3.46,0,0,1-1,.23Z" style="fill:#263238"></path><path d="M87.84,51a2.92,2.92,0,1,1-2.92-2.91A2.91,2.91,0,0,1,87.84,51Z" style="fill:#fff"></path><circle cx="93.89" cy="50.97" r="2.91" style="fill:#fff"></circle><circle cx="102.85" cy="50.97" r="2.91" style="fill:#fff"></circle><path d="M116.25,82.59H98.06a2,2,0,0,1-2-2h0a2,2,0,0,1,2-2h18.19a2,2,0,0,1,2,2h0A2,2,0,0,1,116.25,82.59Z" style="fill:#263238"></path><path d="M116.25,92.91H98.06a2,2,0,0,1-2-2h0a2,2,0,0,1,2-2h18.19a2,2,0,0,1,2,2h0A2,2,0,0,1,116.25,92.91Z" style="fill:#e0e0e0"></path><path d="M116.77,121.2H98.58a2,2,0,0,1-2-2h0a2,2,0,0,1,2-2h18.19a2,2,0,0,1,2,2h0A2,2,0,0,1,116.77,121.2Z" style="fill:#e0e0e0"></path><path d="M116.25,103.59H98.06a2,2,0,0,1-2-2h0a2,2,0,0,1,2-2h18.19a2,2,0,0,1,2,2h0A2,2,0,0,1,116.25,103.59Z" style="fill:#387ADF"></path><path d="M116.25,163.1H98.06a2,2,0,0,1-2-2h0a2,2,0,0,1,2-2h18.19a2,2,0,0,1,2,2h0A2,2,0,0,1,116.25,163.1Z" style="fill:#387ADF"></path><path d="M145.38,82.59H127.19a2,2,0,0,1-2-2h0a2,2,0,0,1,2-2h18.19a2,2,0,0,1,2,2h0A2,2,0,0,1,145.38,82.59Z" style="fill:#455a64"></path><path d="M165.07,92.91H127a1.89,1.89,0,0,1-1.8-2h0a1.89,1.89,0,0,1,1.8-2h38.05a1.89,1.89,0,0,1,1.8,2h0A1.89,1.89,0,0,1,165.07,92.91Z" style="fill:#263238"></path><path d="M164,103.59h-38.3a1.92,1.92,0,0,1-1.86-2h0a1.91,1.91,0,0,1,1.86-2H164a1.91,1.91,0,0,1,1.86,2h0A1.92,1.92,0,0,1,164,103.59Z" style="fill:#e0e0e0"></path><path d="M136.37,112.22H98.07a1.92,1.92,0,0,1-1.86-2h0a1.91,1.91,0,0,1,1.86-2h38.3a1.91,1.91,0,0,1,1.86,2h0A1.92,1.92,0,0,1,136.37,112.22Z" style="fill:#e0e0e0"></path><path d="M89.15,80.61a2,2,0,1,1-2-2A2,2,0,0,1,89.15,80.61Z" style="fill:#455a64"></path><path d="M89.15,70.73a2,2,0,1,1-2-2A2,2,0,0,1,89.15,70.73Z" style="fill:#455a64"></path><path d="M89.15,90.91a2,2,0,1,1-2-2A2,2,0,0,1,89.15,90.91Z" style="fill:#455a64"></path><path d="M89.15,101.61a2,2,0,1,1-2-2A2,2,0,0,1,89.15,101.61Z" style="fill:#455a64"></path><path d="M116.77,150.08H98.58a2,2,0,0,1-2-2h0a2,2,0,0,1,2-2h18.19a2,2,0,0,1,2,2h0A2,2,0,0,1,116.77,150.08Z" style="fill:#e0e0e0"></path><path d="M116.25,132.47H98.06a2,2,0,0,1-2-2h0a2,2,0,0,1,2-2h18.19a2,2,0,0,1,2,2h0A2,2,0,0,1,116.25,132.47Z" style="fill:#387ADF"></path><path d="M164,132.47h-38.3a1.92,1.92,0,0,1-1.86-2h0a1.91,1.91,0,0,1,1.86-2H164a1.91,1.91,0,0,1,1.86,2h0A1.92,1.92,0,0,1,164,132.47Z" style="fill:#e0e0e0"></path><path d="M136.37,141.1H98.07a1.92,1.92,0,0,1-1.86-2h0a1.91,1.91,0,0,1,1.86-2h38.3a1.91,1.91,0,0,1,1.86,2h0A1.92,1.92,0,0,1,136.37,141.1Z" style="fill:#e0e0e0"></path><path d="M89.15,130.49a2,2,0,1,1-2-2A2,2,0,0,1,89.15,130.49Z" style="fill:#455a64"></path><rect x="96.2" y="69.31" width="13.3" height="3.81" rx="0.96" style="fill:#455a64"></rect><path d="M116.25,173.61H98.06a2,2,0,0,1-2-2h0a2,2,0,0,1,2-2h18.19a2,2,0,0,1,2,2h0A2,2,0,0,1,116.25,173.61Z" style="fill:#263238"></path><path d="M145.38,173.61H127.19a2,2,0,0,1-2-2h0a2,2,0,0,1,2-2h18.19a2,2,0,0,1,2,2h0A2,2,0,0,1,145.38,173.61Z" style="fill:#455a64"></path><path d="M89.15,171.64a2,2,0,1,1-2-2A2,2,0,0,1,89.15,171.64Z" style="fill:#455a64"></path><path d="M89.15,181.14a2,2,0,1,1-2-2A2,2,0,0,1,89.15,181.14Z" style="fill:#455a64"></path><rect x="96.2" y="179.72" width="13.3" height="3.81" rx="0.96" style="fill:#455a64"></rect></g><g id="freepik--Device--inject-296"><path d="M581,64.76H143.29a13.67,13.67,0,0,0-13.67,13.66V387.6a13.66,13.66,0,0,0,13.67,13.66h168l-8.15,69.44H425l-6.8-69.44H581a13.66,13.66,0,0,0,13.66-13.66V78.42A13.67,13.67,0,0,0,581,64.76Z" style="fill:#455a64"></path><path d="M370.34,366c6,8.5-3.37,17.82-11.88,11.87a3,3,0,0,1-.73-.73c-5.94-8.51,3.37-17.82,11.87-11.88A3.06,3.06,0,0,1,370.34,366Z" style="fill:#263238"></path><path d="M151.54,73.76H572.77a9.7,9.7,0,0,1,9.7,9.7V341.9a0,0,0,0,1,0,0H141.84a0,0,0,0,1,0,0V83.46a9.7,9.7,0,0,1,9.7-9.7Z" style="fill:#fff"></path><path d="M463.28,401c0,.15-36.69.27-81.94.27s-82-.12-82-.27,36.68-.27,82-.27S463.28,400.87,463.28,401Z" style="fill:#263238"></path><path d="M442.64,249.38a5,5,0,0,0,5-5h0a5,5,0,0,0-5-5h-67a5,5,0,0,0-5,5h0a5,5,0,0,0,5,5Z" style="fill:#263238"></path><path d="M337.43,239.62H301.88l-16.46,10h52a5,5,0,0,0,5-5h0A5,5,0,0,0,337.43,239.62Z" style="fill:#263238"></path><path d="M543,112.31A7.14,7.14,0,0,0,543,98H532.19l-23.47,14.28Z" style="fill:#455a64"></path><polygon points="327.91 223.49 582.47 223.49 582.47 126.78 485.59 126.78 327.91 223.49" style="fill:#387ADF"></polygon><path d="M546.3,249.38a5,5,0,0,0,5-5h0a5,5,0,0,0-5-5h-67a5,5,0,0,0-5,5h0a5,5,0,0,0,5,5Z" style="fill:#263238"></path><path d="M568.56,72.86H151.17a9.4,9.4,0,0,0-9.33,9.47V341.75l433.71-268C575.55,73.19,568.56,72.86,568.56,72.86Z" style="fill:#ebebeb"></path><path d="M309,98.29a2.5,2.5,0,0,1,.44,0l1.3,0,5,0L334,98.1l27.13,0H371a12.17,12.17,0,0,1,2.07.09,7.37,7.37,0,0,1,6,5.46,7,7,0,0,1,.22,2.19,6.81,6.81,0,0,1-.43,2.17,7.43,7.43,0,0,1-6.94,4.88l-60.37-.08c-1,0-1.91,0-2.84,0a7.19,7.19,0,0,1-2.66-.61,7.33,7.33,0,0,1-3.57-3.39,7.25,7.25,0,0,1-.71-4.23,7.21,7.21,0,0,1,5.47-6,5.66,5.66,0,0,1,1.73-.16,12.07,12.07,0,0,0-1.7.26,7.16,7.16,0,0,0-4,2.73,6.92,6.92,0,0,0-1.27,3.25,7,7,0,0,0,6.71,7.85c.9,0,1.85,0,2.82,0l60.36-.07a6.91,6.91,0,0,0,6.46-4.54,6.79,6.79,0,0,0,.2-4A6.89,6.89,0,0,0,373,98.63a11.86,11.86,0,0,0-2-.09h-9.86L334,98.47l-18.3-.08-5,0-1.3,0Z" style="fill:#263238"></path><path d="M235.34,249.63l-.43,0-1.26,0-4.82,0-17.74.08-26.31.06-15.53,0a9.87,9.87,0,0,1-2.08-.12,5.44,5.44,0,0,1-1.95-.87,5.31,5.31,0,0,1-2.15-3.64,5.21,5.21,0,0,1,1.26-4.1,5.27,5.27,0,0,1,4-1.8l58.53.07,5.34,0h2.46a6.49,6.49,0,0,1,2.33.27,5.16,5.16,0,0,1,3.06,2.78,5.06,5.06,0,0,1,.24,3.48,5,5,0,0,1-1.48,2.37,5.05,5.05,0,0,1-1.77,1,5.15,5.15,0,0,1-1.23.24h-.43a7.35,7.35,0,0,0,1.63-.33,5.11,5.11,0,0,0,1.7-1.05,4.89,4.89,0,0,0-1.82-8.24,6.25,6.25,0,0,0-2.23-.24h-2.46l-5.34,0-58.53.08a4.75,4.75,0,0,0-2.77,8.6,4.64,4.64,0,0,0,1.76.78,9,9,0,0,0,2,.12h15.53l26.31.06,17.74.08,4.82.05,1.26,0Z" style="fill:#263238"></path><path d="M286.54,249.63a2.42,2.42,0,0,1-.63.05l-1.79,0-6.57.08-4.54,0a8.57,8.57,0,0,1-2.58-.21,5.38,5.38,0,0,1-2.35-1.47,5.24,5.24,0,0,1,1.1-8,5.37,5.37,0,0,1,3.13-.79l21.7.07,6.57.09,1.79,0a2.5,2.5,0,0,1,.62.06,4.25,4.25,0,0,1-.62,0l-1.79.05-6.57.08-21.7.08a4.83,4.83,0,0,0-4.73,2.86,4.81,4.81,0,0,0,3,6.46,8.06,8.06,0,0,0,2.45.21l4.54,0,6.57.08,1.79.05A3.15,3.15,0,0,1,286.54,249.63Z" style="fill:#263238"></path><path d="M170.65,92.09a1,1,0,0,1,.31,0l.92,0L175.4,92l13-.08,8.95,0a15.47,15.47,0,0,1,5,.47,10.42,10.42,0,0,1,2.81,18.48,11,11,0,0,1-2.81,1.4,11.82,11.82,0,0,1-3.14.48l-23.56,0c-1.81,0-3.57,0-5.3,0a10.13,10.13,0,0,1-4.85-1.38,10.51,10.51,0,0,1-3.44-3.21,10.37,10.37,0,0,1-1.6-4A10.27,10.27,0,0,1,166,93.1a10.13,10.13,0,0,1,3.39-1,8.9,8.9,0,0,1,.92,0,1.57,1.57,0,0,1,.32,0s-.43,0-1.22.14a10.35,10.35,0,0,0-3.32,1,10.06,10.06,0,0,0-4,3.71,10,10,0,0,0-1.32,7,10.07,10.07,0,0,0,1.56,3.88,10.34,10.34,0,0,0,3.33,3.06,9.91,9.91,0,0,0,4.65,1.3c1.7,0,3.47,0,5.28,0l23.55,0a11.1,11.1,0,0,0,3-.46,10.45,10.45,0,0,0,2.68-1.32,10,10,0,0,0,3.57-4.53,9.88,9.88,0,0,0-1.93-10.33,10,10,0,0,0-4.3-2.76,14.9,14.9,0,0,0-4.87-.48l-8.95,0-13-.09-3.52,0-.92,0A1.2,1.2,0,0,1,170.65,92.09Z" style="fill:#263238"></path><path d="M396.56,98.29a2.5,2.5,0,0,1,.44,0l1.29,0,5,0,18.29-.09,27.14,0h9.85a12.09,12.09,0,0,1,2.07.09,7.4,7.4,0,0,1,6,5.46,7,7,0,0,1,.22,2.19,7.09,7.09,0,0,1-.43,2.17,7.43,7.43,0,0,1-6.95,4.88l-60.37-.08c-1,0-1.9,0-2.83,0a7.14,7.14,0,0,1-2.66-.61,7.27,7.27,0,0,1-4.28-7.62,7.05,7.05,0,0,1,1.36-3.34,7.15,7.15,0,0,1,4.11-2.71,5.66,5.66,0,0,1,1.73-.16,12.29,12.29,0,0,0-1.71.26,7.15,7.15,0,0,0-4,2.73,6.93,6.93,0,0,0-1.28,3.25,7,7,0,0,0,4.17,7.29,7,7,0,0,0,2.54.56c.91,0,1.86,0,2.82,0l60.37-.07a6.91,6.91,0,0,0,6.46-4.54,6.36,6.36,0,0,0,.4-2,6.61,6.61,0,0,0-.2-2,6.89,6.89,0,0,0-5.61-5.09,12,12,0,0,0-2-.09H448.7l-27.14-.06-18.29-.08-5,0-1.29,0Z" style="fill:#263238"></path><path d="M511.77,112.57a.8.8,0,0,1-.27,0l-.77,0-3,0-11,.08-7.58,0-4.22,0c-.73,0-1.45,0-2.23,0a7.88,7.88,0,0,1-2.26-.6A7.4,7.4,0,0,1,484,98l36.21.07,11,.09,3,0,.78,0a.82.82,0,0,1,.26,0l-.26,0-.78,0-3,0-11,.08L484,98.55a6.9,6.9,0,0,0-3.35,13.17,7.53,7.53,0,0,0,2.11.58c.71,0,1.46,0,2.18,0h4.22l7.58,0,11,.09,3,0,.77,0A.94.94,0,0,1,511.77,112.57Z" style="fill:#263238"></path><path d="M332.08,223.74s-.3,0-.9,0l-2.67,0-10.36,0-39.07.07L141.84,224h-.24v-.24c0-29.7,0-62.4,0-96.71v-.25h29.84l223.86.08,67.84.08,18.44,0,4.8,0,1.63,0-1.63,0-4.8,0-18.44,0-67.84.08-223.86.08H141.84l.26-.26c0,34.31,0,67,0,96.71l-.24-.24,137.24.1,39.07.07,10.36,0,2.67,0Z" style="fill:#263238"></path><path d="M438.91,157.15c0,.14-66.45,15.16-148.47,33.55s-148.57,33.18-148.6,33,66.43-15.16,148.49-33.55S438.88,157,438.91,157.15Z" style="fill:#263238"></path><path d="M394.64,183.62c0,.14-56.65-12.41-126.45-28S141.81,127.18,141.84,127s56.64,12.42,126.46,28S394.67,183.48,394.64,183.62Z" style="fill:#263238"></path><path d="M231.67,282.86a12.92,12.92,0,0,0-2.91-.8,16.82,16.82,0,0,0-8.09,1c-3.32,1.12-6.43,4.08-9.29,7.67l-2.21,2.79a18.77,18.77,0,0,1-2.54,2.76,6.71,6.71,0,0,1-3.54,1.72,7.66,7.66,0,0,1-4-.78,20.58,20.58,0,0,0-3.68-1.32,14.13,14.13,0,0,0-3.76-.34,18.54,18.54,0,0,0-6.91,1.76,27,27,0,0,0-9.38,7.66,74.15,74.15,0,0,0-4.79,6.75l-1.23,1.9a3.48,3.48,0,0,1-.46.64,6.61,6.61,0,0,1,.37-.7l1.15-1.95a64,64,0,0,1,4.68-6.87,26.93,26.93,0,0,1,9.46-7.87,18.94,18.94,0,0,1,7.09-1.83,14.28,14.28,0,0,1,3.89.35,20.39,20.39,0,0,1,3.77,1.34,7.31,7.31,0,0,0,3.7.75,6.36,6.36,0,0,0,3.28-1.59,49.67,49.67,0,0,0,4.71-5.47,35.49,35.49,0,0,1,4.56-4.79,15.11,15.11,0,0,1,5-2.92,16.39,16.39,0,0,1,8.25-.82,9.37,9.37,0,0,1,2.17.63A4.09,4.09,0,0,1,231.67,282.86Z" style="fill:#263238"></path><path d="M206.94,283.19c-.05,0,0-.52-.28-1.41a5.86,5.86,0,0,0-2.16-3.14,5.69,5.69,0,1,0,0,9.11,5.86,5.86,0,0,0,2.16-3.14c.25-.89.23-1.42.28-1.42s0,.13,0,.38a4.55,4.55,0,0,1-.12,1.09,5.86,5.86,0,0,1-2.14,3.38,6.1,6.1,0,0,1-8.65-1.2,6.1,6.1,0,0,1,0-7.29,6.1,6.1,0,0,1,8.65-1.2,5.86,5.86,0,0,1,2.14,3.38,4.48,4.48,0,0,1,.12,1.08C207,283.06,207,283.19,206.94,283.19Z" style="fill:#263238"></path><rect x="267.34" y="261.33" width="74.35" height="67.53" rx="11.32" style="fill:#fff"></rect><circle cx="307.05" cy="280.83" r="7.31" transform="translate(-85.97 144.16) rotate(-23.27)" style="fill:#455a64"></circle><path d="M278.29,328.87h52.45a11,11,0,0,0,10.95-10.95v-30.5a23.12,23.12,0,0,0-8.39-1.34,19.16,19.16,0,0,0-11.77,4.9c-3,2.6-5.22,5.67-8,8.41-1.83,1.81-4.23,3.6-7.28,3.8-7.18.47-10.16-7.43-17.06-9a13.81,13.81,0,0,0-9.55,1.71c-5.2,3-7.62,8.17-12.29,11v10.95A11,11,0,0,0,278.29,328.87Z" style="fill:#455a64"></path><path d="M330.37,328.87a19.44,19.44,0,0,0,2.64-.38,11.28,11.28,0,0,0,6.26-4.13,11,11,0,0,0,2.14-5,18.91,18.91,0,0,0,.15-3.15c0-1.1,0-2.25,0-3.44,0-4.75,0-10.16,0-16.13s0-12.53,0-19.56c0-1.75,0-3.57-.05-5.35a11.06,11.06,0,0,0-1.74-5.07,11.26,11.26,0,0,0-4.06-3.75,11.48,11.48,0,0,0-5.52-1.32l-51.44,0a13,13,0,0,0-3.28.5,12.17,12.17,0,0,0-3,1.44,11.18,11.18,0,0,0-4,5.05,11.39,11.39,0,0,0-.74,3.15c-.08,1.06,0,2.18-.05,3.27v6.51c0,8.6,0,16.9,0,24.81v11.55a11.14,11.14,0,0,0,5,9,11.35,11.35,0,0,0,4.73,1.73,20.82,20.82,0,0,0,2.5.09h11.85l28.32.09,7.7,0,2,0,.68,0s-.23,0-.68,0l-2,0L320,329l-28.32.08-9.38,0h-2.47a20,20,0,0,1-2.55-.09,11.51,11.51,0,0,1-10.14-11.1c0-3.75,0-7.61,0-11.56,0-7.91,0-16.21,0-24.81V275c0-1.1,0-2.18.05-3.31a11.41,11.41,0,0,1,.77-3.3,11.68,11.68,0,0,1,4.22-5.29,12.44,12.44,0,0,1,3.11-1.51,13.25,13.25,0,0,1,3.43-.52l51.44,0a11.94,11.94,0,0,1,5.74,1.39,11.67,11.67,0,0,1,4.22,3.91,11.49,11.49,0,0,1,1.8,5.29c.1,1.85,0,3.61.05,5.38,0,7,0,13.58,0,19.56s0,11.38,0,16.13c0,1.19,0,2.34,0,3.44a18.44,18.44,0,0,1-.18,3.19,11.35,11.35,0,0,1-8.61,9.21,9.86,9.86,0,0,1-2,.27Z" style="fill:#263238"></path><rect x="372.63" y="261.33" width="74.35" height="67.53" rx="11.32" style="fill:#fff"></rect><circle cx="412.35" cy="280.83" r="7.31" transform="translate(-75.89 178.28) rotate(-22.39)" style="fill:#387ADF"></circle><path d="M383.58,328.87H436a11,11,0,0,0,11-10.95v-30.5a23.17,23.17,0,0,0-8.4-1.34,19.16,19.16,0,0,0-11.77,4.9c-3,2.6-5.22,5.67-8,8.41-1.84,1.81-4.23,3.6-7.28,3.8-7.18.47-10.17-7.43-17.06-9a13.84,13.84,0,0,0-9.56,1.71c-5.2,3-7.61,8.17-12.29,11v10.95A11,11,0,0,0,383.58,328.87Z" style="fill:#387ADF"></path><path d="M435.66,328.87a19.43,19.43,0,0,0,2.65-.38,11.35,11.35,0,0,0,6.26-4.13,11,11,0,0,0,2.13-5,17,17,0,0,0,.15-3.15c0-1.1,0-2.25,0-3.44,0-4.75,0-10.16,0-16.13s0-12.53,0-19.56c0-1.75,0-3.57,0-5.35a11,11,0,0,0-1.75-5.07,11.23,11.23,0,0,0-4.05-3.75,11.51,11.51,0,0,0-5.52-1.32l-51.44,0a13,13,0,0,0-3.29.5,11.94,11.94,0,0,0-3,1.44,11.18,11.18,0,0,0-4,5.05,10.72,10.72,0,0,0-.74,3.15c-.08,1.06,0,2.18-.05,3.27v6.51c0,8.6,0,16.9,0,24.81,0,3.95,0,7.8,0,11.55a11.14,11.14,0,0,0,5,9,11.3,11.3,0,0,0,4.73,1.73,20.58,20.58,0,0,0,2.49.09H397l28.32.09,7.7,0,2,0,.68,0s-.23,0-.68,0l-2,0-7.7.05-28.32.08-9.39,0H385.1a19.8,19.8,0,0,1-2.54-.09,11.49,11.49,0,0,1-10.14-11.1c0-3.75,0-7.61,0-11.56,0-7.91,0-16.21,0-24.81q0-3.22,0-6.51c0-1.1,0-2.18.05-3.31a11.56,11.56,0,0,1,5-8.59,12.79,12.79,0,0,1,3.11-1.51,13.26,13.26,0,0,1,3.44-.52l51.44,0a12,12,0,0,1,5.74,1.39,11.84,11.84,0,0,1,4.22,3.91,11.49,11.49,0,0,1,1.8,5.29c.1,1.85,0,3.61,0,5.38,0,7,0,13.58,0,19.56s0,11.38,0,16.13c0,1.19,0,2.34,0,3.44a17.52,17.52,0,0,1-.17,3.19,11.35,11.35,0,0,1-8.62,9.21,9.78,9.78,0,0,1-2,.27Z" style="fill:#263238"></path><rect x="477.93" y="261.33" width="74.35" height="67.53" rx="11.32" style="fill:#fff"></rect><circle cx="517.64" cy="280.83" r="7.31" transform="translate(-62.2 177.88) rotate(-18.41)" style="fill:#455a64"></circle><path d="M488.88,328.87h52.45a11,11,0,0,0,10.95-10.95v-30.5a23.12,23.12,0,0,0-8.39-1.34,19.16,19.16,0,0,0-11.77,4.9c-3,2.6-5.22,5.67-8,8.41-1.83,1.81-4.23,3.6-7.28,3.8-7.17.47-10.16-7.43-17.06-9a13.81,13.81,0,0,0-9.55,1.71c-5.2,3-7.62,8.17-12.29,11v10.95A11,11,0,0,0,488.88,328.87Z" style="fill:#455a64"></path><path d="M541,328.87a19.66,19.66,0,0,0,2.65-.38,11.29,11.29,0,0,0,6.25-4.13,11,11,0,0,0,2.14-5,18.91,18.91,0,0,0,.15-3.15c0-1.1,0-2.25,0-3.44,0-4.75,0-10.16,0-16.13s0-12.53,0-19.56c0-1.75,0-3.57-.06-5.35a11.06,11.06,0,0,0-1.74-5.07,11.26,11.26,0,0,0-4.06-3.75,11.48,11.48,0,0,0-5.52-1.32l-51.43,0a13,13,0,0,0-3.29.5,12.17,12.17,0,0,0-3,1.44,11.25,11.25,0,0,0-4,5.05,11.39,11.39,0,0,0-.74,3.15c-.08,1.06,0,2.18-.05,3.27v6.51c0,8.6,0,16.9,0,24.81v11.55a11.14,11.14,0,0,0,5,9,11.35,11.35,0,0,0,4.73,1.73,20.82,20.82,0,0,0,2.5.09h11.85l28.32.09,7.7,0,2,0,.68,0s-.23,0-.68,0l-2,0-7.7.05-28.32.08-9.38,0H490.4a20,20,0,0,1-2.55-.09,11.51,11.51,0,0,1-10.14-11.1c0-3.75,0-7.61,0-11.56,0-7.91,0-16.21,0-24.81V275c0-1.1,0-2.18.05-3.31a11.41,11.41,0,0,1,.77-3.3,11.68,11.68,0,0,1,4.22-5.29,12.44,12.44,0,0,1,3.11-1.51,13.26,13.26,0,0,1,3.44-.52l51.43,0a11.94,11.94,0,0,1,5.74,1.39,11.67,11.67,0,0,1,4.22,3.91,11.49,11.49,0,0,1,1.8,5.29c.1,1.85,0,3.61,0,5.38,0,7,0,13.58,0,19.56s0,11.38,0,16.13c0,1.19,0,2.34,0,3.44a18.44,18.44,0,0,1-.18,3.19,11.35,11.35,0,0,1-8.61,9.21,9.86,9.86,0,0,1-2,.27Z" style="fill:#263238"></path><path d="M231.56,283.16l-31,18.89L163.35,324.7a4.1,4.1,0,0,0,4.11,4.17h68.77a4.11,4.11,0,0,0,4.11-4.11V286.05A12.94,12.94,0,0,0,231.56,283.16Z" style="fill:#387ADF"></path><path d="M163.35,318.65s0,.25,0,.75l0,2.2c0,1,0,2.17,0,3.58a3.85,3.85,0,0,0,2.84,3.45,4.8,4.8,0,0,0,1.38.13h4.7l7.29,0,17.75,0,21.51,0H234a8,8,0,0,0,3-.32,4.82,4.82,0,0,0,3-4.86c0-17.39,0-36.52,0-56.58v-5.29l.26.26-77.06-.05.22-.21c0,19.05-.07,34.8-.09,45.82,0,5.48,0,9.78-.06,12.73,0,1.46,0,2.58,0,3.35s0,1.14,0,1.14,0-.39,0-1.14,0-1.89,0-3.35c0-2.95,0-7.25-.06-12.73,0-11,0-26.77-.09-45.82v-.22h.21l77.06,0h.26v5.55c0,20.06,0,39.19,0,56.58a5.42,5.42,0,0,1-.82,3.22,5.2,5.2,0,0,1-2.55,2.08,8.4,8.4,0,0,1-3.2.34H230.9l-12,0-21.51,0-17.75,0-7.29,0h-4.7a4.55,4.55,0,0,1-1.43-.15,4,4,0,0,1-2.95-3.63c0-1.43,0-2.62,0-3.59l0-2.2C163.33,318.9,163.35,318.65,163.35,318.65Z" style="fill:#263238"></path><path d="M521.88,144.93l-61.33-.12-33.61,20.78,94.94.14a10.4,10.4,0,0,0,0-20.8Z" style="fill:#fff"></path></g><g id="freepik--speech-bubble-3--inject-296"><path d="M678.11,153.3l5.45,1.32a21.41,21.41,0,1,0-3.29-6.92h0Z" style="fill:#fff"></path><path d="M678.11,153.3a2.38,2.38,0,0,1,.12-.35c.09-.27.22-.62.38-1.07.37-1,.89-2.4,1.56-4.22a.1.1,0,0,1,.13-.06.07.07,0,0,1,.05,0h0l-.19.08a21.25,21.25,0,0,1-.28-10.34,21.89,21.89,0,0,1,2.52-6.36,21.63,21.63,0,0,1,5.14-5.84,22.07,22.07,0,0,1,7.69-3.85,21.2,21.2,0,0,1,9.28-.49,22,22,0,0,1,9.11,3.85,21.68,21.68,0,0,1,8.83,18.19,22,22,0,0,1-2.66,9.63,21,21,0,0,1-6.24,7,22.19,22.19,0,0,1-7.88,3.59,21.7,21.7,0,0,1-7.82.33l-1.79-.34c-.58-.13-1.14-.33-1.69-.48a19.67,19.67,0,0,1-3.07-1.24,21.26,21.26,0,0,1-7.83-6.72l.06,0-4.06-1-1-.28a1.56,1.56,0,0,1-.34-.1l.38.08,1.07.23,4,.92a.07.07,0,0,1,0,0,21.44,21.44,0,0,0,7.81,6.54,20.25,20.25,0,0,0,3,1.2c.54.14,1.09.33,1.66.45l1.76.33a21.14,21.14,0,0,0,7.67-.37,21.73,21.73,0,0,0,7.72-3.55,20.79,20.79,0,0,0,6.08-6.88,21.59,21.59,0,0,0,2.58-9.41,21.21,21.21,0,0,0-8.62-17.78,21.62,21.62,0,0,0-8.9-3.77,20.63,20.63,0,0,0-9.08.45,21.48,21.48,0,0,0-7.55,3.75,21,21,0,0,0-5.07,5.7,21.68,21.68,0,0,0-2.53,6.23,21.36,21.36,0,0,0,.16,10.22.1.1,0,0,1-.07.12s-.09,0-.12-.05h.18c-.71,1.78-1.26,3.15-1.64,4.12-.19.45-.34.81-.44,1.08S678.12,153.3,678.11,153.3Z" style="fill:#263238"></path><polygon points="701.31 150.64 691.19 143.4 693.71 139.87 700.5 144.72 709.48 133.58 712.86 136.3 701.31 150.64" style="fill:#387ADF"></polygon></g><g id="freepik--speech-bubble-2--inject-296"><path d="M462.93,356.63l5.14-1a20,20,0,1,0-5.49-4.59h0Z" style="fill:#fff"></path><path d="M462.93,356.63s0-.11,0-.35-.05-.61-.09-1.06c-.07-1-.18-2.38-.32-4.19a.09.09,0,0,1,.09-.1.07.07,0,0,1,.06,0h0l-.13.14a19.78,19.78,0,0,1-4.27-8.66,20.8,20.8,0,0,1-.34-6.38,20.19,20.19,0,0,1,2.09-7,20.53,20.53,0,0,1,5-6.27,19.68,19.68,0,0,1,7.69-4,20.67,20.67,0,0,1,9.24-.29,20.29,20.29,0,0,1,14.58,12,20.54,20.54,0,0,1,1.49,9.21,19.53,19.53,0,0,1-2.56,8.38,20.12,20.12,0,0,1-11.8,9.45L482,358c-.54.11-1.09.16-1.62.25a18.08,18.08,0,0,1-3.09.14A19.71,19.71,0,0,1,468,355.7h.06l-3.85.7-1,.17-.32.05.35-.09,1-.22,3.78-.79h.06a19.94,19.94,0,0,0,9.18,2.51,17.6,17.6,0,0,0,3-.17c.52-.08,1.06-.13,1.59-.26l1.62-.4a19.84,19.84,0,0,0,6.37-3.31,20.23,20.23,0,0,0,5.16-6,19.18,19.18,0,0,0,2.48-8.21,20.14,20.14,0,0,0-1.47-9A19.82,19.82,0,0,0,481.84,319a20.28,20.28,0,0,0-9,.26,19.25,19.25,0,0,0-7.53,3.93,19.73,19.73,0,0,0-7,12.93,20.5,20.5,0,0,0,.29,6.28,19.81,19.81,0,0,0,4.12,8.61.09.09,0,0,1,0,.13.11.11,0,0,1-.12,0h0l.15-.08c.09,1.78.16,3.17.21,4.14,0,.45,0,.81.05,1.08S462.94,356.62,462.93,356.63Z" style="fill:#263238"></path><path d="M473.05,337.36l-5.47,2.17,5.47,2.17v2.81l-8.44-3.5v-3l8.44-3.49Z" style="fill:#e0e0e0"></path><path d="M479.06,330.09H482l-5.65,18.08h-2.89Z" style="fill:#e0e0e0"></path><path d="M490.58,338.05v3l-8.44,3.5V341.7l5.46-2.17-5.46-2.17v-2.8Z" style="fill:#e0e0e0"></path></g><g id="freepik--speech-bubble-1--inject-296"><path d="M72.93,209.87,72.54,204a22.58,22.58,0,1,0-5.93,5.5h0Z" style="fill:#fff"></path><path d="M72.93,209.87h-.39l-1.21-.05-4.74-.23a.1.1,0,0,1-.1-.11.09.09,0,0,1,0-.07h0l.14.16a22.4,22.4,0,0,1-10.32,3.55,23.08,23.08,0,0,1-7.2-.53,22.68,22.68,0,0,1-7.51-3.33,23.23,23.23,0,0,1-6.3-6.52,22.23,22.23,0,0,1-3.43-9.19,23.29,23.29,0,0,1,1-10.39A22.88,22.88,0,0,1,48.44,168.5,23.26,23.26,0,0,1,59,168.14a22.4,22.4,0,0,1,9,4.06,23.34,23.34,0,0,1,6.1,6.81,22.69,22.69,0,0,1,2.81,7.77c.07.64.14,1.28.22,1.91s0,1.24,0,1.85a20.53,20.53,0,0,1-.28,3.48,22.46,22.46,0,0,1-4.29,10l0-.07c.1,1.9.18,3.38.23,4.42,0,.48,0,.85,0,1.13a2.57,2.57,0,0,1,0,.37s0-.15-.05-.41-.06-.66-.1-1.14c-.08-1-.2-2.48-.35-4.35a.14.14,0,0,1,0-.07A22.58,22.58,0,0,0,76.57,194a20.07,20.07,0,0,0,.25-3.43c0-.6,0-1.21-.07-1.82l-.22-1.88a22.52,22.52,0,0,0-2.8-7.61,22.83,22.83,0,0,0-6-6.64,21.75,21.75,0,0,0-8.84-4,22.78,22.78,0,0,0-10.3.37,22.32,22.32,0,0,0-15.17,14.3,22.66,22.66,0,0,0-1,10.15,21.85,21.85,0,0,0,3.32,9,22.86,22.86,0,0,0,6.15,6.41,22.28,22.28,0,0,0,7.35,3.31,22.42,22.42,0,0,0,17.31-2.81.11.11,0,0,1,.15,0,.12.12,0,0,1,0,.14h0l-.07-.18,4.66.36,1.23.1Z" style="fill:#263238"></path><polygon points="54.48 191.75 45.19 191.75 49.84 186.19 54.48 180.62 59.13 186.19 63.78 191.75 54.48 191.75" style="fill:#e0e0e0"></polygon><rect x="51.17" y="189.6" width="6.62" height="11.95" style="fill:#e0e0e0"></rect></g><g id="freepik--character-2--inject-296"><path d="M446.45,390c-1-1.84-1.86-3.45-2.3-4.2a18.64,18.64,0,0,0-6.68-6.18l-10.16-2.35c0-1.72-.1-3.61-.14-4.87l0-1.38c.16,0,7.62-.84,9.52-9.66.06-.25.11-.52.16-.78a19,19,0,0,0,2.76-8.89,55.61,55.61,0,0,0-.48-10.06,19.52,19.52,0,0,0-3.83-8.92,11.61,11.61,0,0,0-6.65-4.4c-2.66-.72-4.19-1.49-7.88-1.43a20.75,20.75,0,0,0-7.19,1.38,1,1,0,0,0,0-.38,1.65,1.65,0,0,0-1.3-.95,3.29,3.29,0,0,0-.44-.05v-.07c-3.4-2.41-8.44-1.27-11.34,1.72s-4,7.31-4.16,11.47.5,8.31.55,12.47c.1,8.56-2.31,17.34-1.1,25.65a15.6,15.6,0,0,0-9.27,12.95L384,406.66h0l.41.06,1.16.11,1.28.11c.1.7,1.32,9.59,1.51,14.26.28,7,3.64,16.74,5.88,18.81a3.77,3.77,0,0,0,1.3.52c-1,.78-1.63,1.34-1.63,1.34s1.28,17.61,2.46,23.55,7.7,5.28,7.7,5.28H425l-6.8-69.44h28.3Z" style="opacity:0.30000000000000004"></path><path d="M478.83,424.71l-13-5.24-9.92-25.93-13.23,6.82s1.28,2.56,4,8.89c1.06,2.45,4.56,9.27,6,12.59a17.47,17.47,0,0,0,15.59,10.59l12.19.31Z" style="fill:#ffbf9d"></path><path d="M485.28,419.69l2-2.06a2.2,2.2,0,0,1,1.27-.35l6.22.19a3.88,3.88,0,0,1,2.88,1.74l2.26,3.85s1.52,2.63,1.33,3.27a1.14,1.14,0,0,1-1.32.77s-.21,1.22-.62,1.46a1.88,1.88,0,0,1-1.51.1,1.28,1.28,0,0,1-1.55.68c-.74-.22-1.07-1.65-1.07-1.65L492,427.1s-4.53,3-6.12,5-5.78.46-5.78.46l-1.57-7.47Z" style="fill:#ffbf9d"></path><path d="M489.86,420.58a4.41,4.41,0,0,0,1.36.23c.86.1,2.07.13,3.44.31l-.15-.11a12.91,12.91,0,0,0,.81,1.49,16.83,16.83,0,0,0,3,3.54,5.73,5.73,0,0,0,1.56,1.11s-.54-.49-1.37-1.32a20.15,20.15,0,0,1-2.85-3.54,14.86,14.86,0,0,1-.79-1.44l-.05-.1h-.1c-1.41-.16-2.61-.14-3.47-.17A7.57,7.57,0,0,0,489.86,420.58Z" style="fill:#ff9a6c"></path><path d="M489.72,423.55a3,3,0,0,0,1.17.31,8.89,8.89,0,0,0,3-.1l-.22-.13a9.58,9.58,0,0,0,.46,1.13,9.4,9.4,0,0,0,2.33,3.07,4.19,4.19,0,0,0,1.34.88c0-.06-.46-.4-1.15-1.08a11.24,11.24,0,0,1-2.17-3c-.17-.36-.32-.73-.45-1.08l-.05-.16-.17,0A15,15,0,0,1,489.72,423.55Z" style="fill:#ff9a6c"></path><path d="M481.82,425.09l5.55-2.58a5.85,5.85,0,0,1,2.42-.72,5.76,5.76,0,0,1,2.57.85l3,1.55a.73.73,0,0,1,.4.35.68.68,0,0,1-.26.63,4.4,4.4,0,0,1-5.78.24,11.9,11.9,0,0,1-1.87,3.69,4.06,4.06,0,0,1-3.66,1.56" style="fill:#ffbf9d"></path><path d="M484.17,430.66s.05,0,.15,0a1.72,1.72,0,0,0,.46.05,3.54,3.54,0,0,0,1.67-.4,5.2,5.2,0,0,0,2-1.8,14.06,14.06,0,0,0,1.45-3.09l-.27.07a4.38,4.38,0,0,0,3.23,1,4.72,4.72,0,0,0,1.8-.5,4.28,4.28,0,0,0,.8-.56,2.4,2.4,0,0,0,.35-.36.72.72,0,0,0,.16-.61.69.69,0,0,0-.33-.41c-.13-.08-.24-.13-.36-.19l-.69-.36-1.35-.7a12.14,12.14,0,0,0-2.68-1.16,4.06,4.06,0,0,0-2.63.39l-2.05,1-3,1.44a6.82,6.82,0,0,0-1.06.58,8,8,0,0,0,1.13-.44l3-1.33,2.07-.93a3.78,3.78,0,0,1,2.42-.34A11.83,11.83,0,0,1,493,423.2l1.35.7.69.36c.24.12.48.24.49.36s-.16.4-.39.58a3.63,3.63,0,0,1-.73.5,4.17,4.17,0,0,1-1.64.47,4.09,4.09,0,0,1-3-.89l-.19-.17-.08.24a15.59,15.59,0,0,1-1.37,3.06,5.11,5.11,0,0,1-1.82,1.76A4,4,0,0,1,484.17,430.66Z" style="fill:#ff9a6c"></path><path d="M409.68,352.47c-.05-4.16-.7-8.31-.54-12.47s1.25-8.49,4.15-11.47,7.94-4.13,11.34-1.72l.7,3.55c-1.34,16-1.16,32.36-2.49,48.4-.18,2.11-1.89,4-2.85,5.91s-2.88,3.44-5,3.31c-2.77-.17-4.58-3-5.44-5.6C406.45,372.84,409.8,362.51,409.68,352.47Z" style="fill:#263238"></path><path d="M419.69,330.89a11.79,11.79,0,0,1,2.12-2.87,4,4,0,0,1,3.28-1.09,1.62,1.62,0,0,1,1.29.95c.19.53-.21,1.24-.77,1.19l-.12.1c-1.24,1.11-2.51,2.18-3.8,3.24a3.23,3.23,0,0,1-1.06.65,1.11,1.11,0,0,1-1.16-.25C419,332.3,419.34,331.49,419.69,330.89Z" style="fill:#455a64"></path><path d="M417.34,335a21,21,0,0,1,16.27-8.1c3.69-.06,5.22.71,7.89,1.43a11.61,11.61,0,0,1,6.65,4.4,19.61,19.61,0,0,1,3.82,8.92,54.71,54.71,0,0,1,.48,10.06,18.31,18.31,0,0,1-3.14,9.46l-8.53,1.48c-4.71.16-9.49.32-14.08-.76s-9.05-3.54-11.51-7.57C411.77,348.71,413.19,340.05,417.34,335Z" style="fill:#263238"></path><path d="M424.93,334.92l11.38-4.52,3,.35c6.69,0,11.3,7.39,11.34,12.81.05,6-.13,13.36-1.08,17.8C447.61,370.28,440,371,440,371s.16,4.75.22,7.74l-17.42-1.25L421.93,338A3.17,3.17,0,0,1,424.93,334.92Z" style="fill:#ffbf9d"></path><path d="M436.16,359.27a1.87,1.87,0,0,1,.66-1.17,1.92,1.92,0,0,1,2.35-.13,2.62,2.62,0,0,1,1,2.44h0a2.36,2.36,0,0,1-1.69,1h-.32a2.16,2.16,0,0,1-1.43-.57A1.89,1.89,0,0,1,436.16,359.27Z" style="fill:#ff9a6c"></path><path d="M447.47,350.81a1.15,1.15,0,0,1-1.18,1.1,1.11,1.11,0,0,1-1.13-1.11,1.15,1.15,0,0,1,1.18-1.1A1.11,1.11,0,0,1,447.47,350.81Z" style="fill:#263238"></path><path d="M448.58,346.57c-.15.14-1-.55-2.23-.62s-2.18.51-2.31.35.1-.34.51-.6a3.19,3.19,0,0,1,1.86-.47,3.08,3.08,0,0,1,1.77.68C448.54,346.23,448.66,346.5,448.58,346.57Z" style="fill:#263238"></path><path d="M440.61,356.3a8.13,8.13,0,0,1,2-.25c.32,0,.62-.06.69-.27a1.61,1.61,0,0,0-.16-.95c-.26-.79-.52-1.61-.81-2.47a40.36,40.36,0,0,1-1.75-6.43,41.57,41.57,0,0,1,2.27,6.27c.26.87.52,1.69.76,2.48a1.82,1.82,0,0,1,.1,1.25.78.78,0,0,1-.55.44,2.08,2.08,0,0,1-.54,0A7.46,7.46,0,0,1,440.61,356.3Z" style="fill:#263238"></path><path d="M440,371a22.88,22.88,0,0,1-11.87-3.88s2.86,6.42,11.91,6.07Z" style="fill:#ff9a6c"></path><path d="M436.91,357c.2,0,.13,1.35,1.23,2.37s2.54.95,2.54,1.14-.33.24-.94.23a3.39,3.39,0,0,1-2.13-.88,2.88,2.88,0,0,1-.94-2C436.64,357.28,436.81,357,436.91,357Z" style="fill:#263238"></path><path d="M448.16,342.22c-.22.29-1.16,0-2.28.07s-2.05.27-2.28,0,0-.43.44-.72a3.56,3.56,0,0,1,3.67,0C448.12,341.79,448.26,342.08,448.16,342.22Z" style="fill:#263238"></path><path d="M434.06,350.43a1.15,1.15,0,0,0,1.09,1.18,1.1,1.1,0,0,0,1.21-1,1.15,1.15,0,0,0-1.09-1.18A1.1,1.1,0,0,0,434.06,350.43Z" style="fill:#263238"></path><path d="M431.78,346.09c.14.15,1-.48,2.27-.46s2.15.67,2.28.52-.07-.34-.46-.64a3.14,3.14,0,0,0-1.82-.6,3,3,0,0,0-1.81.55C431.85,345.75,431.71,346,431.78,346.09Z" style="fill:#263238"></path><path d="M432.53,342.11c.24.29,1.2,0,2.36,0s2.12.22,2.35-.07c.1-.14,0-.43-.47-.7a3.62,3.62,0,0,0-1.9-.5,3.51,3.51,0,0,0-1.89.54C432.56,341.68,432.42,342,432.53,342.11Z" style="fill:#263238"></path><path d="M423.47,353.09c0-.67-.65-2.29-1.31-2.43-1.75-.37-4.94-.4-5.22,4.08-.37,6.13,5.86,5.25,5.88,5.07S423.35,355.41,423.47,353.09Z" style="fill:#ffbf9d"></path><path d="M421.27,357.47s-.11.07-.3.14a1.06,1.06,0,0,1-.8,0,2.68,2.68,0,0,1-1.08-2.45,3.48,3.48,0,0,1,.4-1.51,1.22,1.22,0,0,1,.85-.77.53.53,0,0,1,.61.33c.08.18,0,.3.06.31s.14-.1.1-.35a.63.63,0,0,0-.21-.4.81.81,0,0,0-.58-.19,1.5,1.5,0,0,0-1.18.88,3.66,3.66,0,0,0-.47,1.68,2.78,2.78,0,0,0,1.39,2.75,1.16,1.16,0,0,0,1-.1C421.25,357.62,421.29,357.48,421.27,357.47Z" style="fill:#ff9a6c"></path><path d="M421.91,350.68l1.56,1.62c6.73-6.44,19.87-22.57,19.14-21.6a19.57,19.57,0,0,0-9.61-1.05c-5,.85-14.49,3.36-14.34,9.26S421.91,350.68,421.91,350.68Z" style="fill:#263238"></path><path d="M413,349.33a2,2,0,0,1,.1-.36,5.5,5.5,0,0,1,.42-1,8.87,8.87,0,0,1,2.56-2.88,16.76,16.76,0,0,1,5.16-2.48c2.05-.67,4.36-1.19,6.63-2.16a30.65,30.65,0,0,0,6.06-3.39,31.19,31.19,0,0,0,6.74-6.68c.26-.34.46-.62.62-.84a2.21,2.21,0,0,1,.23-.29,1.21,1.21,0,0,1-.18.32c-.13.21-.31.51-.57.89a26.88,26.88,0,0,1-2.41,3A29.41,29.41,0,0,1,428,340.77a67.09,67.09,0,0,1-6.67,2.15,16.75,16.75,0,0,0-5.11,2.38,9.26,9.26,0,0,0-2.59,2.76C413.17,348.85,413,349.34,413,349.33Z" style="fill:#455a64"></path><path d="M414.79,350.29A3.25,3.25,0,0,1,415,349a6.26,6.26,0,0,1,2.3-2.89,14,14,0,0,1,5.12-2,30.78,30.78,0,0,0,6.35-2,26.6,26.6,0,0,0,5.67-3.5,27.57,27.57,0,0,0,6-6.79c.22-.35.39-.64.52-.86a1.5,1.5,0,0,1,.2-.29,1.82,1.82,0,0,1-.14.32l-.47.89a25.17,25.17,0,0,1-2.1,3.05,26.46,26.46,0,0,1-9.59,7.47,30.14,30.14,0,0,1-6.43,2,13.91,13.91,0,0,0-5.05,1.91,6.28,6.28,0,0,0-2.32,2.75A6.77,6.77,0,0,0,414.79,350.29Z" style="fill:#455a64"></path><path d="M422.12,361.06s-.52-.11-1.43-.35a8.79,8.79,0,0,1-3.43-1.91,12.27,12.27,0,0,1-3.19-4.88,21.47,21.47,0,0,1-1.33-7.07,17.37,17.37,0,0,1,.3-3.72,18.49,18.49,0,0,1,1-3.33,17.7,17.7,0,0,1,3.18-4.94,29.12,29.12,0,0,1,4.11-3.59,1.58,1.58,0,0,0-.33.18c-.22.13-.54.31-.93.58a18.85,18.85,0,0,0-3.06,2.63,17.66,17.66,0,0,0-3.31,5,18.15,18.15,0,0,0-1.06,3.39,17.62,17.62,0,0,0-.31,3.81,21.14,21.14,0,0,0,1.38,7.19,12.32,12.32,0,0,0,3.35,5,8.53,8.53,0,0,0,3.58,1.86,8.68,8.68,0,0,0,1.08.17A1.45,1.45,0,0,0,422.12,361.06Z" style="fill:#455a64"></path><path d="M414.31,436.49l36.27,5.27a119.07,119.07,0,0,0,43,3.68L439,470.9l-21.92.34s-6.67,0-7.83-5.82-.08-25.25-.08-25.25A20.14,20.14,0,0,1,414.31,436.49Z" style="fill:#263238"></path><g style="opacity:0.30000000000000004"><path d="M414.42,451.75a52.54,52.54,0,0,0-.64,11,10.89,10.89,0,0,1-2.69-9.16c.32-1.79,1.07-3.76.13-5.32-.63-1.05-2.29-2.25-2.05-3.45,0,0,1.46,0,2.78-.05l3.26-.11a11.66,11.66,0,0,0-.58,7.21"></path></g><polygon points="440.16 377.26 422.54 375.36 419.32 378.3 431.89 385.69 437.44 388.57 442.92 386.9 444.66 383.63 440.16 377.26" style="fill:#ffbf9d"></polygon><path d="M463.91,398.72s-5.52-10.6-6.89-12.92a18.64,18.64,0,0,0-6.68-6.18l-10.18-2.36s1.06,5.1-5.28,5.46c-8.05.45-13.06-7.28-13.06-7.28s-9.19.95-11.73,2-9.72,4.07-10.77,13.62l-2.46,15.59,19.42,1.48L416,428.89l8.25,6.75,25.21,8.69c.72.26.54-9.81,2.24-18.44l3.2-7.77a30.13,30.13,0,0,0,2.26-9.76c.12-2.21.06-3.88.06-3.88S462.22,402.77,463.91,398.72Z" style="fill:#387ADF"></path><path d="M448.61,436.18l-32.56-9.77.23-18.27-16.58-1.27s1.32,9.47,1.51,14.33c.28,7,3.64,16.74,5.89,18.81s42.37,4.32,42.37,4.32Z" style="fill:#ffbf9d"></path><path d="M467.07,441.93a1.26,1.26,0,0,1-1.28.62,1.28,1.28,0,0,1-.32-.09c-.71-.29-.53-1.78-.53-1.78l-3.47-.84s-4.79,2.59-6.56,4.41-5.8-.07-5.8-.07l-.85-7.59,6.91-5.35s-.42.32.11-.74,2.52-.48,2.52-.48c.36-.52,1.7-.61,1.7-.61l5.62,1.09a3.9,3.9,0,0,1,2.7,2l2.1,4s1.06,2.83.8,3.45a1.12,1.12,0,0,1-1.37.64s-.42,1.78-.9,1.8a3.83,3.83,0,0,1-1.38-.44Z" style="fill:#ffbf9d"></path><path d="M455.43,435.62c0,.06.76.05,2,.2a16.88,16.88,0,0,1,6.86,2.42c.65.44,1.34.81,1.53,1.33a.69.69,0,0,1-.12.67,1,1,0,0,1-.45.33,1.35,1.35,0,0,1-.51,0s.17.17.54.11a1.11,1.11,0,0,0,.58-.34.91.91,0,0,0,.2-.88,1.89,1.89,0,0,0-.64-.85c-.3-.22-.6-.45-.95-.68a14.67,14.67,0,0,0-2.34-1.25,14.86,14.86,0,0,0-4.68-1.15A6.67,6.67,0,0,0,455.43,435.62Z" style="fill:#ff9a6c"></path><path d="M454.75,439.2c0,.11,2.32.19,5.14.58s5.07.91,5.1.8a6.56,6.56,0,0,0-1.45-.47,32.57,32.57,0,0,0-3.61-.69,33.87,33.87,0,0,0-3.65-.29A6.74,6.74,0,0,0,454.75,439.2Z" style="fill:#ff9a6c"></path><path d="M467.05,441.78a2.59,2.59,0,0,0,.12-.6,13.77,13.77,0,0,0,.13-1.65,6,6,0,0,0-.07-1.17,3.31,3.31,0,0,0-.46-1.27,7.73,7.73,0,0,0-1.95-2.34,10.46,10.46,0,0,0-2.61-1.58,9.27,9.27,0,0,0-2.41-.56c-.7-.08-1.27-.11-1.66-.13a1.83,1.83,0,0,0-.61,0,18.68,18.68,0,0,0,2.23.36,10.69,10.69,0,0,1,2.33.62,11.34,11.34,0,0,1,2.5,1.55,7.67,7.67,0,0,1,1.89,2.22,4.26,4.26,0,0,1,.57,2.28C467.08,440.91,467,441.78,467.05,441.78Z" style="fill:#ff9a6c"></path><path d="M459.66,430.87c0,.05.85.14,2.19.4s3.37.56,4.41,2.45a19.16,19.16,0,0,1,2.52,4.67,10.86,10.86,0,0,1,.37,2.16,1.55,1.55,0,0,0,.08-.6,5.4,5.4,0,0,0-.2-1.63,16.76,16.76,0,0,0-2.47-4.8,5.85,5.85,0,0,0-1-1.2,3.89,3.89,0,0,0-1.29-.73,12.36,12.36,0,0,0-2.37-.57A8.34,8.34,0,0,0,459.66,430.87Z" style="fill:#ff9a6c"></path><path d="M456.24,443.14a1.88,1.88,0,0,0,.36-.23l1-.69a39.43,39.43,0,0,1,3.92-2.27h-.08l3.46.86-.11-.15a3.53,3.53,0,0,0,0,.86,1.52,1.52,0,0,0,.33.87.82.82,0,0,0,.45.25,1.15,1.15,0,0,0,.49.07,1.42,1.42,0,0,0,.91-.41,1.63,1.63,0,0,0,.17-.2l0-.05,0,0v0h0l-.21.06h0l.11.05.44.2a3.68,3.68,0,0,0,.47.15,1.09,1.09,0,0,0,.26,0,.67.67,0,0,0,.33,0,1.1,1.1,0,0,0,.38-.44,4.84,4.84,0,0,0,.21-.47,8,8,0,0,0,.3-1l-.21.13a1.33,1.33,0,0,0,1.34-.35,1,1,0,0,0,.29-.68,3,3,0,0,0-.07-.69,19.25,19.25,0,0,0-.77-2.6h0L469,434.28c-.24-.46-.48-.9-.71-1.35a7.13,7.13,0,0,0-.79-1.31,3.67,3.67,0,0,0-1.21-.94,5.11,5.11,0,0,0-1.42-.42l-5.3-1h0a5,5,0,0,0-.95.17,1.6,1.6,0,0,0-.86.51l.2-.05a2,2,0,0,0-1.83,0,2.32,2.32,0,0,0-1,1.37l0-.07c-2,1.52-3.61,2.77-4.76,3.66l-1.29,1a2.83,2.83,0,0,0-.43.37,2.71,2.71,0,0,0,.48-.31l1.33-.95,4.83-3.57,0,0,0-.05a2,2,0,0,1,.89-1.18,1.65,1.65,0,0,1,1.54,0l.12.06.08-.11a1.4,1.4,0,0,1,.69-.38,4.36,4.36,0,0,1,.89-.15h0l5.29,1a4.46,4.46,0,0,1,1.33.39,3.32,3.32,0,0,1,1.09.85,6.9,6.9,0,0,1,.75,1.25c.23.45.47.89.71,1.35l1.12,2.12v0a17.49,17.49,0,0,1,.76,2.54,2.58,2.58,0,0,1,.07.6.73.73,0,0,1-.2.47,1,1,0,0,1-1,.25l-.17,0,0,.16a7.32,7.32,0,0,1-.29.94,1.74,1.74,0,0,1-.42.73.33.33,0,0,1-.15,0,.86.86,0,0,1-.21,0,2.39,2.39,0,0,1-.43-.14,3.79,3.79,0,0,1-.42-.18l-.1,0h0l-.21.06h0l0,0,0,0a1.07,1.07,0,0,1-.14.16,1.12,1.12,0,0,1-.7.33,1,1,0,0,1-.39-.05.66.66,0,0,1-.31-.16,2.3,2.3,0,0,1-.27-1.5v-.13l-.12,0-3.47-.82h0l0,0a34.43,34.43,0,0,0-3.89,2.39c-.43.31-.76.56-1,.74A1.92,1.92,0,0,0,456.24,443.14Z" style="fill:#ff9a6c"></path><path d="M473.16,447.85s23-7.21,30.2-9.55c12.42-4,20.55,0,23.12,4.49,3.33,5.76-4.65,17-7.73,19.6-9.11,7.66-24.72,8.69-24.72,8.69h0L437.87,471l16.4-22.23Z" style="fill:#263238"></path><path d="M466.83,458.11a56.08,56.08,0,0,0,27.56-3.75,34.86,34.86,0,0,1,4.6-1.71,13.3,13.3,0,0,1,4.74-.34,4.7,4.7,0,0,1,3.35,1.52c1.12,1.47.88,4.37.26,6.12a14.7,14.7,0,0,1-3.25,5,14,14,0,0,1-6.51,3.78,56.11,56.11,0,0,1-14.71,2.12l-17.07-.93Z" style="fill:#455a64"></path><path d="M487.9,466.4c-.15,0,.2-1.44.14-3.17s-.5-3.11-.35-3.16a5.37,5.37,0,0,1,.87,3.14A5.28,5.28,0,0,1,487.9,466.4Z" style="fill:#263238"></path><path d="M492.4,465.3c-.16-.05.2-1.44.14-3.18s-.5-3.1-.35-3.15a5.45,5.45,0,0,1,.87,3.14A5.28,5.28,0,0,1,492.4,465.3Z" style="fill:#263238"></path><path d="M496.55,464.14c-.15,0,.2-1.44.14-3.17s-.5-3.11-.35-3.16a5.45,5.45,0,0,1,.87,3.14A5.28,5.28,0,0,1,496.55,464.14Z" style="fill:#263238"></path><path d="M486.42,463a2.23,2.23,0,0,1-.13.86,9.05,9.05,0,0,1-.91,2.17c-.12.21-.25.43-.41.67a1.83,1.83,0,0,1-.68.64,1,1,0,0,1-1.09-.18,1.12,1.12,0,0,1-.09-1.14,6.3,6.3,0,0,1,3-3.12l.08.49a3.43,3.43,0,0,1-.42-.08,4.46,4.46,0,0,1-3.2-3.1,1.36,1.36,0,0,1,.12-1.15,1,1,0,0,1,1.09-.26,3.14,3.14,0,0,1,1.39,1.1,6.85,6.85,0,0,1,1.06,2.22,2.45,2.45,0,0,1,.15.88,4.14,4.14,0,0,1-.34-.81,7.69,7.69,0,0,0-1.16-2.06,2.87,2.87,0,0,0-1.22-.92.56.56,0,0,0-.61.12,1,1,0,0,0,0,.75,4,4,0,0,0,2.86,2.73l.36.07.77.16-.69.33a6.08,6.08,0,0,0-2.83,2.82.68.68,0,0,0,0,.68.5.5,0,0,0,.57.08c.41-.19.68-.72.95-1.11A18,18,0,0,0,486.42,463Z" style="fill:#263238"></path><path d="M414.53,446.45c1.33-3.78,1.55-9.34,9.78-12s14.45,2.45,18.67,4.23,27.34,14.45,27.34,14.45,4.35,7.76,3.11,11.18-6.87,6.82-6.87,6.82H440.72c-6.67,0-19.08-.22-19.08-.22a77.53,77.53,0,0,1-4.45-8.45l-.22-1.11C417,460.45,413.19,450.23,414.53,446.45Z" style="fill:#263238"></path><path d="M428.85,466.08a.66.66,0,0,0,.19.35,4.23,4.23,0,0,0,.85.77,21.6,21.6,0,0,0,3.65,2.05,24.16,24.16,0,0,0,2.7,1.06,20.34,20.34,0,0,0,3.26.7,63.34,63.34,0,0,0,7.59.3c5.38.09,10.25.29,13.78.25,1.77,0,3.2-.09,4.18-.19a10.08,10.08,0,0,0,1.13-.16,1.81,1.81,0,0,0,.38-.09s-.54.06-1.52.11-2.41.09-4.17.07c-3.52,0-8.39-.26-13.77-.35a67.1,67.1,0,0,1-7.56-.27,18.77,18.77,0,0,1-3.21-.66,22.19,22.19,0,0,1-2.68-1,24.71,24.71,0,0,1-3.68-1.92,6.34,6.34,0,0,1-.88-.7C428.91,466.2,428.87,466.07,428.85,466.08Z" style="fill:#263238"></path><path d="M466.56,471.12a3.71,3.71,0,0,0,.35-.18l1-.6a23.7,23.7,0,0,0,3.4-2.7,10.91,10.91,0,0,0,1.92-2.48,5.75,5.75,0,0,0,.38-3.68,31,31,0,0,0-3.13-8.43v0l0,0c-4.23-2.33-9.09-5-14.4-7.83-2.65-1.42-5.42-2.89-8.29-4.37-1.44-.74-2.89-1.5-4.42-2.18s-3-1.49-4.48-2.26a25.18,25.18,0,0,0-6.68-2.51,15.77,15.77,0,0,0-3.48-.32,16.66,16.66,0,0,0-9.31,3.31,12.12,12.12,0,0,0-2.15,2.33,13.85,13.85,0,0,0-1.39,2.74c-.36.93-.62,1.88-.89,2.8a24.12,24.12,0,0,0-.74,2.74,18.23,18.23,0,0,0,.45,5.29c.33,1.64.74,3.18,1.14,4.62.21.71.41,1.41.61,2.08a18.9,18.9,0,0,1,.51,1.91v0c.09.42.16.77.23,1.11h0a26.85,26.85,0,0,0,3,6.44,11.27,11.27,0,0,0,1.57,2,.56.56,0,0,0-.1-.13l-.3-.38a16.61,16.61,0,0,1-1.08-1.53,27.52,27.52,0,0,1-2.87-6.44h0c-.42-.35-.34-.7-.22-1.11v0a19.78,19.78,0,0,0-.5-2c-.19-.67-.39-1.36-.59-2.08-.4-1.43-.8-3-1.12-4.6a17.84,17.84,0,0,1-.41-5.2,21.8,21.8,0,0,1,.74-2.69c.27-.92.53-1.86.89-2.78a13.36,13.36,0,0,1,1.36-2.66,12.07,12.07,0,0,1,2.09-2.26,16.26,16.26,0,0,1,9.11-3.22,15.66,15.66,0,0,1,3.4.32,24.83,24.83,0,0,1,6.58,2.48c1.51.77,3,1.61,4.51,2.27s3,1.43,4.4,2.16c2.87,1.48,5.63,2.95,8.29,4.36l14.42,7.78-.05-.06a31,31,0,0,1,3.15,8.34,5.54,5.54,0,0,1-.33,3.55,10.26,10.26,0,0,1-1.87,2.45,24,24,0,0,1-3.33,2.75l-.94.63Z" style="fill:#263238"></path><path d="M424.5,461.53s-7.7.92-7,4.69a7,7,0,0,0,3.2,5l20.93,0S429.11,470.43,424.5,461.53Z" style="fill:#455a64"></path><path d="M423.75,459.7a2.85,2.85,0,0,0,.23,1.07,8.41,8.41,0,0,0,1.25,2.33,6.24,6.24,0,0,0,2.95,2.26,17,17,0,0,1-2.66-2.48A22,22,0,0,1,423.75,459.7Z" style="fill:#263238"></path><path d="M426.42,461.18a5.08,5.08,0,0,0,.75,2.68,5.74,5.74,0,0,0,1.68,2.22c.08-.07-.68-1-1.36-2.38S426.52,461.17,426.42,461.18Z" style="fill:#263238"></path><path d="M416.6,470.2c.06,0-.44-1-1-2.6a27.91,27.91,0,0,1-1.57-6.53,28.39,28.39,0,0,1,.05-6.72c.23-1.71.49-2.75.43-2.77a3.11,3.11,0,0,0-.24.72,18.26,18.26,0,0,0-.44,2,24.85,24.85,0,0,0,1.53,13.39,19.2,19.2,0,0,0,.88,1.86A2.78,2.78,0,0,0,416.6,470.2Z" style="fill:#455a64"></path><g style="opacity:0.30000000000000004"><path d="M421,459.5c.05-.51.25-1.11.75-1.21s1,.58,1.28,1.15c2.65,6.14,11.38,10.92,18,11.54a61.43,61.43,0,0,1-9.67-.79,14.74,14.74,0,0,1-7.37-3.38A8.88,8.88,0,0,1,421,459.5Z"></path></g><path d="M472,451.15a21.85,21.85,0,0,0,3.7-1.41,22.34,22.34,0,0,0,3.56-1.74,22.21,22.21,0,0,0-3.7,1.41A21.31,21.31,0,0,0,472,451.15Z" style="fill:#263238"></path><g style="opacity:0.2"><path d="M464.48,447.92q15-2.87,30-5.09L502,445.2c-2.1,3.9-6.24,6.38-10.54,7.41s-8.81.78-13.21.37c-4.86-.44-9.84-1.12-14.06-3.56-.32-.18-.69-.46-.65-.83S464.07,448,464.48,447.92Z"></path></g><path d="M513.55,418.23,501,446a3.27,3.27,0,0,1-2.92,1.92l-36.63.47-4.61-2.48,7.23-.53,11.25-27a2.34,2.34,0,0,1,2.13-1.44l35.09-.26A1.1,1.1,0,0,1,513.55,418.23Z" style="fill:#e0e0e0"></path><path d="M513.55,418.23a.79.79,0,0,0,.11-.34,1.12,1.12,0,0,0-.34-1,1.16,1.16,0,0,0-.71-.31h-3.22l-14.69.05-10.21.05-5.71,0-1.5,0a2.45,2.45,0,0,0-1.47.61,3.2,3.2,0,0,0-.84,1.36l-.6,1.42c-3.2,7.68-6.75,16.16-10.49,25.14l.17-.13-7,.51-.25,0-.7.05.62.34,4.62,2.48,0,0h.06l27.77-.38,6.2-.09c1,0,2,0,3-.07a3.45,3.45,0,0,0,2.49-1.53c1.63-3.44,3-6.62,4.32-9.53l6.14-13.74c.71-1.61,1.26-2.86,1.65-3.73l.41-1a2.5,2.5,0,0,0,.13-.33,3.55,3.55,0,0,0-.16.32l-.46.95c-.39.86-1,2.1-1.71,3.7L505,436.88c-1.33,2.88-2.75,6.12-4.35,9.47a3.11,3.11,0,0,1-2.25,1.38c-.93,0-1.95,0-2.94,0l-6.2.08-27.78.34.1,0-4.62-2.48-.08.38.25,0,7-.51h.13l0-.12c3.74-9,7.27-17.46,10.46-25.14.2-.48.4-1,.59-1.44a2.9,2.9,0,0,1,.75-1.22,2.13,2.13,0,0,1,1.26-.53l1.47,0,5.71-.06,10.21-.1,14.7-.17,2.29,0h.92a1.1,1.1,0,0,1,.66.27,1,1,0,0,1,.35.9A2.45,2.45,0,0,1,513.55,418.23Z" style="fill:#263238"></path><path d="M465.14,448.34a1.2,1.2,0,0,0,.17-.3l.42-.9,1.47-3.32c1.23-2.82,2.89-6.73,4.68-11.06s3.37-8.27,4.46-11.14c.55-1.44,1-2.6,1.26-3.42.13-.37.24-.68.32-.93a1.48,1.48,0,0,0,.09-.34,1.25,1.25,0,0,0-.16.31c-.1.25-.23.55-.38.91-.34.85-.8,2-1.37,3.37-1.18,2.89-2.78,6.79-4.55,11.1L467,443.72c-.56,1.38-1,2.52-1.37,3.37-.14.37-.26.67-.36.92A1.93,1.93,0,0,0,465.14,448.34Z" style="fill:#263238"></path><path d="M487.86,431.69a1.8,1.8,0,1,0,1.8-1.79A1.81,1.81,0,0,0,487.86,431.69Z" style="fill:#fff"></path><path d="M452.21,387c-.06,0,.47,1,1.21,2.67a46.23,46.23,0,0,1,3.77,13.51c.22,1.79.28,2.91.34,2.91a2.89,2.89,0,0,0,0-.79c0-.51,0-1.24-.11-2.15a38.08,38.08,0,0,0-3.79-13.6c-.41-.82-.76-1.46-1-1.89A3.87,3.87,0,0,0,452.21,387Z" style="fill:#263238"></path><path d="M396.86,406.66a2,2,0,0,0,.4.06l1.17.11,4.35.37,14.88,1.12h.2v-.19c.12-2,.25-4.06.39-6.21.21-3.73.39-7.3.45-10.54A14.93,14.93,0,0,0,416.8,383a10.37,10.37,0,0,0-4.17-4,8.81,8.81,0,0,0-1.48-.58,2.9,2.9,0,0,0-.54-.13c0,.05.74.21,1.95.84a10.47,10.47,0,0,1,4,4,14.86,14.86,0,0,1,1.79,8.21c-.08,3.24-.27,6.8-.48,10.53-.13,2.14-.26,4.23-.38,6.21l.2-.18-14.89-1-4.36-.25-1.18-.05A1.55,1.55,0,0,0,396.86,406.66Z" style="fill:#263238"></path><path d="M433.37,419.35a2.52,2.52,0,0,0,.65-.24,4.86,4.86,0,0,0,.73-.36,9.34,9.34,0,0,0,.92-.57,13.23,13.23,0,0,0,2.14-1.82,15.62,15.62,0,0,0,2.06-2.76,15,15,0,0,0,1.32-3.18,12.7,12.7,0,0,0,.47-2.78,10.07,10.07,0,0,0,0-1.08,6,6,0,0,0-.06-.81,2.35,2.35,0,0,0-.13-.68c-.08,0,.05,1-.11,2.55a14.26,14.26,0,0,1-.53,2.69,16.48,16.48,0,0,1-1.32,3.09,16.31,16.31,0,0,1-2,2.72,15.51,15.51,0,0,1-2,1.84C434.24,418.89,433.34,419.28,433.37,419.35Z" style="fill:#263238"></path></g></svg>
