<svg width="20" height="20" viewBox="0 0 20 20" fill="none" xmlns="http://www.w3.org/2000/svg">
<path d="M1.25 2.49951C1.25 1.12087 2.37109 0 3.75 0H10C11.3789 0 12.5 1.12087 12.5 2.49951V9.99805H12.8125C14.7109 9.99805 16.25 11.5368 16.25 13.4349V14.6846C16.25 15.2041 16.668 15.622 17.1875 15.622C17.707 15.622 18.125 15.2041 18.125 14.6846V8.67018C17.0469 8.39289 16.25 7.41261 16.25 6.24878V3.74927L15 2.49951C14.6562 2.15583 14.6562 1.59344 15 1.24976C15.3438 0.906073 15.9062 0.906073 16.25 1.24976L19.2695 4.2687C19.7383 4.73736 20 5.37395 20 6.03788V6.56512V7.50244V8.7522V14.6885C20 16.2429 18.7422 17.5005 17.1875 17.5005C15.6328 17.5005 14.375 16.2429 14.375 14.6885V13.4388C14.375 12.5757 13.6758 11.8766 12.8125 11.8766H12.5V17.5005C13.1914 17.5005 13.75 18.059 13.75 18.7502C13.75 19.4415 13.1914 20 12.5 20L1.25 19.9961C0.558594 19.9961 0 19.4376 0 18.7463C0 18.0551 0.558594 17.4966 1.25 17.4966V2.49951ZM3.75 3.12439V6.87366C3.75 7.21734 4.03125 7.49854 4.375 7.49854H9.375C9.71875 7.49854 10 7.21734 10 6.87366V3.12439C10 2.78071 9.71875 2.49951 9.375 2.49951H4.375C4.03125 2.49951 3.75 2.78071 3.75 3.12439Z" fill="#387ADF"/>
</svg>
