<svg width="20" height="20" viewBox="0 0 20 20" fill="none" xmlns="http://www.w3.org/2000/svg">
<path d="M2.22222 0C0.996528 0 0 1.28125 0 2.85714V4.28571H20V2.85714C20 1.28125 19.0035 0 17.7778 0H2.22222ZM20 8.57143H0V17.1429C0 18.7188 0.996528 20 2.22222 20H17.7778C19.0035 20 20 18.7188 20 17.1429V8.57143ZM3.88889 14.2857H6.11111C6.41667 14.2857 6.66667 14.6071 6.66667 15C6.66667 15.3929 6.41667 15.7143 6.11111 15.7143H3.88889C3.58333 15.7143 3.33333 15.3929 3.33333 15C3.33333 14.6071 3.58333 14.2857 3.88889 14.2857ZM7.77778 15C7.77778 14.6071 8.02778 14.2857 8.33333 14.2857H12.7778C13.0833 14.2857 13.3333 14.6071 13.3333 15C13.3333 15.3929 13.0833 15.7143 12.7778 15.7143H8.33333C8.02778 15.7143 7.77778 15.3929 7.77778 15Z" fill="#387ADF"/>
</svg>
