<svg width="20" height="20" viewBox="0 0 20 20" fill="none" xmlns="http://www.w3.org/2000/svg">
<g clip-path="url(#clip0_1211_9933)">
<path d="M11.7815 14.3396C12.7294 14.1873 13.5835 13.5818 14.1148 12.6638L19.7294 2.8943C20.1669 2.13259 20.0558 1.12477 19.4655 0.50368C18.8752 -0.117414 17.9759 -0.172101 17.3301 0.374774L9.11133 7.31227C8.27799 8.0154 7.78494 9.11305 7.77799 10.2849L11.7815 14.3396ZM11.1009 15.3318L7.07313 11.2537C4.99674 11.3396 3.33355 13.2654 3.33355 15.6248C3.33355 15.7771 3.34049 15.9295 3.35438 16.0779C3.41688 16.7615 3.00022 17.4998 2.38911 17.4998H2.22244C1.60786 17.4998 1.11133 18.0584 1.11133 18.7498C1.11133 19.4412 1.60786 19.9998 2.22244 19.9998H7.22244C9.37174 19.9998 11.1113 18.0427 11.1113 15.6248C11.1113 15.5271 11.1079 15.4295 11.1044 15.3318H11.1009Z" fill="#3FABD9"/>
</g>
<defs>
<clipPath id="clip0_1211_9933">
<rect width="20" height="20" fill="white"/>
</clipPath>
</defs>
</svg>
