<svg width="20" height="20" viewBox="0 0 20 20" fill="none" xmlns="http://www.w3.org/2000/svg">
<path d="M4.28571 1.25V2.5H2.14286C0.959821 2.5 0 3.33984 0 4.375V6.25H20V4.375C20 3.33984 19.0402 2.5 17.8571 2.5H15.7143V1.25C15.7143 0.558594 15.0759 0 14.2857 0C13.4955 0 12.8571 0.558594 12.8571 1.25V2.5H7.14286V1.25C7.14286 0.558594 6.50446 0 5.71429 0C4.92411 0 4.28571 0.558594 4.28571 1.25ZM20 7.5H0V18.125C0 19.1602 0.959821 20 2.14286 20H17.8571C19.0402 20 20 19.1602 20 18.125V7.5Z" fill="#387ADF"/>
</svg>
