<svg width="28" height="28" viewBox="0 0 28 28" fill="none" xmlns="http://www.w3.org/2000/svg">
<path d="M9.5 1.3125C9.5 0.585156 8.83125 0 8 0C7.16875 0 6.5 0.585156 6.5 1.3125V3.5H4C1.79375 3.5 0 5.06953 0 7V7.875V10.5V24.5C0 26.4305 1.79375 28 4 28H24C26.2062 28 28 26.4305 28 24.5V10.5V7.875V7C28 5.06953 26.2062 3.5 24 3.5H21.5V1.3125C21.5 0.585156 20.8312 0 20 0C19.1688 0 18.5 0.585156 18.5 1.3125V3.5H9.5V1.3125ZM3 10.5H25V24.5C25 24.9813 24.55 25.375 24 25.375H4C3.45 25.375 3 24.9813 3 24.5V10.5ZM14 12.6875C13.1687 12.6875 12.5 13.2727 12.5 14V16.625H9.5C8.66875 16.625 8 17.2102 8 17.9375C8 18.6648 8.66875 19.25 9.5 19.25H12.5V21.875C12.5 22.6023 13.1687 23.1875 14 23.1875C14.8313 23.1875 15.5 22.6023 15.5 21.875V19.25H18.5C19.3312 19.25 20 18.6648 20 17.9375C20 17.2102 19.3312 16.625 18.5 16.625H15.5V14C15.5 13.2727 14.8313 12.6875 14 12.6875Z" fill="#3FABD9"/>
</svg>
