<svg width="83" height="83" viewBox="0 0 83 83" fill="none" xmlns="http://www.w3.org/2000/svg">
<path d="M11.6405 44.7941C-2.18671 66.3394 24.4471 59.0416 27.4429 64.5258C33.2685 70.2385 34.885 69.3245 60.3508 64.5258C85.8165 59.7271 74.6563 28.347 57.3695 21.0402C40.0827 13.7334 22.9335 12.4653 17.6192 17.7796C-0.648947 36.0477 21.1618 29.9583 11.6405 44.7941Z" fill="#EAE4E9"/>
<path d="M15.46 60.9489H62.6171L69.4541 63.7537H18.4402L15.46 60.9489Z" fill="#7E8BA9"/>
<path d="M49.9874 53.82L53.5564 53.571L50.5684 51.579L50.9834 50.915L54.1374 52.492L52.6434 49.255L53.2244 48.923L55.2164 51.828L55.4654 48.342H56.2124L56.4614 51.828L58.3704 48.923L59.0344 49.338L57.5404 52.492L60.6944 50.998L61.0264 51.579L58.1214 53.571L61.6904 53.82V54.567L58.1214 54.816L61.0264 56.725L60.6944 57.389L57.5404 55.895L59.0344 59.049L58.3704 59.381L56.4614 56.476L56.1294 60.045H55.4654L55.2164 56.476L53.2244 59.381L52.5604 59.049L54.1374 55.895L50.9834 57.389L50.5684 56.725L53.4734 54.816L49.9874 54.567V53.82Z" fill="#CED9ED"/>
<path d="M49.5045 54.3383L49.5042 54.3282V54.318C49.5042 50.8254 52.3374 48.09 55.7322 48.09C59.2248 48.09 61.9602 50.9233 61.9602 54.318C61.9602 57.8106 59.127 60.546 55.7322 60.546C52.3191 60.546 49.5979 57.7965 49.5045 54.3383ZM28.2872 48.3737L30.0305 47.6916L28.129 46.7804C28.0693 46.8774 28.0143 46.9873 27.9747 47.106C27.9092 47.3024 27.8867 47.5189 27.9511 47.758C27.9963 47.926 28.0923 48.134 28.2872 48.3737ZM62.7842 54.318C62.7842 50.4163 59.634 47.2661 55.7322 47.2661C51.8304 47.2661 48.6802 50.4163 48.6802 54.318C48.6802 58.2198 51.8304 61.37 55.7322 61.37C59.634 61.37 62.7842 58.2198 62.7842 54.318Z" fill="#8A8E97" stroke="black" stroke-width="1.5"/>
<mask id="path-5-inside-1_272_2118" fill="white">
<path d="M55.7982 50.2511C57.9562 50.2511 59.6992 51.9941 59.6992 54.1521C59.6992 56.3101 57.9562 58.0531 55.7982 58.0531C53.6402 58.0531 51.8972 56.3101 51.8972 54.1521C51.8972 51.9941 53.6402 50.2511 55.7982 50.2511ZM55.7982 56.4761C57.1262 56.4761 58.1222 55.3971 58.1222 54.1521C58.1222 52.9071 57.0432 51.8281 55.7982 51.8281C54.4702 51.8281 53.4742 52.9071 53.4742 54.1521C53.4742 55.3971 54.5532 56.4761 55.7982 56.4761Z"/>
</mask>
<path d="M55.7982 50.2511C57.9562 50.2511 59.6992 51.9941 59.6992 54.1521C59.6992 56.3101 57.9562 58.0531 55.7982 58.0531C53.6402 58.0531 51.8972 56.3101 51.8972 54.1521C51.8972 51.9941 53.6402 50.2511 55.7982 50.2511ZM55.7982 56.4761C57.1262 56.4761 58.1222 55.3971 58.1222 54.1521C58.1222 52.9071 57.0432 51.8281 55.7982 51.8281C54.4702 51.8281 53.4742 52.9071 53.4742 54.1521C53.4742 55.3971 54.5532 56.4761 55.7982 56.4761Z" fill="#E6E6E6"/>
<path d="M55.7982 48.7511C58.7846 48.7511 61.1992 51.1657 61.1992 54.1521H58.1992C58.1992 52.8225 57.1278 51.7511 55.7982 51.7511V48.7511ZM61.1992 54.1521C61.1992 57.1385 58.7846 59.5531 55.7982 59.5531V56.5531C57.1278 56.5531 58.1992 55.4817 58.1992 54.1521H61.1992ZM55.7982 59.5531C52.8118 59.5531 50.3972 57.1385 50.3972 54.1521H53.3972C53.3972 55.4817 54.4686 56.5531 55.7982 56.5531V59.5531ZM50.3972 54.1521C50.3972 51.1657 52.8118 48.7511 55.7982 48.7511V51.7511C54.4686 51.7511 53.3972 52.8225 53.3972 54.1521H50.3972ZM55.7982 54.9761C56.2631 54.9761 56.6222 54.6038 56.6222 54.1521H59.6222C59.6222 56.1904 57.9894 57.9761 55.7982 57.9761V54.9761ZM56.6222 54.1521C56.6222 53.7355 56.2148 53.3281 55.7982 53.3281V50.3281C57.8716 50.3281 59.6222 52.0787 59.6222 54.1521H56.6222ZM55.7982 53.3281C55.3333 53.3281 54.9742 53.7004 54.9742 54.1521H51.9742C51.9742 52.1138 53.6071 50.3281 55.7982 50.3281V53.3281ZM54.9742 54.1521C54.9742 54.5687 55.3816 54.9761 55.7982 54.9761V57.9761C53.7248 57.9761 51.9742 56.2255 51.9742 54.1521H54.9742Z" fill="#8A8E97" mask="url(#path-5-inside-1_272_2118)"/>
<path d="M29.905 52.0488L36.29 49.4979V46.0412L29.905 49.0657V52.0488Z" fill="#94989B" stroke="black" stroke-width="1.5"/>
<mask id="path-8-inside-2_272_2118" fill="white">
<path d="M55.3828 41.951L43.2648 43.694C46.9997 43.1568 55.3828 41.951 55.3828 41.951Z"/>
</mask>
<path d="M55.3828 41.951L43.2648 43.694C46.9997 43.1568 55.3828 41.951 55.3828 41.951Z" fill="#94989B"/>
<path d="M55.5964 43.4358L43.4784 45.1788L43.0513 42.2093L55.1693 40.4663L55.5964 43.4358ZM43.0513 42.2093C44.9187 41.9407 47.9482 41.505 50.5109 41.1364C51.7922 40.9521 52.9568 40.7846 53.801 40.6631C54.2232 40.6024 54.5652 40.5532 54.8018 40.5192C54.92 40.5022 55.0119 40.489 55.0742 40.48C55.1054 40.4755 55.1291 40.4721 55.1451 40.4698C55.1531 40.4687 55.1591 40.4678 55.1632 40.4672C55.1652 40.4669 55.1667 40.4667 55.1677 40.4665C55.1682 40.4665 55.1686 40.4664 55.1689 40.4664C55.169 40.4664 55.1691 40.4664 55.1692 40.4663C55.1692 40.4663 55.1693 40.4663 55.3828 41.951C55.5964 43.4358 55.5963 43.4358 55.5963 43.4358C55.5962 43.4358 55.5961 43.4358 55.596 43.4358C55.5957 43.4359 55.5953 43.4359 55.5948 43.436C55.5938 43.4361 55.5923 43.4364 55.5903 43.4366C55.5862 43.4372 55.5802 43.4381 55.5722 43.4392C55.5562 43.4415 55.5325 43.445 55.5013 43.4494C55.439 43.4584 55.3471 43.4716 55.2289 43.4886C54.9923 43.5227 54.6503 43.5718 54.2282 43.6326C53.3839 43.754 52.2193 43.9215 50.938 44.1058C48.3753 44.4744 45.3458 44.9102 43.4784 45.1788L43.0513 42.2093Z" fill="black" mask="url(#path-8-inside-2_272_2118)"/>
<path d="M41.9411 47.7664L43.1458 41.9979L23.6597 40.6994L22.4522 43.7705L32.1258 45.7539L41.9411 47.7664Z" fill="#3FABD9" stroke="black" stroke-width="1.5"/>
<path d="M45.3536 43.8897L45.1918 41.4712L45.1901 41.4462V41.4211C45.1901 41.3404 45.1549 41.2255 45.0244 41.0811C44.8979 40.9411 44.7138 40.8119 44.5131 40.7192C44.3951 40.6822 44.0746 40.6294 43.5038 40.587C42.9373 40.5451 42.2094 40.5181 41.3714 40.5033C39.6971 40.4737 37.6187 40.4934 35.5864 40.533C33.5558 40.5727 31.578 40.6322 30.1075 40.6819C29.8189 40.6916 29.5499 40.7009 29.304 40.7097L29.7744 41.2182L35.3602 41.5122L35.4287 41.5158L35.4953 41.5318L45.3536 43.8897Z" fill="#8A8E97" stroke="black" stroke-width="1.5"/>
<path d="M56.628 45.6061C54.788 45.6061 53.077 46.2624 51.729 47.3792L55.9797 47.4677L61.0466 47.5733C61.027 47.5442 61.0055 47.5143 60.9819 47.4836C60.7472 47.1777 60.3555 46.8582 59.8444 46.5648C58.8142 45.9734 57.51 45.6061 56.628 45.6061Z" fill="#3FABD9" stroke="black" stroke-width="1.5"/>
<path d="M17.3693 53.3221L20.9383 53.0731L18.0333 51.0811L18.3653 50.4171L21.6023 51.9941L20.0253 48.7571L20.6893 48.4251L22.5983 51.3301L22.8473 47.8441H23.5943L23.8433 51.3301L25.8353 48.4251L26.4993 48.8401L24.9223 51.9941L28.1593 50.5001L28.4913 51.0811L25.5033 53.0731L29.0723 53.3221V54.0691L25.5863 54.3181L28.4913 56.2271L28.0763 56.8911L24.9223 55.3971L26.4993 58.5511L25.8353 58.8831L23.8433 55.9781L23.5943 59.5471H22.8473L22.5983 55.9781L20.6063 58.8831L20.0253 58.5511L21.5193 55.3971L18.3653 56.8911L18.0333 56.2271L20.9383 54.3181L17.3693 54.0691V53.3221Z" fill="#CED9ED"/>
<path d="M30.3135 53.654C30.3135 49.7523 27.1633 46.6021 23.2615 46.6021C19.3597 46.6021 16.2095 49.7523 16.2095 53.654C16.2095 57.5558 19.3597 60.7061 23.2615 60.7061C27.1633 60.7061 30.3135 57.5558 30.3135 53.654ZM29.4895 53.654C29.4895 57.1466 26.6563 59.8821 23.2615 59.8821C19.8667 59.8821 17.0335 57.1466 17.0335 53.654C17.0335 50.1615 19.8667 47.4261 23.2615 47.4261C26.7541 47.4261 29.4895 50.2593 29.4895 53.654Z" fill="#8A8E97" stroke="black" stroke-width="1.5"/>
<path d="M26.4131 53.654C26.4131 51.9103 25.0059 50.5031 23.2621 50.5031C21.5183 50.5031 20.1111 51.9103 20.1111 53.654C20.1111 55.3978 21.5183 56.805 23.2621 56.805C25.0059 56.805 26.4131 55.3978 26.4131 53.654ZM26.3361 53.654C26.3361 55.2957 25.0217 56.7281 23.2621 56.7281C21.5025 56.7281 20.1881 55.2957 20.1881 53.654C20.1881 51.9948 21.6029 50.58 23.2621 50.58C24.9213 50.58 26.3361 51.9948 26.3361 53.654Z" fill="#E6E6E6" stroke="#8A8E97" stroke-width="1.5"/>
<path d="M51.9799 47.6781C51.5639 47.054 51.5638 47.0541 51.5637 47.0541L51.5636 47.0542L51.5631 47.0545L51.5617 47.0555L51.5566 47.0589L51.5382 47.0712L51.4709 47.1169C51.4133 47.1562 51.3314 47.2127 51.2322 47.2823C51.0345 47.4213 50.7659 47.6146 50.4851 47.8306C50.2062 48.0452 49.9053 48.2897 49.6473 48.5304C49.416 48.7464 49.1447 49.026 48.994 49.3171C48.7403 49.7769 48.5823 50.4708 48.471 51.1459C48.3532 51.8611 48.2708 52.6737 48.2129 53.431C48.1549 54.1905 48.1207 54.9062 48.1011 55.4312C48.0912 55.6941 48.0849 55.9098 48.0812 56.0603C48.0793 56.1356 48.078 56.1946 48.0772 56.235L48.0763 56.2814L48.0761 56.2937L48.076 56.297L48.076 56.2979L48.076 56.2982C48.076 56.2983 48.076 56.2984 48.8259 56.3101L48.076 56.2984L48.0758 56.3101H48.0759C48.0759 56.4317 48.0307 56.53 47.9813 56.582C47.959 56.6055 47.9348 56.6214 47.9063 56.6316C47.8791 56.6414 47.8313 56.6521 47.754 56.6444L33.355 54.688C33.5899 53.594 33.6259 52.1189 33.1882 50.2737C33.9342 50.1713 34.5738 49.9491 35.1448 49.6394C35.9335 49.2116 36.5594 48.6332 37.1266 48.0607C37.2752 47.9107 37.4204 47.7608 37.5646 47.6122C38.5419 46.6039 39.4671 45.6495 41.0382 45.0603L41.0433 45.0584L41.0433 45.0584C43.4661 44.1297 46.4815 43.4548 49.0765 43.012C51.6822 42.5674 53.7889 42.3691 54.3869 42.3691C54.8518 42.3691 55.3825 42.2371 55.6729 41.7505C55.9325 41.3154 55.8424 40.8393 55.7584 40.5617C55.5802 39.9723 55.1511 39.3818 54.9725 39.1586L54.9656 39.1498L54.9583 39.1413C54.3231 38.394 53.647 37.8264 52.9738 37.3966C54.5416 38.107 55.8774 39.233 56.8399 40.633L56.8412 40.635C56.9274 40.7594 57.0152 40.8842 57.1027 41.0087C57.4201 41.4597 57.7337 41.9055 57.9488 42.3059C58.0384 42.4729 58.0919 42.5988 58.1212 42.6872C57.2585 43.2852 55.6946 44.3275 54.3049 45.2474C53.569 45.7346 52.8849 46.1855 52.3846 46.5147C52.1346 46.6792 51.9305 46.8133 51.789 46.9063L51.6257 47.0135L51.5831 47.0414L51.5722 47.0485L51.5695 47.0503L51.5688 47.0508L51.5687 47.0509L51.9799 47.6781ZM51.9799 47.6781L51.5638 47.054L51.5686 47.0509L51.9799 47.6781ZM30.9981 43.6122C31.0266 43.1986 30.94 42.9454 30.7215 42.7984C30.4078 42.7484 30.1399 42.6015 29.9266 42.4544C29.6613 42.2715 29.393 42.0256 29.132 41.7782C29.0579 41.7079 28.9823 41.6356 28.9049 41.5615C28.4171 41.0947 27.8569 40.5586 27.1174 40.022C25.5062 38.8529 23.0067 37.6605 18.7769 37.6347C18.7503 37.7437 18.7223 37.8676 18.695 38.0034C18.5846 38.552 18.4901 39.2732 18.5342 40.0036C18.5785 40.7373 18.7592 41.4262 19.1489 41.9654C19.5241 42.4846 20.1424 42.9344 21.2107 43.1213C24.2488 43.6529 26.8194 43.8759 28.6272 43.966C29.5309 44.011 30.2434 44.0228 30.7277 44.0234C30.8023 44.0235 30.8715 44.0234 30.9352 44.023C30.9642 43.8961 30.9882 43.7552 30.9981 43.6122Z" fill="#3FABD9" stroke="black" stroke-width="1.5"/>
</svg>
