<svg width="50" height="50" viewBox="0 0 50 50" fill="none" xmlns="http://www.w3.org/2000/svg">
<circle cx="25" cy="25" r="25" fill="#387ADF"/>
<path opacity="0.4" d="M28.24 16.65H19.76C17.29 16.65 15.29 18.66 15.29 21.12V30.53C15.29 32.99 17.3 35 19.76 35H28.23C30.7 35 32.7 32.99 32.7 30.53V21.12C32.71 18.65 30.7 16.65 28.24 16.65Z" fill="white"/>
<path d="M26.3498 15H21.6498C20.6098 15 19.7598 15.84 19.7598 16.88V17.82C19.7598 18.86 20.5998 19.7 21.6398 19.7H26.3498C27.3898 19.7 28.2298 18.86 28.2298 17.82V16.88C28.2398 15.84 27.3898 15 26.3498 15Z" fill="white"/>
<path d="M38.0948 16.03C36.9632 14.8983 35.8548 14.8692 34.694 16.03L33.9882 16.7358C33.9298 16.7942 33.9065 16.8875 33.9298 16.9692C34.3732 18.515 35.6098 19.7517 37.1557 20.195C37.179 20.2008 37.2023 20.2067 37.2257 20.2067C37.2898 20.2067 37.3482 20.1833 37.3948 20.1367L38.0948 19.4308C38.6723 18.8592 38.9523 18.305 38.9523 17.745C38.9582 17.1675 38.6782 16.6075 38.0948 16.03Z" fill="white"/>
<path d="M36.1059 20.7258C35.9367 20.6442 35.7734 20.5625 35.6159 20.4692C35.4875 20.3933 35.365 20.3117 35.2425 20.2242C35.1434 20.16 35.0267 20.0667 34.9159 19.9733C34.9042 19.9675 34.8634 19.9325 34.8167 19.8858C34.6242 19.7225 34.4084 19.5125 34.2159 19.2792C34.1984 19.2675 34.1692 19.2267 34.1284 19.1742C34.07 19.1042 33.9709 18.9875 33.8834 18.8533C33.8134 18.7658 33.7317 18.6375 33.6559 18.5092C33.5625 18.3517 33.4809 18.1942 33.3992 18.0308C33.2921 17.8014 32.991 17.7332 32.8119 17.9123L29.5317 21.1925C29.4559 21.2683 29.3859 21.4142 29.3684 21.5133L29.0534 23.7475C28.995 24.1442 29.1059 24.5175 29.3509 24.7683C29.5609 24.9725 29.8525 25.0833 30.1675 25.0833C30.2375 25.0833 30.3075 25.0775 30.3775 25.0658L32.6175 24.7508C32.7225 24.7333 32.8684 24.6633 32.9384 24.5875L36.224 21.3019C36.3995 21.1264 36.3335 20.8245 36.1059 20.7258Z" fill="white"/>
</svg>
