<svg width="50" height="50" viewBox="0 0 50 50" fill="none" xmlns="http://www.w3.org/2000/svg">
<circle cx="25" cy="25" r="25" fill="#3FABD9"/>
<path fill-rule="evenodd" clip-rule="evenodd" d="M8.90255 22.3983L8.8906 22.4063C8.3342 22.7772 8 23.4017 8 24.0704V32C8 32.5523 8.44772 33 9 33H10C10.5523 33 11 32.5523 11 32V31H25V32C25 32.5523 25.4477 33 26 33H27C27.5523 33 28 32.5523 28 32V24.0704C28 23.4017 27.6658 22.7772 27.1094 22.4063L27.0974 22.3983C27.4619 22.1878 27.792 21.981 27.8561 21.8889C28.0108 21.6667 28.0819 21 27.8561 21H26L24.8292 18.6584C24.321 17.642 23.2822 17 22.1459 17H13.8541C12.7178 17 11.679 17.642 11.1708 18.6584L10 21H8.14388C7.91814 21 7.9892 21.6667 8.14388 21.8889C8.20802 21.981 8.5381 22.1878 8.90255 22.3983ZM12.102 19.0588L10.3922 22.2647C10.2145 22.5978 10.4559 23 10.8333 23H25.1667C25.5441 23 25.7855 22.5978 25.6078 22.2647L23.898 19.0588C23.5505 18.4071 22.872 18 22.1333 18H13.8667C13.128 18 12.4496 18.4071 12.102 19.0588ZM9 26.0799V24.8705C9 24.4846 9.41861 24.2442 9.75194 24.4386L13.0908 26.3863C13.5509 26.6547 13.3282 27.3607 12.7973 27.3164L9.91695 27.0764C9.39866 27.0332 9 26.6 9 26.0799ZM27 24.8705V26.0799C27 26.6 26.6013 27.0332 26.083 27.0764L23.2027 27.3164C22.6718 27.3607 22.4491 26.6547 22.9092 26.3863L26.2481 24.4386C26.5814 24.2442 27 24.4846 27 24.8705Z" fill="white"/>
<path d="M39.8849 20.575L36.6558 19.2875C36.3211 19.1563 35.7751 19.1563 35.4404 19.2875L32.2113 20.575C31.5889 20.825 31.084 21.6 31.084 22.3063V27.3688C31.084 27.875 31.3952 28.5438 31.7768 28.8438L35.006 31.4125C35.5755 31.8688 36.509 31.8688 37.0785 31.4125L40.3077 28.8438C40.6893 28.5375 41.0005 27.875 41.0005 27.3688V22.3063C41.0063 21.6 40.5014 20.825 39.8849 20.575ZM38.0883 24.075L35.5637 26.7625C35.4757 26.8563 35.3641 26.9 35.2525 26.9C35.141 26.9 35.0294 26.8563 34.9414 26.7625L34.002 25.75C33.8317 25.5688 33.8317 25.2688 34.002 25.0875C34.1722 24.9063 34.4541 24.9063 34.6243 25.0875L35.2584 25.7625L37.4719 23.4063C37.6421 23.225 37.9239 23.225 38.0942 23.4063C38.2645 23.5875 38.2645 23.8938 38.0883 24.075Z" fill="white"/>
</svg>
