<svg width="153" height="27" viewBox="0 0 153 27" fill="none" xmlns="http://www.w3.org/2000/svg">
<path d="M42.4641 21H36.7822L39.197 6.45455H44.6516C46.1478 6.45455 47.3978 6.75521 48.4016 7.35653C49.4053 7.95786 50.1179 8.81723 50.5393 9.93466C50.9607 11.0521 51.0436 12.3826 50.7879 13.9261C50.5417 15.4129 50.0422 16.6842 49.2893 17.7401C48.5412 18.7959 47.5848 19.6032 46.42 20.1619C45.26 20.7206 43.9413 21 42.4641 21ZM41.2851 17.6477H42.7197C43.4394 17.6477 44.081 17.5223 44.6445 17.2713C45.2126 17.0156 45.6861 16.5895 46.0649 15.9929C46.4484 15.3916 46.7254 14.5701 46.8959 13.5284C47.0569 12.5436 47.0521 11.7836 46.8817 11.2486C46.7112 10.7088 46.3869 10.3348 45.9087 10.1264C45.4304 9.91335 44.8125 9.80682 44.055 9.80682H42.5919L41.2851 17.6477ZM52.307 21L54.1252 10.0909H57.932L57.5911 12.1648H57.7047C58.0315 11.3977 58.441 10.8366 58.9334 10.4815C59.4259 10.1264 59.9633 9.94886 60.5457 9.94886C60.7161 9.94886 60.8795 9.96307 61.0357 9.99148C61.1967 10.0152 61.3553 10.0483 61.5116 10.0909L60.9434 13.4432C60.7587 13.3722 60.5291 13.3224 60.2545 13.294C59.9798 13.2609 59.736 13.2443 59.5229 13.2443C59.1441 13.2443 58.789 13.3319 58.4576 13.5071C58.1309 13.6776 57.8515 13.919 57.6195 14.2315C57.3922 14.5393 57.2407 14.9015 57.165 15.3182L56.2275 21H52.307ZM61.7789 21L63.5971 10.0909H67.5175L65.6994 21H61.7789ZM65.7278 8.95455C65.1975 8.95455 64.769 8.77936 64.4423 8.42898C64.1155 8.07386 63.9948 7.65246 64.08 7.16477C64.1653 6.66761 64.4257 6.24621 64.8613 5.90057C65.2969 5.55019 65.7798 5.375 66.3101 5.375C66.8452 5.375 67.2713 5.55019 67.5886 5.90057C67.9058 6.24621 68.0242 6.66761 67.9437 7.16477C67.8679 7.65246 67.6122 8.07386 67.1766 8.42898C66.7458 8.77936 66.2628 8.95455 65.7278 8.95455ZM81.3094 10.0909L75.8264 21H71.281L69.4344 10.0909H73.4116L73.9798 17.3068H74.0935L77.048 10.0909H81.3094ZM86.2731 21.1989C85.1083 21.1989 84.1424 20.9763 83.3753 20.5312C82.6083 20.0814 82.0685 19.4375 81.756 18.5994C81.4435 17.7566 81.3867 16.7481 81.5856 15.5739C81.775 14.447 82.1656 13.4621 82.7574 12.6193C83.354 11.7765 84.1045 11.1207 85.0089 10.652C85.918 10.1832 86.936 9.94886 88.0628 9.94886C88.8867 9.94886 89.6088 10.0767 90.229 10.3324C90.854 10.5881 91.363 10.9598 91.756 11.4474C92.149 11.9351 92.4142 12.5246 92.5515 13.2159C92.6935 13.9025 92.6935 14.679 92.5515 15.5455L92.4094 16.4545H82.6651L83.006 14.2955H89.1424C89.1897 13.983 89.159 13.7083 89.0501 13.4716C88.9459 13.2301 88.7778 13.0431 88.5458 12.9105C88.3185 12.7732 88.0439 12.7045 87.7219 12.7045C87.4 12.7045 87.0969 12.7732 86.8128 12.9105C86.5335 13.0478 86.2944 13.2396 86.0955 13.4858C85.9014 13.732 85.7712 14.0208 85.7049 14.3523L85.2788 16.625C85.2219 16.9754 85.2432 17.2879 85.3427 17.5625C85.4421 17.8371 85.6149 18.0526 85.8611 18.2088C86.1074 18.3651 86.4246 18.4432 86.8128 18.4432C87.078 18.4432 87.3289 18.4077 87.5657 18.3366C87.8072 18.2609 88.0202 18.152 88.2049 18.0099C88.3943 17.8632 88.5458 17.6856 88.6594 17.4773H92.239C91.9833 18.2348 91.5785 18.893 91.0245 19.4517C90.4753 20.0057 89.7982 20.4366 88.9932 20.7443C88.1931 21.0473 87.2863 21.1989 86.2731 21.1989ZM103.474 11C103.517 10.5312 103.403 10.1643 103.133 9.89915C102.863 9.62926 102.409 9.49432 101.769 9.49432C101.362 9.49432 101.021 9.54167 100.747 9.63636C100.477 9.73106 100.266 9.86127 100.115 10.027C99.9678 10.1927 99.8755 10.3845 99.8376 10.6023C99.795 10.7727 99.7974 10.929 99.8447 11.071C99.8968 11.2083 99.9939 11.3338 100.136 11.4474C100.283 11.5611 100.474 11.6629 100.711 11.7528C100.953 11.8428 101.239 11.9233 101.571 11.9943L102.707 12.25C103.483 12.4205 104.135 12.6454 104.66 12.9247C105.19 13.1993 105.607 13.526 105.91 13.9048C106.213 14.2836 106.412 14.7074 106.507 15.1761C106.606 15.6449 106.608 16.1562 106.514 16.7102C106.353 17.6667 105.981 18.4763 105.399 19.1392C104.816 19.8021 104.056 20.3063 103.119 20.652C102.181 20.9976 101.097 21.1705 99.866 21.1705C98.6066 21.1705 97.5365 20.9834 96.6558 20.6094C95.7799 20.2306 95.1454 19.6529 94.7524 18.8764C94.3642 18.0952 94.2695 17.0985 94.4683 15.8864H98.2183C98.1615 16.3314 98.2088 16.7055 98.3604 17.0085C98.5119 17.3116 98.7557 17.5412 99.0919 17.6974C99.4281 17.8537 99.8471 17.9318 100.349 17.9318C100.775 17.9318 101.14 17.8797 101.443 17.7756C101.746 17.6714 101.985 17.527 102.16 17.3423C102.335 17.1577 102.442 16.947 102.48 16.7102C102.518 16.4924 102.48 16.2983 102.366 16.1278C102.252 15.9574 102.046 15.8035 101.748 15.6662C101.45 15.5289 101.04 15.4034 100.519 15.2898L99.1274 14.9773C97.8916 14.6932 96.9588 14.2244 96.3291 13.571C95.6994 12.9176 95.4768 12.0227 95.6615 10.8864C95.813 9.95833 96.1942 9.14867 96.805 8.45739C97.4205 7.76136 98.2017 7.22159 99.1487 6.83807C100.1 6.44981 101.154 6.25568 102.309 6.25568C103.483 6.25568 104.466 6.45218 105.257 6.84517C106.052 7.23816 106.623 7.78977 106.968 8.5C107.319 9.21023 107.413 10.0436 107.252 11H103.474ZM111.174 21.1705C110.483 21.1705 109.888 21.0568 109.391 20.8295C108.899 20.5975 108.539 20.2472 108.312 19.7784C108.089 19.3049 108.039 18.7083 108.162 17.9886C108.262 17.392 108.449 16.883 108.724 16.4616C108.998 16.0402 109.339 15.6946 109.746 15.4247C110.154 15.1548 110.61 14.9489 111.117 14.8068C111.628 14.66 112.168 14.5653 112.736 14.5227C113.352 14.4754 113.851 14.4162 114.235 14.3452C114.618 14.2741 114.905 14.1771 115.094 14.054C115.284 13.9309 115.397 13.7652 115.435 13.5568V13.5284C115.478 13.2443 115.402 13.0265 115.208 12.875C115.019 12.7235 114.753 12.6477 114.412 12.6477C114.043 12.6477 113.724 12.7282 113.454 12.8892C113.189 13.0502 113.006 13.3011 112.907 13.642H109.299C109.45 12.9792 109.761 12.3684 110.229 11.8097C110.703 11.2462 111.33 10.7964 112.111 10.4602C112.897 10.1193 113.835 9.94886 114.924 9.94886C115.7 9.94886 116.382 10.0412 116.969 10.2259C117.556 10.4058 118.042 10.6591 118.425 10.9858C118.814 11.3078 119.086 11.6866 119.242 12.1222C119.403 12.553 119.441 13.0218 119.356 13.5284L118.106 21H114.441L114.697 19.4659H114.611C114.327 19.8731 114.008 20.2022 113.653 20.4531C113.302 20.7041 112.919 20.8864 112.502 21C112.09 21.1136 111.647 21.1705 111.174 21.1705ZM112.878 18.6989C113.172 18.6989 113.461 18.6373 113.745 18.5142C114.029 18.3911 114.273 18.2135 114.476 17.9815C114.68 17.7495 114.81 17.4678 114.867 17.1364L115.009 16.2273C114.905 16.2699 114.789 16.3101 114.661 16.348C114.538 16.3812 114.408 16.4143 114.27 16.4474C114.138 16.4806 113.996 16.5114 113.844 16.5398C113.698 16.5682 113.546 16.5966 113.39 16.625C113.077 16.6723 112.814 16.7505 112.601 16.8594C112.388 16.9635 112.223 17.0938 112.104 17.25C111.986 17.4015 111.912 17.572 111.884 17.7614C111.841 18.0597 111.91 18.2917 112.09 18.4574C112.275 18.6184 112.537 18.6989 112.878 18.6989ZM129.145 10.0909L128.662 12.9318H121.361L121.844 10.0909H129.145ZM121.404 21L123.279 9.77841C123.426 8.87879 123.707 8.13305 124.124 7.54119C124.545 6.94934 125.073 6.50663 125.708 6.21307C126.347 5.91951 127.062 5.77273 127.853 5.77273C128.355 5.77273 128.835 5.81061 129.295 5.88636C129.754 5.96212 130.088 6.02841 130.296 6.08523L129.273 8.89773C129.136 8.85511 128.977 8.82197 128.797 8.7983C128.617 8.76989 128.454 8.75568 128.307 8.75568C127.943 8.75568 127.682 8.83381 127.526 8.99006C127.375 9.14631 127.275 9.35227 127.228 9.60795L125.324 21H121.404ZM134.493 21.1989C133.328 21.1989 132.362 20.9763 131.595 20.5312C130.828 20.0814 130.288 19.4375 129.976 18.5994C129.663 17.7566 129.606 16.7481 129.805 15.5739C129.994 14.447 130.385 13.4621 130.977 12.6193C131.574 11.7765 132.324 11.1207 133.228 10.652C134.137 10.1832 135.155 9.94886 136.282 9.94886C137.106 9.94886 137.828 10.0767 138.449 10.3324C139.074 10.5881 139.583 10.9598 139.976 11.4474C140.369 11.9351 140.634 12.5246 140.771 13.2159C140.913 13.9025 140.913 14.679 140.771 15.5455L140.629 16.4545H130.885L131.226 14.2955H137.362C137.409 13.983 137.378 13.7083 137.27 13.4716C137.165 13.2301 136.997 13.0431 136.765 12.9105C136.538 12.7732 136.263 12.7045 135.941 12.7045C135.619 12.7045 135.316 12.7732 135.032 12.9105C134.753 13.0478 134.514 13.2396 134.315 13.4858C134.121 13.732 133.991 14.0208 133.924 14.3523L133.498 16.625C133.441 16.9754 133.463 17.2879 133.562 17.5625C133.662 17.8371 133.834 18.0526 134.081 18.2088C134.327 18.3651 134.644 18.4432 135.032 18.4432C135.298 18.4432 135.548 18.4077 135.785 18.3366C136.027 18.2609 136.24 18.152 136.424 18.0099C136.614 17.8632 136.765 17.6856 136.879 17.4773H140.459C140.203 18.2348 139.798 18.893 139.244 19.4517C138.695 20.0057 138.018 20.4366 137.213 20.7443C136.413 21.0473 135.506 21.1989 134.493 21.1989Z" fill="#387ADF"/>
<path fill-rule="evenodd" clip-rule="evenodd" d="M10.5152 22.7902C9.72466 20.8498 7.46492 15.5926 6 15.1043C4.9754 14.7628 3.562 14.8101 2.53439 14.9142C3.21883 18.9678 6.44402 22.1581 10.5152 22.7902ZM2.79534 10.5689C3.97313 6.59961 7.64845 3.70432 12 3.70432C16.3515 3.70432 20.0269 6.59961 21.2047 10.5689C19.3101 10.2139 15.9098 9.70432 12 9.70432C8.09017 9.70432 4.6899 10.2139 2.79534 10.5689ZM21.4656 14.9142C20.438 14.8101 19.0246 14.7628 18 15.1043C16.5351 15.5926 14.2753 20.8498 13.4848 22.7902C17.556 22.1581 20.7812 18.9678 21.4656 14.9142ZM24 13.3043C24 19.9317 18.6274 25.3043 12 25.3043C5.37258 25.3043 0 19.9317 0 13.3043C0 6.6769 5.37258 1.30432 12 1.30432C18.6274 1.30432 24 6.6769 24 13.3043Z" fill="#387ADF"/>
</svg>
