<svg width="153" height="27" viewBox="0 0 153 27" fill="none" xmlns="http://www.w3.org/2000/svg">
<path d="M42.4645 21H36.7827L39.1975 6.45455H44.652C46.1483 6.45455 47.3983 6.75521 48.402 7.35653C49.4058 7.95786 50.1184 8.81723 50.5398 9.93466C50.9612 11.0521 51.0441 12.3826 50.7884 13.9261C50.5422 15.4129 50.0427 16.6842 49.2898 17.7401C48.5417 18.7959 47.5853 19.6032 46.4205 20.1619C45.2605 20.7206 43.9418 21 42.4645 21ZM41.2856 17.6477H42.7202C43.4399 17.6477 44.0815 17.5223 44.6449 17.2713C45.2131 17.0156 45.6866 16.5895 46.0654 15.9929C46.4489 15.3916 46.7259 14.5701 46.8964 13.5284C47.0573 12.5436 47.0526 11.7836 46.8822 11.2486C46.7117 10.7088 46.3874 10.3348 45.9091 10.1264C45.4309 9.91335 44.813 9.80682 44.0555 9.80682H42.5924L41.2856 17.6477ZM52.3075 21L54.1257 10.0909H57.9325L57.5916 12.1648H57.7052C58.0319 11.3977 58.4415 10.8366 58.9339 10.4815C59.4264 10.1264 59.9638 9.94886 60.5461 9.94886C60.7166 9.94886 60.88 9.96307 61.0362 9.99148C61.1972 10.0152 61.3558 10.0483 61.5121 10.0909L60.9439 13.4432C60.7592 13.3722 60.5296 13.3224 60.255 13.294C59.9803 13.2609 59.7365 13.2443 59.5234 13.2443C59.1446 13.2443 58.7895 13.3319 58.4581 13.5071C58.1314 13.6776 57.852 13.919 57.62 14.2315C57.3927 14.5393 57.2412 14.9015 57.1655 15.3182L56.228 21H52.3075ZM61.7794 21L63.5976 10.0909H67.518L65.6998 21H61.7794ZM65.7283 8.95455C65.1979 8.95455 64.7694 8.77936 64.4427 8.42898C64.116 8.07386 63.9953 7.65246 64.0805 7.16477C64.1658 6.66761 64.4262 6.24621 64.8618 5.90057C65.2974 5.55019 65.7803 5.375 66.3106 5.375C66.8457 5.375 67.2718 5.55019 67.589 5.90057C67.9063 6.24621 68.0247 6.66761 67.9442 7.16477C67.8684 7.65246 67.6127 8.07386 67.1771 8.42898C66.7462 8.77936 66.2633 8.95455 65.7283 8.95455ZM81.3099 10.0909L75.8269 21H71.2814L69.4349 10.0909H73.4121L73.9803 17.3068H74.0939L77.0485 10.0909H81.3099ZM86.2736 21.1989C85.1088 21.1989 84.1429 20.9763 83.3758 20.5312C82.6088 20.0814 82.069 19.4375 81.7565 18.5994C81.444 17.7566 81.3872 16.7481 81.5861 15.5739C81.7755 14.447 82.1661 13.4621 82.7579 12.6193C83.3545 11.7765 84.105 11.1207 85.0094 10.652C85.9184 10.1832 86.9364 9.94886 88.0633 9.94886C88.8872 9.94886 89.6093 10.0767 90.2295 10.3324C90.8545 10.5881 91.3635 10.9598 91.7565 11.4474C92.1495 11.9351 92.4147 12.5246 92.552 13.2159C92.694 13.9025 92.694 14.679 92.552 15.5455L92.4099 16.4545H82.6656L83.0065 14.2955H89.1429C89.1902 13.983 89.1595 13.7083 89.0506 13.4716C88.9464 13.2301 88.7783 13.0431 88.5463 12.9105C88.319 12.7732 88.0444 12.7045 87.7224 12.7045C87.4005 12.7045 87.0974 12.7732 86.8133 12.9105C86.534 13.0478 86.2949 13.2396 86.096 13.4858C85.9019 13.732 85.7717 14.0208 85.7054 14.3523L85.2792 16.625C85.2224 16.9754 85.2437 17.2879 85.3432 17.5625C85.4426 17.8371 85.6154 18.0526 85.8616 18.2088C86.1078 18.3651 86.4251 18.4432 86.8133 18.4432C87.0785 18.4432 87.3294 18.4077 87.5662 18.3366C87.8077 18.2609 88.0207 18.152 88.2054 18.0099C88.3948 17.8632 88.5463 17.6856 88.6599 17.4773H92.2395C91.9838 18.2348 91.579 18.893 91.025 19.4517C90.4757 20.0057 89.7987 20.4366 88.9937 20.7443C88.1935 21.0473 87.2868 21.1989 86.2736 21.1989ZM103.474 11C103.517 10.5312 103.403 10.1643 103.134 9.89915C102.864 9.62926 102.409 9.49432 101.77 9.49432C101.363 9.49432 101.022 9.54167 100.747 9.63636C100.477 9.73106 100.267 9.86127 100.115 10.027C99.9683 10.1927 99.876 10.3845 99.8381 10.6023C99.7955 10.7727 99.7979 10.929 99.8452 11.071C99.8973 11.2083 99.9944 11.3338 100.136 11.4474C100.283 11.5611 100.475 11.6629 100.712 11.7528C100.953 11.8428 101.24 11.9233 101.571 11.9943L102.707 12.25C103.484 12.4205 104.135 12.6454 104.661 12.9247C105.191 13.1993 105.608 13.526 105.911 13.9048C106.214 14.2836 106.412 14.7074 106.507 15.1761C106.607 15.6449 106.609 16.1562 106.514 16.7102C106.353 17.6667 105.982 18.4763 105.399 19.1392C104.817 19.8021 104.057 20.3063 103.119 20.652C102.182 20.9976 101.098 21.1705 99.8665 21.1705C98.6071 21.1705 97.537 20.9834 96.6563 20.6094C95.7804 20.2306 95.1459 19.6529 94.7529 18.8764C94.3646 18.0952 94.2699 17.0985 94.4688 15.8864H98.2188C98.162 16.3314 98.2093 16.7055 98.3609 17.0085C98.5124 17.3116 98.7562 17.5412 99.0924 17.6974C99.4286 17.8537 99.8476 17.9318 100.349 17.9318C100.776 17.9318 101.14 17.8797 101.443 17.7756C101.746 17.6714 101.985 17.527 102.161 17.3423C102.336 17.1577 102.442 16.947 102.48 16.7102C102.518 16.4924 102.48 16.2983 102.367 16.1278C102.253 15.9574 102.047 15.8035 101.749 15.6662C101.45 15.5289 101.041 15.4034 100.52 15.2898L99.1279 14.9773C97.8921 14.6932 96.9593 14.2244 96.3296 13.571C95.6999 12.9176 95.4773 12.0227 95.662 10.8864C95.8135 9.95833 96.1947 9.14867 96.8055 8.45739C97.421 7.76136 98.2022 7.22159 99.1492 6.83807C100.101 6.44981 101.154 6.25568 102.31 6.25568C103.484 6.25568 104.466 6.45218 105.257 6.84517C106.053 7.23816 106.623 7.78977 106.969 8.5C107.319 9.21023 107.414 10.0436 107.253 11H103.474ZM111.174 21.1705C110.483 21.1705 109.889 21.0568 109.392 20.8295C108.899 20.5975 108.539 20.2472 108.312 19.7784C108.09 19.3049 108.04 18.7083 108.163 17.9886C108.262 17.392 108.449 16.883 108.724 16.4616C108.999 16.0402 109.34 15.6946 109.747 15.4247C110.154 15.1548 110.611 14.9489 111.118 14.8068C111.629 14.66 112.169 14.5653 112.737 14.5227C113.352 14.4754 113.852 14.4162 114.235 14.3452C114.619 14.2741 114.905 14.1771 115.095 14.054C115.284 13.9309 115.398 13.7652 115.436 13.5568V13.5284C115.478 13.2443 115.403 13.0265 115.208 12.875C115.019 12.7235 114.754 12.6477 114.413 12.6477C114.044 12.6477 113.724 12.7282 113.454 12.8892C113.189 13.0502 113.007 13.3011 112.907 13.642H109.299C109.451 12.9792 109.761 12.3684 110.23 11.8097C110.703 11.2462 111.331 10.7964 112.112 10.4602C112.898 10.1193 113.835 9.94886 114.924 9.94886C115.701 9.94886 116.383 10.0412 116.97 10.2259C117.557 10.4058 118.042 10.6591 118.426 10.9858C118.814 11.3078 119.086 11.6866 119.243 12.1222C119.404 12.553 119.441 13.0218 119.356 13.5284L118.106 21H114.441L114.697 19.4659H114.612C114.328 19.8731 114.008 20.2022 113.653 20.4531C113.303 20.7041 112.919 20.8864 112.502 21C112.091 21.1136 111.648 21.1705 111.174 21.1705ZM112.879 18.6989C113.172 18.6989 113.461 18.6373 113.745 18.5142C114.029 18.3911 114.273 18.2135 114.477 17.9815C114.681 17.7495 114.811 17.4678 114.868 17.1364L115.01 16.2273C114.905 16.2699 114.789 16.3101 114.662 16.348C114.538 16.3812 114.408 16.4143 114.271 16.4474C114.138 16.4806 113.996 16.5114 113.845 16.5398C113.698 16.5682 113.547 16.5966 113.39 16.625C113.078 16.6723 112.815 16.7505 112.602 16.8594C112.389 16.9635 112.223 17.0938 112.105 17.25C111.986 17.4015 111.913 17.572 111.885 17.7614C111.842 18.0597 111.911 18.2917 112.091 18.4574C112.275 18.6184 112.538 18.6989 112.879 18.6989ZM129.146 10.0909L128.663 12.9318H121.362L121.845 10.0909H129.146ZM121.404 21L123.279 9.77841C123.426 8.87879 123.708 8.13305 124.125 7.54119C124.546 6.94934 125.074 6.50663 125.708 6.21307C126.348 5.91951 127.063 5.77273 127.853 5.77273C128.355 5.77273 128.836 5.81061 129.295 5.88636C129.754 5.96212 130.088 6.02841 130.296 6.08523L129.274 8.89773C129.136 8.85511 128.978 8.82197 128.798 8.7983C128.618 8.76989 128.455 8.75568 128.308 8.75568C127.943 8.75568 127.683 8.83381 127.527 8.99006C127.375 9.14631 127.276 9.35227 127.228 9.60795L125.325 21H121.404ZM134.493 21.1989C133.328 21.1989 132.362 20.9763 131.595 20.5312C130.828 20.0814 130.289 19.4375 129.976 18.5994C129.664 17.7566 129.607 16.7481 129.806 15.5739C129.995 14.447 130.386 13.4621 130.977 12.6193C131.574 11.7765 132.325 11.1207 133.229 10.652C134.138 10.1832 135.156 9.94886 136.283 9.94886C137.107 9.94886 137.829 10.0767 138.449 10.3324C139.074 10.5881 139.583 10.9598 139.976 11.4474C140.369 11.9351 140.634 12.5246 140.771 13.2159C140.914 13.9025 140.914 14.679 140.771 15.5455L140.629 16.4545H130.885L131.226 14.2955H137.362C137.41 13.983 137.379 13.7083 137.27 13.4716C137.166 13.2301 136.998 13.0431 136.766 12.9105C136.539 12.7732 136.264 12.7045 135.942 12.7045C135.62 12.7045 135.317 12.7732 135.033 12.9105C134.754 13.0478 134.514 13.2396 134.316 13.4858C134.121 13.732 133.991 14.0208 133.925 14.3523L133.499 16.625C133.442 16.9754 133.463 17.2879 133.563 17.5625C133.662 17.8371 133.835 18.0526 134.081 18.2088C134.327 18.3651 134.645 18.4432 135.033 18.4432C135.298 18.4432 135.549 18.4077 135.786 18.3366C136.027 18.2609 136.24 18.152 136.425 18.0099C136.614 17.8632 136.766 17.6856 136.879 17.4773H140.459C140.203 18.2348 139.798 18.893 139.245 19.4517C138.695 20.0057 138.018 20.4366 137.213 20.7443C136.413 21.0473 135.506 21.1989 134.493 21.1989Z" fill="white"/>
<path fill-rule="evenodd" clip-rule="evenodd" d="M10.5152 22.7902C9.72466 20.8498 7.46492 15.5926 6 15.1043C4.9754 14.7628 3.562 14.8101 2.53439 14.9142C3.21883 18.9678 6.44402 22.1581 10.5152 22.7902ZM2.79534 10.5689C3.97313 6.59961 7.64845 3.70432 12 3.70432C16.3515 3.70432 20.0269 6.59961 21.2047 10.5689C19.3101 10.2139 15.9098 9.70432 12 9.70432C8.09017 9.70432 4.6899 10.2139 2.79534 10.5689ZM21.4656 14.9142C20.438 14.8101 19.0246 14.7628 18 15.1043C16.5351 15.5926 14.2753 20.8498 13.4848 22.7902C17.556 22.1581 20.7812 18.9678 21.4656 14.9142ZM24 13.3043C24 19.9317 18.6274 25.3043 12 25.3043C5.37258 25.3043 0 19.9317 0 13.3043C0 6.6769 5.37258 1.30432 12 1.30432C18.6274 1.30432 24 6.6769 24 13.3043Z" fill="white"/>
</svg>
