<svg width="20" height="20" viewBox="0 0 20 20" fill="none" xmlns="http://www.w3.org/2000/svg">
<path d="M8.75194 3.75C8.75194 3.41848 8.88363 3.10054 9.11806 2.86612C9.35248 2.6317 9.67043 2.5 10.002 2.5C10.3335 2.5 10.6514 2.6317 10.8858 2.86612C11.1203 3.10054 11.252 3.41848 11.252 3.75C11.252 4.08152 11.1203 4.39946 10.8858 4.63388C10.6514 4.8683 10.3335 5 10.002 5C9.67043 5 9.35248 4.8683 9.11806 4.63388C8.88363 4.39946 8.75194 4.08152 8.75194 3.75ZM13.5372 5C13.6739 4.60938 13.752 4.1875 13.752 3.75C13.752 1.67969 12.0723 0 10.002 0C7.93161 0 6.2519 1.67969 6.2519 3.75C6.2519 4.1875 6.32612 4.60938 6.46675 5H4.68938C3.83 5 3.07999 5.58594 2.86905 6.42188L0.056507 17.6719C-0.0841199 18.2305 0.0408818 18.8242 0.396355 19.2812C0.751829 19.7383 1.29871 20 1.87684 20H18.1271C18.7052 20 19.2482 19.7344 19.6036 19.2773C19.9591 18.8203 20.0841 18.2305 19.9435 17.668L17.131 6.41797C16.9239 5.58594 16.1739 5 15.3145 5H13.5372Z" fill="#3FABD9"/>
</svg>
