<svg width="20" height="20" viewBox="0 0 20 20" fill="none" xmlns="http://www.w3.org/2000/svg">
<g clip-path="url(#clip0_1211_9924)">
<path d="M11.0707 1.875V10H13.2136V2.29297C14.2806 2.83203 14.9993 3.84375 14.9993 5V10H17.1422V5C17.1422 2.23828 14.5841 0 11.4279 0H8.57074C5.41449 0 2.85646 2.23828 2.85646 5V10H4.99932V5C4.99932 3.84375 5.71807 2.83203 6.78503 2.29297V10H8.92789V1.875H11.0707ZM2.14217 11.25C1.60199 11.25 1.10646 11.5156 0.865388 11.9414L0.151102 13.1914C-0.0721124 13.5781 -0.0453267 14.0391 0.213602 14.4062C0.47253 14.7734 0.932352 15 1.42789 15V18.75C1.42789 19.4414 2.06628 20 2.85646 20C3.64664 20 4.28503 19.4414 4.28503 18.75V15H15.7136V18.75C15.7136 19.4414 16.352 20 17.1422 20C17.9324 20 18.5707 19.4414 18.5707 18.75V15C19.0663 15 19.5261 14.7773 19.785 14.4062C20.044 14.0352 20.0707 13.5781 19.8475 13.1914L19.1332 11.9414C18.8922 11.5156 18.3966 11.25 17.8565 11.25H2.14217Z" fill="#387ADF"/>
</g>
<defs>
<clipPath id="clip0_1211_9924">
<rect width="20" height="20" fill="white"/>
</clipPath>
</defs>
</svg>
