<svg width="20" height="20" viewBox="0 0 20 20" fill="none" xmlns="http://www.w3.org/2000/svg">
<path d="M7.1875 2H12.8125C12.9844 2 13.125 2.15 13.125 2.33333V4H6.875V2.33333C6.875 2.15 7.01562 2 7.1875 2ZM5 2.33333V4H2.5C1.12109 4 0 5.19583 0 6.66667V10.6667H7.5H12.5H20V6.66667C20 5.19583 18.8789 4 17.5 4H15V2.33333C15 1.04583 14.0195 0 12.8125 0H7.1875C5.98047 0 5 1.04583 5 2.33333ZM20 12H12.5V13.3333C12.5 14.0708 11.9414 14.6667 11.25 14.6667H8.75C8.05859 14.6667 7.5 14.0708 7.5 13.3333V12H0V17.3333C0 18.8042 1.12109 20 2.5 20H17.5C18.8789 20 20 18.8042 20 17.3333V12Z" fill="#387ADF"/>
</svg>
