<svg width="20" height="20" viewBox="0 0 20 20" fill="none" xmlns="http://www.w3.org/2000/svg">
<path d="M0 10C0 7.34784 1.05357 4.8043 2.92893 2.92893C4.8043 1.05357 7.34784 0 10 0C12.6522 0 15.1957 1.05357 17.0711 2.92893C18.9464 4.8043 20 7.34784 20 10C20 12.6522 18.9464 15.1957 17.0711 17.0711C15.1957 18.9464 12.6522 20 10 20C7.34784 20 4.8043 18.9464 2.92893 17.0711C1.05357 15.1957 0 12.6522 0 10ZM12.5 13.75C12.5 13.1289 12.2734 12.5625 11.9023 12.125L14.8945 6.36719C15.1328 5.90625 14.9531 5.33984 14.4961 5.10156C14.0391 4.86328 13.4727 5.04297 13.2305 5.5L10.2383 11.2617C10.1602 11.2539 10.082 11.25 10 11.25C8.62109 11.25 7.5 12.3711 7.5 13.75C7.5 15.1289 8.62109 16.25 10 16.25C11.3789 16.25 12.5 15.1289 12.5 13.75Z" fill="#387ADF"/>
</svg>
